<?xml version="1.0" encoding="UTF-8"?><svg id="Layer_1" xmlns="http://www.w3.org/2000/svg" viewBox="0 0 225.44 175.06"><defs><style>.cls-1{stroke-linejoin:round;}.cls-1,.cls-2,.cls-3,.cls-4{stroke:#9e9ef2;}.cls-1,.cls-2,.cls-3,.cls-4,.cls-5{stroke-linecap:round;stroke-width:5px;}.cls-2{stroke-dasharray:0 0 0 0 0 62 60 100 100 200;}.cls-2,.cls-3,.cls-4,.cls-5{stroke-miterlimit:10;}.cls-3{stroke-dasharray:0 0 0 0 0 32 60 100 200 200;}.cls-5{fill:none;stroke:#fff;}</style></defs><g><path class="cls-3" d="M196.51,5.06c13.09,9.28,8.42,50.89-4.64,60.68-13.06,9.79-52.22-19.43-51.37-35.43,.85-16,42.63-34.74,56.01-25.26Z"/><path class="cls-3" d="M30.51,5.13c-13.6,8.52-11.29,50.33,1.19,60.85,12.48,10.52,53.24-16.43,53.3-32.46,.06-16.02-40.59-37.1-54.49-28.39Z"/><path class="cls-2" d="M112.11,18.28c26.87,.71,58.11,1.59,78.27,44.41,31.82,67.58-7.77,97.24-42.9,105.89-24.44,6.02-54.08,5-76.78-1.64-26.55-7.76-67.36-37.5-33.63-108.84C56.14,17.79,90.9,17.72,112.11,18.28Z"/><line class="cls-3" x1="36.34" y1="108.13" x2="2.5" y2="96.7"/><line class="cls-3" x1="37.89" y1="128.36" x2="4.67" y2="138.94"/><line class="cls-4" x1="184.67" y1="110.58" x2="222.94" y2="101.84"/><line class="cls-4" x1="184.9" y1="130.45" x2="222.94" y2="139.45"/></g><circle class="cls-5" cx="154.49" cy="99.12" r="18.52"/><circle class="cls-5" cx="67.24" cy="99.16" r="18.52"/><path class="cls-1" d="M97.42,135.35s7.03,6.75,15.07-2.36c0,0,6.39,10.06,16.45,2.38"/></svg>