<?xml version="1.0" encoding="UTF-8"?><svg id="Layer_1" xmlns="http://www.w3.org/2000/svg" xmlns:xlink="http://www.w3.org/1999/xlink" viewBox="0 0 4396.98 4410.97"><defs><style>.cls-1{fill:url(#linear-gradient);}</style><linearGradient id="linear-gradient" x1="-3341.86" y1="2616.26" x2="705.97" y2="2616.26" gradientTransform="translate(2551.12 -705.53) rotate(-19.96)" gradientUnits="userSpaceOnUse"><stop offset="0" stop-color="#fe53bb"/><stop offset="1" stop-color="#8858e0"/></linearGradient></defs><path class="cls-1" d="M2201.03,4235.54c-115.36,0-231.64-10-345.59-29.73-8.16-1.41-13.63-9.18-12.22-17.34,1.41-8.16,9.17-13.64,17.34-12.22,112.27,19.44,226.82,29.29,340.48,29.29,51.18,0,102.98-2.01,153.96-5.97,8.27-.65,15.48,5.53,16.12,13.79,.64,8.26-5.53,15.48-13.79,16.12-51.76,4.02-104.34,6.06-156.29,6.06Zm-394.17-39.04c-.97,0-1.96-.1-2.95-.29-32.78-6.55-65.85-14.01-98.28-22.18-8.03-2.02-12.91-10.17-10.88-18.21,2.02-8.03,10.18-12.91,18.21-10.88,31.95,8.05,64.53,15.4,96.83,21.85,8.12,1.62,13.39,9.52,11.77,17.65-1.42,7.13-7.69,12.06-14.69,12.06Zm1037.81-67.28c-6.25,0-12.08-3.94-14.2-10.19-2.66-7.85,1.54-16.36,9.39-19.02,59.35-20.13,118.62-43.37,176.16-69.1,32.93-14.72,65.85-30.5,97.84-46.91,7.37-3.78,16.41-.87,20.19,6.5s.87,16.41-6.5,20.19c-32.46,16.65-65.87,32.66-99.28,47.6-58.39,26.1-118.54,49.7-178.77,70.12-1.6,.54-3.22,.8-4.82,.8Zm-1419.81-49.21c-1.92,0-3.88-.37-5.76-1.16-155.24-64.66-302.05-148.37-436.36-248.81-6.63-4.96-7.99-14.36-3.03-21,4.96-6.63,14.36-7.99,21-3.03,132.33,98.95,276.98,181.43,429.93,245.14,7.65,3.19,11.26,11.97,8.08,19.61-2.4,5.76-7.98,9.24-13.85,9.24Zm1783.65-115.45c-5.19,0-10.23-2.69-13.01-7.51-4.14-7.18-1.68-16.35,5.5-20.49,14.83-8.55,29.76-17.42,44.37-26.35,7.07-4.32,16.3-2.1,20.62,4.97,4.32,7.07,2.1,16.3-4.97,20.62-14.83,9.07-29.98,18.07-45.03,26.75-2.36,1.36-4.94,2.01-7.48,2.01Zm434.42-337.56c-3.77,0-7.55-1.41-10.47-4.26-5.93-5.78-6.06-15.28-.28-21.21,115.24-118.3,215.71-251.05,298.59-394.58,4.14-7.17,13.32-9.63,20.49-5.49,7.17,4.14,9.63,13.32,5.49,20.49-84.13,145.68-186.1,280.43-303.08,400.51-2.94,3.02-6.84,4.53-10.75,4.53Zm-3010.19-139.8c-4.38,0-8.72-1.91-11.68-5.58-10.91-13.52-21.8-27.37-32.37-41.18-5.03-6.58-3.78-15.99,2.8-21.03,6.58-5.03,15.99-3.78,21.03,2.8,10.41,13.6,21.14,27.25,31.89,40.57,5.2,6.45,4.2,15.89-2.25,21.09-2.77,2.24-6.1,3.33-9.41,3.33Zm-90.88-121.76c-4.77,0-9.46-2.27-12.37-6.49-56.8-82.45-108.05-170.15-152.31-260.64-3.64-7.44-.56-16.43,6.88-20.07,7.44-3.64,16.43-.56,20.07,6.88,43.61,89.17,94.1,175.57,150.07,256.8,4.7,6.82,2.98,16.16-3.84,20.86-2.6,1.79-5.56,2.65-8.5,2.65Zm3532.16-405.88c-1.83,0-3.69-.34-5.5-1.05-7.71-3.04-11.49-11.75-8.45-19.46,12.08-30.64,23.56-61.99,34.12-93.19,2.65-7.85,11.17-12.06,19.02-9.4,7.85,2.66,12.06,11.17,9.4,19.02-10.72,31.67-22.37,63.49-34.63,94.58-2.33,5.9-7.98,9.5-13.96,9.5Zm50.42-143.36c-1.47,0-2.97-.22-4.45-.68-7.91-2.45-12.34-10.86-9.89-18.77,49.08-158.32,78.4-322.26,87.13-487.26,.44-8.27,7.53-14.63,15.77-14.19,8.27,.44,14.62,7.5,14.19,15.77-8.87,167.48-38.62,333.87-88.44,494.55-1.99,6.43-7.92,10.56-14.32,10.56ZM227.99,2635.29c-6.94,0-13.17-4.84-14.66-11.9-28.92-136.77-43.58-277.02-43.58-416.85,0-27.85,.59-56.08,1.74-83.91,.34-8.28,7.35-14.71,15.61-14.36,8.28,.34,14.71,7.33,14.36,15.61-1.14,27.42-1.72,55.23-1.72,82.67,0,137.75,14.44,275.91,42.93,410.64,1.71,8.1-3.47,16.06-11.57,17.78-1.05,.22-2.09,.33-3.12,.33Zm-38.66-549.03c-.34,0-.68-.01-1.03-.03-8.27-.56-14.51-7.71-13.95-15.98,2.25-33.36,5.38-67.12,9.29-100.35,.97-8.23,8.42-14.11,16.65-13.14,8.23,.97,14.11,8.42,13.14,16.65-3.85,32.74-6.94,66-9.16,98.87-.54,7.92-7.13,13.99-14.95,13.99Zm3987.02-258.41c-7.01,0-13.27-4.93-14.69-12.07-19.32-96.84-46.18-193.26-79.83-286.59-2.81-7.79,1.23-16.39,9.02-19.2,7.8-2.81,16.39,1.23,19.2,9.02,34.15,94.73,61.41,192.6,81.03,290.9,1.62,8.12-3.65,16.02-11.77,17.65-.99,.2-1.98,.29-2.95,.29ZM255.61,1692.44c-1.3,0-2.63-.17-3.95-.53-7.99-2.18-12.71-10.42-10.53-18.41,44.12-162.09,108.23-318.47,190.57-464.8,4.06-7.22,13.21-9.78,20.43-5.72,7.22,4.06,9.78,13.21,5.72,20.43-81.12,144.18-144.3,298.26-187.76,457.97-1.82,6.67-7.86,11.06-14.46,11.06Zm3804.12-246.54c-5.87,0-11.45-3.47-13.85-9.23-6.58-15.78-13.47-31.72-20.47-47.39-12.63-28.25-26.06-56.55-39.93-84.1-3.72-7.4-.74-16.42,6.66-20.14,7.4-3.72,16.42-.74,20.14,6.66,14.07,27.96,27.7,56.68,40.52,85.34,7.11,15.9,14.1,32.08,20.77,48.09,3.19,7.65-.43,16.43-8.07,19.62-1.89,.79-3.84,1.16-5.77,1.16Zm-338.27-546.78c-4.2,0-8.37-1.75-11.34-5.17-64.81-74.69-135.86-145.13-211.19-209.38-6.3-5.38-7.05-14.84-1.68-21.15,5.38-6.3,14.84-7.05,21.15-1.68,76.46,65.22,148.59,136.73,214.38,212.55,5.43,6.26,4.76,15.73-1.5,21.16-2.84,2.46-6.34,3.67-9.82,3.67Zm-2980.35-68.98c-3.72,0-7.44-1.37-10.34-4.14-6-5.71-6.23-15.21-.52-21.21,11.96-12.56,24.25-25.13,36.53-37.38,5.87-5.85,15.36-5.84,21.21,.03,5.85,5.87,5.83,15.36-.03,21.21-12.1,12.06-24.2,24.45-35.99,36.82-2.95,3.1-6.9,4.66-10.86,4.66Zm108.72-105.81c-4.1,0-8.18-1.67-11.14-4.95-5.55-6.15-5.06-15.64,1.09-21.19,74.53-67.23,154.84-129.42,238.7-184.86,6.91-4.57,16.22-2.67,20.78,4.24,4.57,6.91,2.67,16.22-4.24,20.78-82.62,54.61-161.74,115.88-235.15,182.11-2.87,2.59-6.46,3.86-10.04,3.86Zm2581.24-99.09c-3.2,0-6.42-1.02-9.14-3.12-13.54-10.43-27.41-20.83-41.23-30.92-6.69-4.88-8.16-14.27-3.27-20.96,4.88-6.69,14.27-8.15,20.96-3.27,14.02,10.24,28.1,20.8,41.84,31.39,6.56,5.06,7.78,14.47,2.73,21.04-2.96,3.83-7.4,5.85-11.89,5.85Zm-477.46-273.17c-1.87,0-3.77-.35-5.61-1.09-153.63-61.95-314.58-104.75-478.36-127.21-8.21-1.13-13.95-8.69-12.82-16.9,1.13-8.21,8.69-13.95,16.9-12.82,166.24,22.79,329.58,66.23,485.51,129.11,7.68,3.1,11.4,11.84,8.3,19.52-2.36,5.84-7.98,9.39-13.92,9.39Zm-1420.18-32.97c-6.19,0-11.98-3.86-14.15-10.03-2.75-7.81,1.36-16.38,9.17-19.13,158.83-55.88,324.02-91.77,490.98-106.68,8.25-.74,15.54,5.35,16.27,13.61,.74,8.25-5.35,15.54-13.61,16.27-164.48,14.69-327.21,50.05-483.7,105.1-1.65,.58-3.33,.85-4.98,.85Zm539.17-109.85c-7.85,0-14.45-6.11-14.96-14.06-.52-8.27,5.76-15.39,14.02-15.92,33.36-2.11,67.23-3.4,100.67-3.84,8.26-.13,15.09,6.52,15.2,14.8,.11,8.28-6.52,15.09-14.8,15.2-32.94,.43-66.31,1.7-99.17,3.78-.32,.02-.64,.03-.96,.03Z"/></svg>