<?xml version="1.0" encoding="UTF-8"?><svg id="Layer_1" xmlns="http://www.w3.org/2000/svg" xmlns:xlink="http://www.w3.org/1999/xlink" viewBox="0 0 4396.98 4410.97"><defs><style>.cls-1{fill:url(#linear-gradient);}</style><linearGradient id="linear-gradient" x1="-7000.86" y1="1784.25" x2="-2589.72" y2="1784.25" gradientTransform="translate(4713.74 -2248.47) rotate(-40.03)" gradientUnits="userSpaceOnUse"><stop offset="0" stop-color="#29c8fb"/><stop offset="1" stop-color="#ffe266"/></linearGradient></defs><path class="cls-1" d="M2192.69,4410.97h-.03c-80.02,0-160.92-4.4-240.44-13.07-21.96-2.39-37.82-22.14-35.43-44.1,2.39-21.96,22.12-37.82,44.1-35.43,76.65,8.36,154.63,12.59,231.77,12.59h.03c85.92,0,172.68-5.25,257.91-15.62,21.93-2.66,41.87,12.95,44.53,34.88,2.67,21.93-12.95,41.87-34.88,44.54-88.41,10.75-178.43,16.2-267.56,16.2Zm557.06-72.54c-17.7,0-33.88-11.84-38.64-29.75-5.66-21.35,7.05-43.25,28.41-48.92,31.48-8.35,63.19-17.55,94.25-27.35,9.31-2.94,18.89-2.29,27.26,1.16,4.69-7.75,12.02-13.95,21.26-17.11,154.77-52.97,303.38-124.02,441.7-211.18,18.69-11.78,43.39-6.17,55.17,12.52,11.78,18.69,6.17,43.39-12.52,55.17-143.57,90.47-297.81,164.21-458.45,219.19-9.56,3.27-19.51,2.72-28.18-.86-4.85,8.02-12.53,14.37-22.17,17.41-32.23,10.17-65.14,19.72-97.81,28.39-3.44,.91-6.89,1.35-10.28,1.35Zm-1279.6-50.96c-4.42,0-8.91-.74-13.31-2.29-16.57-5.85-33.28-11.97-49.68-18.21-20.65-7.85-31.02-30.96-23.17-51.61,7.85-20.65,30.96-31.02,51.61-23.17,15.8,6.01,31.9,11.91,47.87,17.54,20.83,7.35,31.76,30.2,24.41,51.03-5.8,16.43-21.24,26.7-37.72,26.7Zm-141.39-55.56c-5.32,0-10.72-1.07-15.92-3.32-93.13-40.45-184.25-87.83-270.82-140.83-18.84-11.54-24.77-36.16-13.23-55s36.16-24.77,55-13.23c83.41,51.06,171.2,96.71,260.93,135.68,20.26,8.8,29.55,32.36,20.75,52.62-6.55,15.07-21.26,24.07-36.71,24.07Zm-658.39-446.1c-10.16,0-20.33-3.85-28.13-11.56-10.73-10.62-21.5-21.48-32-32.3-108.05-111.27-204.34-233.67-286.2-363.8-5.39-8.57-7.13-18.39-5.63-27.65-8.93-2.88-16.89-8.9-22.07-17.59-17.31-29.06-34.16-58.9-50.08-88.7-10.41-19.48-3.05-43.72,16.43-54.13,19.49-10.41,43.72-3.05,54.13,16.43,15.34,28.71,31.57,57.46,48.25,85.46,5,8.4,6.57,17.88,5.13,26.83,8.62,2.78,16.36,8.5,21.56,16.77,78.88,125.41,171.7,243.39,275.87,350.67,10.13,10.43,20.51,20.91,30.87,31.15,15.71,15.54,15.85,40.86,.31,56.57-7.82,7.91-18.13,11.87-28.44,11.87Zm3063.64-19.48c-10.15,0-20.31-3.84-28.1-11.54-15.72-15.52-15.88-40.85-.36-56.57,68.98-69.86,133.54-144.9,191.88-223.05,13.22-17.7,38.28-21.34,55.98-8.12,17.7,13.22,21.34,38.28,8.12,55.98-60.54,81.08-127.51,158.93-199.06,231.39-7.83,7.92-18.14,11.9-28.46,11.9Zm253.36-308.67c-7.72,0-15.51-2.23-22.38-6.88-18.29-12.38-23.09-37.25-10.71-55.55,9.47-13.99,18.9-28.3,28.03-42.52,11.94-18.59,36.69-23.98,55.27-12.04,18.59,11.94,23.98,36.68,12.04,55.27-9.48,14.76-19.27,29.6-29.1,44.12-7.73,11.42-20.33,17.58-33.16,17.58ZM159.07,2991.78c-16.31,0-31.63-10.05-37.56-26.25-58.29-159.09-98.17-325.32-118.55-494.07-2.65-21.93,12.99-41.86,34.92-44.51,21.93-2.64,41.86,12.99,44.51,34.92,19.64,162.64,58.07,322.83,114.24,476.14,7.6,20.74-3.05,43.72-23.8,51.32-4.54,1.66-9.19,2.45-13.76,2.45Zm4075.92-25.51c-4.41,0-8.89-.73-13.28-2.28-20.84-7.34-31.78-30.17-24.45-51.01,54.21-154.01,90.64-314.67,108.27-477.51,2.38-21.96,22.1-37.84,44.07-35.46,21.96,2.38,37.84,22.11,35.46,44.07-18.29,168.95-56.09,335.65-112.35,495.46-5.79,16.44-21.23,26.73-37.73,26.73Zm121.97-786.01c-21.54,0-39.31-17.13-39.96-38.81-.97-32.57-2.71-65.54-5.18-98.01-.74-9.73,2.07-18.91,7.33-26.27-6.46-6.33-10.83-14.88-11.8-24.59-16.3-163-51.43-323.96-104.42-478.4-7.17-20.9,3.96-43.65,24.85-50.82,20.89-7.17,43.65,3.96,50.82,24.85,54.98,160.26,91.44,327.28,108.35,496.4,1,10.05-1.8,19.6-7.25,27.22,6.69,6.55,11.12,15.47,11.88,25.54,2.56,33.69,4.37,67.9,5.37,101.68,.66,22.08-16.71,40.52-38.79,41.18-.41,.01-.81,.02-1.21,.02ZM40.05,2007.8c-1.46,0-2.93-.08-4.42-.24-21.96-2.41-37.81-22.17-35.39-44.13,1.92-17.48,4.08-35.16,6.41-52.55,2.94-21.89,23.06-37.26,44.96-34.33,21.9,2.94,37.26,23.07,34.33,44.96-2.25,16.76-4.33,33.81-6.18,50.65-2.25,20.47-19.58,35.64-39.71,35.64Zm21.85-150.36c-2.37,0-4.77-.21-7.18-.65-21.74-3.94-36.16-24.75-32.22-46.49,18.12-99.99,43.38-199.54,75.08-295.88,6.9-20.98,29.51-32.4,50.5-25.5,20.99,6.9,32.4,29.51,25.5,50.5-30.54,92.84-54.89,188.78-72.36,285.15-3.5,19.32-20.34,32.87-39.31,32.87Zm283.32-743.06c-7.13,0-14.35-1.91-20.88-5.91-18.83-11.55-24.73-36.18-13.18-55.01,88.36-144.07,193.95-278.49,313.84-399.51,7.1-7.17,16.25-11.09,25.59-11.75,.79-9.33,4.84-18.42,12.11-25.42,24.37-23.47,49.58-46.67,74.91-68.93,16.59-14.59,41.87-12.96,56.45,3.63,14.59,16.59,12.96,41.87-3.63,56.45-24.42,21.47-48.73,43.84-72.23,66.47-7.03,6.77-15.89,10.45-24.92,11.09-.76,9.02-4.57,17.83-11.44,24.76-115.57,116.66-217.33,246.21-302.48,385.04-7.55,12.31-20.68,19.09-34.14,19.09Zm3680.06-23.09c-13.27,0-26.26-6.6-33.86-18.66-52.11-82.56-110.64-162.42-173.94-237.34-14.26-16.87-12.14-42.11,4.74-56.37,16.87-14.26,42.11-12.14,56.37,4.74,65.69,77.74,126.41,160.6,180.49,246.27,11.79,18.68,6.21,43.38-12.48,55.17-6.63,4.18-14.01,6.18-21.31,6.18Zm-243.5-316.69c-10.75,0-21.47-4.31-29.35-12.82-11.49-12.4-23.31-24.86-35.13-37.04-20.27-20.88-41.22-41.59-62.26-61.57-16.02-15.21-16.67-40.53-1.46-56.55,15.21-16.02,40.53-16.67,56.55-1.46,21.82,20.72,43.54,42.2,64.56,63.85,12.26,12.63,24.52,25.55,36.43,38.41,15.01,16.21,14.04,41.51-2.16,56.53-7.7,7.13-17.45,10.66-27.17,10.66Zm-330.26-291.4c-8.06,0-16.2-2.43-23.26-7.48-26.48-18.96-53.75-37.55-81.05-55.25-8.16-5.29-13.76-13.06-16.44-21.67-8.93,1.29-18.34-.42-26.63-5.51-139.2-85.53-288.56-154.89-443.96-206.15-20.98-6.92-32.38-29.54-25.46-50.52,6.92-20.98,29.54-32.38,50.52-25.46,161.28,53.2,316.31,125.19,460.78,213.96,8.58,5.28,14.48,13.27,17.25,22.19,9.25-1.33,19,.55,27.45,6.03,28.34,18.37,56.64,37.66,84.12,57.34,17.96,12.86,22.09,37.85,9.23,55.81-7.81,10.9-20.09,16.71-32.55,16.71Zm-2449.2-47.28c-13,0-25.74-6.33-33.43-17.99-12.16-18.44-7.07-43.25,11.38-55.41,141.72-93.44,294.41-170.35,453.82-228.61,20.75-7.59,43.72,3.09,51.3,23.84,7.58,20.75-3.09,43.72-23.84,51.3-153.59,56.13-300.7,130.24-437.25,220.26-6.78,4.47-14.42,6.61-21.98,6.61ZM1932.97,95.49c-19.97,0-37.23-14.92-39.67-35.24-2.63-21.93,13.02-41.85,34.95-44.48,17.46-2.09,35.18-4,52.66-5.68,22-2.11,41.52,14.01,43.63,36.01,2.1,21.99-14.02,41.52-36.01,43.63-16.85,1.61-33.93,3.46-50.76,5.47-1.62,.19-3.22,.29-4.81,.29Zm451.23-7.02c-1.18,0-2.37-.05-3.57-.16-62.36-5.51-125.73-8.31-188.35-8.31-35.14,0-70.75,.88-105.84,2.62-22.07,1.08-40.84-15.91-41.93-37.97-1.09-22.06,15.91-40.84,37.97-41.93,36.41-1.8,73.35-2.72,109.8-2.72,64.96,0,130.7,2.9,195.4,8.62,22.01,1.95,38.27,21.36,36.32,43.37-1.84,20.81-19.3,36.48-39.8,36.48Z"/></svg>