<?xml version="1.0" encoding="UTF-8"?><svg id="Layer_1" xmlns="http://www.w3.org/2000/svg" xmlns:xlink="http://www.w3.org/1999/xlink" viewBox="0 0 1975.06 1782.32"><defs><style>.cls-1{fill:#fff;}.cls-2{fill:#9e9ef2;}.cls-3{opacity:.3;}.cls-4{fill:url(#radial-gradient);}</style><radialGradient id="radial-gradient" cx="991.34" cy="3206.17" fx="7221.56" fy="5895.81" r="6786" gradientTransform="translate(611.31 1428.73) scale(.48 .45)" gradientUnits="userSpaceOnUse"><stop offset=".08" stop-color="#fff" stop-opacity="0"/><stop offset=".76" stop-color="#29c8fb" stop-opacity=".8"/><stop offset=".76" stop-color="#28c1f4" stop-opacity=".79"/><stop offset=".78" stop-color="#2471a5" stop-opacity=".71"/><stop offset=".8" stop-color="#21366b" stop-opacity=".65"/><stop offset=".81" stop-color="#1f1247" stop-opacity=".61"/><stop offset=".82" stop-color="#1f053a" stop-opacity=".6"/><stop offset=".88" stop-color="#0d0219" stop-opacity=".27"/><stop offset=".94" stop-color="#030006" stop-opacity=".07"/><stop offset="1" stop-color="#000" stop-opacity="0"/></radialGradient></defs><g><g class="cls-3"><ellipse class="cls-2" cx="1312.38" cy="1424.62" rx="44.15" ry="22.69" transform="translate(-618.34 1269.01) rotate(-42.74)"/><path class="cls-1" d="M1333.26,1390.33h0c-10.26,0-24.08,6.36-36.28,17.63h0l-.03,.03h-.01l-.02,.03h-.01l-.02,.03h0l-.02,.03h0l-.03,.03h0l-.03,.03h0l-.02,.03h0l-.02,.03h0l-.06,.06h0l-.03,.03h0l-.03,.03h0l-.09,.09h0l-.03,.03h0l-.12,.12h0l-.13,.12h0c-1.98,1.87-3.82,3.79-5.53,5.75h0l-.03,.03h0l-.02,.03h0l-.05,.06h0l-.02,.03h0l-.02,.03h0l-.02,.03h0l-.02,.03h-.01l-.02,.03h-.01v.03l-.02,.02h-.01v.03h-.02l-.06,.07h0l-.02,.03h0l-.02,.03h0l-.09,.1h0c-.23,.27-.46,.54-.68,.8-2.29,2.75-1.93,6.85,.83,9.15,1.22,1.02,2.7,1.51,4.17,1.51,1.86,0,3.7-.79,4.99-2.33,1.92-2.29,4.04-4.52,6.32-6.62,10.6-9.79,21.42-14.17,27.46-14.17h0c.96,0,1.6,.12,1.93,.22,.6,2.49-1.28,13.39-14.33,26.35-2.55,2.53-2.56,6.64-.03,9.19,1.27,1.28,2.94,1.92,4.61,1.92s3.31-.63,4.58-1.89c7.85-7.8,13.46-16.37,16.25-24.14h0c.03-.09,.06-.18,.1-.27h0v-.02h0l.04-.12h0v-.02h0l.04-.11h0v-.02h0v-.02h0l.03-.1h0v-.02h0v-.02h0v-.02h0l.02-.06h0v-.02h0v-.02h0v-.02h0v-.02h0l.02-.06h0v-.02h0v-.02h0v-.02h0l.02-.06h0v-.02h0v-.02h0v-.02h0v-.02h0l.02-.08h0v-.02h0v-.02h0v-.02h0l.02-.06h0v-.02h0v-.02h0v-.02h0v-.02h0v-.04h.02v-.02h0v-.02h0v-.02h0v-.02h0v-.02l.02-.05h0v-.02h0v-.02h0v-.02h0v-.02h0v-.04h.01v-.02h0v-.02h0v-.02h0v-.02h0v-.02h0v-.04h.01v-.02h0v-.02h0v-.02h0v-.02h0v-.02h0v-.03h.01v-.02h0v-.02h0v-.02h0v-.02h0v-.02h0v-.03h.01v-.02h0v-.02h0v-.02h0v-.02h0v-.04h0v-.02h0v-.02h0v-.02h0v-.02h0v-.02h0v-.03h0v-.02h0v-.02h0v-.02h0v-.02h0v-.04h0v-.02h0v-.02h0v-.02h0v-.02h0v-.02h0v-.03h0v-.02h0v-.02h0v-.02h0v-.02h0v-.02h0v-.03h0v-.02h0v-.02h0v-.02h0v-.02h0v-.03h0v-.03h0v-.02h0v-.02h0v-.02h0v-.02h0v-.03h0v-.03h0v-.02h0v-.02h0v-.02h0v-.02h0v-.03h0v-.02h0v-.02h0v-.02h0v-.02h0v-.02h0v-.03h0v-.02h0v-.02h0v-.02h0v-.02h0v-.03h0v-.02h0v-.02h0v-.02h0v-.02h0v-.02h0v-.05h.01v-.02h0v-.02h0v-.02h0v-.02h0l.02-.07h0v-.02h0v-.02h0v-.02h0v-.05h.01v-.02h0v-.02h0v-.02h0v-.02h0v-.05h.01v-.02h0v-.02h0v-.02h0v-.02h0v-.05h.01v-.02h0v-.02h0v-.02h0v-.02h0v-.05h.01v-.02h0v-.02h0v-.02h0l.02-.07h0v-.02h0v-.02h0v-.03h0v-.07h.02v-.02h0v-.02h0v-.03h0v-.07h.02v-.02h0v-.02h0v-.03h0v-.05h0v-.02h0v-.02h0v-.02h0v-.07h.01v-.02h0v-.02h0v-.02h0v-.07h.01v-.02h0v-.02h0v-.02h0v-.07h.01v-.02h0v-.02h0v-.07h.01v-.02h0v-.02h0v-.02h0v-.02h0v-.05h0v-.02h0v-.02h0v-.02h0v-.07h.01v-.02h0v-.02h0v-.02h0v-.02h0v-.05h0v-.02h0v-.02h0v-.02h0v-.07h.01v-.02h0v-.02h0v-.09h.02v-.02h0v-.02h0v-.09h.01v-.02h0v-.02h0v-.09h.01v-.02h0v-.02h0v-.09h.01v-.02h0v-.02h0v-.09h.01v-.02h0v-.02h0v-.07h0v-.02h0v-.02h0v-.09h.01v-.02h0v-.02h0v-.09h.01v-.02h0v-.02h0v-.09h.01v-.02h0v-.09h.01v-.02h0v-.02h0v-.02h0v-.07h0v-.02h0v-.02h0s0-.06,.01-.09h0v-.02h0v-.02h0v-.09h0v-.02h0v-.02h0v-.11h.01s0-.07,.01-.11h0v-.02h0s0-.07,.01-.11h0v-.02h0v-.02h0v-.09h0v-.02h0v-.09h0v-.02h0v-.02h0v-.11h0v-.11h0v-.02h0v-.02h0v-.07h0v-.02h0v-.02h0v-.02h0v-.07h0v-.02h0v-.02h0v-.09h0v-.02h0v-.02h0s0-.06,0-.09h0v-.02h0v-.02h0v-.09h0v-.02h0v-.02h0v-.09h0v-.02h0v-.02h0v-.09h0v-.02h0v-.02h0v-.06h0v-.02h0v-.02h0v-.09h0v-.02h0v-.02h0v-.09h0v-.02h0v-.02h0v-.06h0v-.02h0v-.02h0v-.02h0v-.06h0v-.02h0v-.02h0v-.02h0s0-.04,0-.06h0v-.02h0v-.02h0v-.02h0v-.06h0v-.02h0v-.02h0v-.08h0v-.02h0v-.02h0v-.06h0v-.02h0v-.02h0v-.02h0v-.06h0v-.02h0v-.02h0v-.02h0v-.06h0v-.02h0v-.02h0v-.02h0v-.06h0v-.02h0v-.02h0v-.02h0v-.04h0v-.02h0v-.02h0v-.02h0v-.02h0v-.04h0v-.02h0v-.02h0v-.02h0v-.02h0v-.04h0v-.02h0v-.02h0v-.02h0v-.02h0v-.02h0v-.02h0v-.02h0v-.02h0v-.02h0v-.06h0v-.02h0v-.02h0v-.02h0v-.04h0v-.02h0v-.02h0v-.02h0v-.02h0v-.04h0v-.02h0v-.02h0v-.02h0v-.02h0v-.04h0v-.02h0v-.02h0v-.02h0v-.02h0v-.02h0v-.02h0v-.02h0v-.02h0v-.02h0v-.02h0v-.02h0v-.02h0v-.02h0v-.02h0v-.02h0v-.02h0v-.02h0v-.02h0v-.02h0v-.02h0v-.02h0v-.02h0v-.02h0v-.02h0v-.02h0v-.02h0v-.02h0v-.04h0v-.02h0v-.02h0v-.02h0v-.02h0v-.02h0v-.02h0v-.02h0v-.02h0v-.02h0v-.02h0v-.03h0v-.02h0v-.02h0v-.02h0v-.02h0v-.02h0v-.02h0v-.02h0v-.02h0v-.02h0v-.02h0v-.02h0v-.02h0v-.02h0v-.02h0v-.02h0v-.02h0v-.04h0v-.02h0v-.02h0v-.02h0v-.02h0v-.02h0v-.02h0v-.02h0v-.02h0v-.02h0v-.02h0v-.02h0v-.02h0v-.02h0v-.02h0v-.02h0v-.02h0v-.02h0v-.02h0v-.02h0v-.02h0v-.02h0v-.02h0v-.02h0v-.02h0v-.02h0v-.02h0v-.02h0v-.02h0v-.02h0v-.02h0v-.02h0v-.02h0v-.02h0v-.02h0v-.02h0v-.02h0v-.02h0v-.02h0v-.02h0v-.02h0v-.02h0v-.02h0v-.02h0v-.02h0v-.05h-.01v-.02h0v-.02h0v-.02h0v-.02h0v-.03h0v-.02h0v-.02h0v-.02h0v-.02h0v-.04h0v-.02h0v-.02h0v-.02h0v-.02h0v-.02h0v-.03h0v-.02h0v-.02h0v-.02h0v-.02h0v-.02h0v-.03h0v-.02h0v-.02h0v-.02h0v-.02h0v-.02h0v-.03h0v-.02h0v-.02h0v-.02h0v-.02h0v-.02h0v-.03h0v-.02h0v-.02h0v-.02h0v-.02h0v-.03h0v-.02h0v-.02h0v-.02h0v-.02h0v-.05h-.01v-.02h0v-.02h0v-.02h0v-.02h0v-.03h0v-.02h0v-.02h0v-.02h0v-.02h0v-.02h0v-.03h0v-.02h0v-.02h0v-.02h0v-.02h0v-.04h-.01v-.02h0v-.02h0v-.02h0v-.02h0v-.04h-.01v-.02h0v-.02h0v-.02h0v-.02h0v-.04h-.01v-.02h0v-.02h0v-.02h0v-.02h0v-.03h-.01v-.02h0v-.02h0v-.02h0v-.02h0v-.04h-.01v-.02h0v-.02h0v-.02h0v-.02l-.02-.04h0v-.02h0v-.02h0v-.02h0v-.06h-.02v-.02h0v-.02h0v-.02h0v-.05h-.02v-.02h0v-.02h0v-.02h0v-.02h0l-.02-.04h0v-.02h0v-.02h0v-.02l-.02-.05h0v-.02h0v-.02h0v-.02h0l-.02-.06h0v-.02h0v-.03h0l-.02-.06h0v-.02h0v-.02h0v-.02h0l-.02-.04h0v-.02h0v-.02h0v-.03h0l-.02-.04h0v-.02h0v-.02h0v-.02l-.02-.05h0v-.02h0v-.02h0l-.02-.07h0v-.02h0v-.03h0l-.02-.06h0v-.02h0v-.02h0l-.02-.05h0v-.02h0v-.02h0v-.03h0l-.02-.04h0v-.02l-11.09,5.06h0l.1-.18h0l-.1,.18,11.09-5.06h0v-.02h0l-.02-.05h0v-.02h0v-.02h0v-.02l-.02-.03h0v-.02h0v-.02h0v-.02h0v-.02h0v-.02h0v-.02h0v-.02h0v-.02h0v-.02h0v-.02h0v-.02h0v-.02h0v-.02h0v-.02h0v-.02h0v-.02h0v-.02h0l-.02-.03h0v-.02h0v-.02h0v-.02h0v-.02h0v-.02h-.01v-.02h0v-.02h0v-.02h-.01v-.02h0v-.02h0v-.02h0v-.02h0v-.02h-.01v-.02h0v-.02h0v-.02h-.01v-.03h0v-.02h-.02v-.02h-.01v-.02h0v-.02h0v-.02h-.01v-.02h-.01v-.02h0v-.02h0v-.02h-.01v-.02h0v-.02h-.01v-.02h0v-.02h-.01v-.02h-.01v-.02h-.01v-.02h0v-.02h-.01v-.02h-.01v-.02h-.01v-.02h-.01v-.03h-.02v-.02h-.01v-.02h0l-.02-.04h0v-.02h-.01v-.02h0l-.02-.04h0v-.02h-.01l-.03-.06h0v-.02h-.01v-.02h0l-.02-.04h0v-.03h0l-.03-.05h0v-.02h-.01l-.03-.06h0v-.03h0l-.03-.05h0l-.04-.08h0c-.18-.28-.37-.54-.57-.79h0s-.04-.05-.06-.07h0l-.06-.07h0l-.06-.07h0l-.05-.06h-.01v-.02h0l-.03-.03h-.01v-.02h-.02l-.03-.04h-.01v-.02h-.01v-.02h-.01l-.02-.03h-.01v-.02h-.02v-.02h-.02v-.02h-.02v-.02h-.02v-.02h-.02v-.02h-.01v-.02h-.02v-.02h-.02v-.02h-.02v-.03h-.02v-.02h-.02v-.02h-.02v-.02h-.02v-.02h-.02v-.02h-.02v-.02h-.02v-.02h-.02v-.02h-.01v-.02h-.02l-.03-.03h0l-.03-.03h0l-.03-.03h0l-.03-.03h0l-.03-.03h0c-.81-.81-1.72-1.49-2.72-2.04l-2.05,3.69h0l2.05-3.69c-2.3-1.28-5.1-1.91-8.24-1.95h-.25Z"/></g><g class="cls-3"><ellipse class="cls-2" cx="1184.94" cy="1549.56" rx="64.88" ry="33.34" transform="translate(-736.97 1215.7) rotate(-42.74)"/></g><g class="cls-3"><ellipse class="cls-2" cx="1235.06" cy="1447.19" rx="9.67" ry="4.97" transform="translate(-654.19 1222.53) rotate(-42.74)"/></g><g class="cls-3"><ellipse class="cls-2" cx="1780.66" cy="1140.32" rx="69.5" ry="36.9" transform="translate(-287.57 700.41) rotate(-20.63)"/><path class="cls-1" d="M1807.63,1097.98h0c-12.12,0-25.97,2.53-39.97,7.8l-.05,.02h-.01l-.04,.02h0c-2.42,.92-4.78,1.89-7.07,2.91h0s-.06,.03-.1,.04h0l-.04,.02h-.01l-.03,.02h-.01l-.04,.02h0l-.04,.02h-.02l-.03,.02h-.02l-.02,.02h-.02l-.03,.02-.04,.02h-.02l-.03,.02h-.02l-.03,.02h0l-.11,.05h0c-.78,.35-1.55,.71-2.31,1.08-3.24,1.54-4.62,5.42-3.07,8.66,1.11,2.34,3.44,3.71,5.87,3.71,.94,0,1.89-.2,2.79-.63,2.96-1.41,6.04-2.72,9.17-3.9,12.11-4.56,24.35-6.97,35.39-6.97h0c13.37,0,23.79,3.79,25.91,9.43,3.43,9.12-12.18,30.12-44.46,42.27-12.11,4.56-24.35,6.97-35.39,6.97-5.74,0-10.85-.65-15.18-1.94-.62-.18-1.24-.27-1.85-.27-2.8,0-5.39,1.83-6.23,4.65-1.02,3.44,.94,7.04,4.37,8.07,2.18,.65,4.49,1.17,6.92,1.56h.08s.04,.02,.07,.02h.08s.05,.02,.07,.02h.08l.02,.02h.08l.04,.02h.08l.02,.02h.08l.06,.02h.08l.02,.02h.08l.03,.02h.09l.02,.02h.09l.02,.02h.1v.02h.11v.02h.11l.02,.02h.1v.02h.12l.03,.02h.11v.02h.12v.02h.12l.03,.02h.11v.02h.12l.03,.02h.12l.03,.02h.12s.05,.02,.07,.02h.11l.03,.02h.11l.04,.02h.12l.03,.02h.11l.07,.02h0s.07,0,.11,.01h.04s.07,.01,.11,.02h0s.05,0,.07,0h.08l.07,.02h.08l.07,.02h.08l.07,.02h.11l.07,.02h.08c.19,.03,.38,.04,.57,.06h.15c.05,.02,.1,.02,.15,.03h0c.05,0,.1,0,.15,.01h.12l.08,.02h.16l.08,.02h.2l.07,.02h.08s.05,0,.07,.01h0s.05,0,.08,0h.2l.04,.02h0c.06,0,.13,0,.19,.01h.24l.08,.02h.2l.07,.02h.08s.05,0,.07,0h.08s.05,0,.07,0h0s.05,0,.08,0h.28s.05,.02,.08,.02h.28l.08,.02h.32l.07,.02h.44v.02h.53l.04,.02h.73l.03,.02h1.3c12.12,0,25.97-2.52,39.97-7.79,31.54-11.87,53.35-33.69,53.35-51.74,0-2.51-.42-4.95-1.3-7.28h0l-.03-.07c-4.41-11.59-19.11-17.78-38.05-17.78h0Z"/></g><g class="cls-3"><ellipse class="cls-2" cx="1924.21" cy="1059.93" rx="22.9" ry="11.66" transform="translate(-213.66 554.41) rotate(-15.54)"/><path class="cls-1" d="M1932.03,1047.13h0c-3.38,0-7.12,.51-10.95,1.57h-.05l-.04,.03h-.05l-.02,.02h-.05v.02h-.05l-.02,.02h-.03l-.05,.02h-.03l-.04,.02h-.05v.02h-.05l-.02,.02h-.03l-.05,.02h-.03l-.05,.02h-.03l-.04,.02h-.05l-.02,.02h-.02l-.05,.02h-.05l-.02,.02h0l-.07,.02h0l-.12,.04h-.02l-.05,.02h0l-.05,.02h-.02l-.05,.02h-.02l-.05,.02h-.02l-.05,.02h-.03l-.05,.02h0c-.11,.04-.22,.07-.33,.11h0c-.37,.12-.74,.25-1.11,.38h0c-1.95,.69-3.78,1.5-5.45,2.38h0c-.2,.11-.4,.22-.6,.33h0s-.08,.04-.11,.06h0c-.07,.04-.14,.08-.21,.12h0l-.11,.06h0l-.04,.02h-.02l-.04,.03h-.02l-.04,.03h-.02l-.02,.02h-.02l-.04,.03h-.02l-.04,.03h-.02l-.04,.03h-.02l-.04,.03h0l-.05,.03h-.02l-.04,.03h0l-.04,.02h-.02l-.09,.07h0l-.05,.03h0l-.04,.02h-.02l-.02,.02h-.02l-.02,.02h0l-.03,.02h-.02l-.03,.03h-.02l-.03,.03h-.02l-.03,.03h-.02l-.02,.02h-.02l-.02,.02h-.02v.02h-.02l-.03,.02h-.02l-.02,.02h-.02v.02h-.03l-.02,.02h-.02l-.02,.02h-.02v.02h-.04v.02h-.02l-.03,.02h-.02l-.03,.03h-.02l-.03,.03h-.02l-.02,.02h-.02v.02h-.03v.02h-.02v.02h-.03v.02h-.03l-.02,.02h-.02l-.02,.02h-.02v.02h-.03v.02h-.03l-.02,.02h-.02l-.03,.03h-.02l-.03,.03h-.02l-.03,.03h-.02l-.02,.02h-.02v.02h-.03l-.02,.02h0l-.03,.02h-.02v.02h-.03v.02h-.02l-.03,.02h-.02l-.03,.04h-.02l-.02,.02h-.02v.02h-.03v.02h-.03l-.02,.02h-.02v.02h-.03v.02h-.03v.02h-.03v.02h-.03v.02h-.03v.02h-.03l-.02,.02h-.02l-.02,.02h-.02v.02h-.03v.02h-.03v.02h-.03v.02h-.03v.02h-.02v.02h-.03v.02h-.03v.02h-.03v.02h-.03v.02h-.02v.02h-.03v.02h-.03v.02h-.02v.02h-.03v.02h-.02v.02h-.03v.02h-.02v.02h-.03v.02h-.02v.02h-.03v.02h-.02v.02h-.03v.02h-.03v.02h-.02v.02h-.03v.02h-.02v.02h-.03v.02h-.02v.02h-.03v.02h-.02v.02h-.03v.02h-.03v.02h-.02v.02h-.03v.02h-.02v.02h-.03v.02h-.02v.02h-.03v.02h-.03v.02h-.02v.02h-.03v.02h-.02l-.03,.03h-.02v.02h-.03v.02h-.02l-.03,.03h-.02l-.03,.04h-.02v.03h-.03v.02h-.03v.02h-.02v.02h-.03v.02h-.03v.03h-.03l-.03,.04h-.02v.02h-.03v.02h-.03v.02h-.03v.02h-.03v.02h-.03v.02h-.01l-.03,.02h-.02l-.03,.04h-.02v.03h-.03v.02h-.03v.02h-.02l-.03,.04h-.02v.02h-.03v.02h-.01l-.03,.02h-.02l-.03,.04h-.02v.03h-.03v.02h-.03v.02h-.01l-.03,.03h-.02l-.03,.04h-.02l-.03,.04h-.01l-.03,.04h-.02v.03h-.03v.02h-.03v.02h-.01l-.03,.03h-.01l-.03,.04h-.01l-.03,.04h-.01v.02h-.03v.03h-.01l-.03,.02h0l-.03,.02h-.01l-.03,.04h-.01l-.03,.04h-.02v.03h-.03v.02h-.03v.03h-.03v.03h-.03l-.03,.04h-.01l-.03,.04h0l-.04,.04h0l-.03,.03h-.01l-.02,.04h-.01l-.03,.04h-.01l-.03,.04h0l-.08,.08h0l-.04,.04h0c-.95,.94-1.74,1.91-2.36,2.88h0c-1.31,2.06-1.82,4.15-1.34,6.1h0v.05h.01v.04h.01v.04h0v.02h0v.02h0v.02h0v.02h0v.02h0v.02h0v.02h0v.02h0v.02h0v.02h0v.02h0v.02h0l.02,.06h0v.02h0v.02h0v.02h0v.02h0v.02h0v.02h0l.02,.07h0v.02h0v.02h0v.02h0v.02h0v.02h0l.03,.07h0v.02h0v.02h0v.02h0v.02h0s.02,.07,.04,.1h0v.02h.01v.02h.01v.02h.01v.02h.01v.02h0l.03,.07h0v.02h.01v.02h.01v.02h.01v.02h.01l.04,.09h0v.02h.01v.02h.01v.02h.01v.02h0s.03,.06,.05,.09h0v.02h.01v.02h.01v.02h.01v.02h.01v.02h0l.03,.04h0v.02h.01v.02h.01v.02h.01v.02h.01v.02h.01v.02h0l.02,.03h0v.02h.01v.02h.01v.02h.01v.02h.01v.02h.01v.02h.01l.02,.04h0v.02h.01v.02h.01v.02h.01v.02h.01v.02h.01v.02h.01l.02,.03h.01v.02h.01v.02h.01v.02h.02v.02h.02v.02h.01v.02h.01v.02h.02v.02h.01v.02h.02v.02h.02v.02h.02v.02h.02v.02h.02v.02h.02v.02h.02v.02h0l.03,.04h.01v.02h.02v.02h.02v.02h.02v.02h.02v.02h.02v.02h0l.04,.05h0v.02h.02v.02h.02v.02h.02v.02h.02v.02h.02s.04,.05,.06,.07h0v.02h.02v.02h.02v.02h.02v.02h0s.08,.08,.12,.12h0v.02h0c.71,.7,1.59,1.32,2.62,1.83h0c1.56,.78,3.46,1.34,5.6,1.65h.09l.02,.02h.09v.02h.09l.05,.02h.02c.06,.01,.13,.02,.19,.03,.27,.03,.54,.05,.8,.05,3.23,0,6.03-2.41,6.44-5.7,.16-1.29-.07-2.55-.6-3.64,1.45-.72,3.21-1.42,5.26-1.99,2.57-.72,5.16-1.09,7.46-1.09,3.59,0,6.5-2.91,6.5-6.5,0-3.59-2.91-6.5-6.5-6.5h0Z"/></g><g class="cls-3"><ellipse class="cls-2" cx="1278.36" cy="1513.57" rx="22.9" ry="11.77" transform="translate(-687.74 1269.55) rotate(-42.74)"/><path class="cls-1" d="M1289.16,1495.78h-.01c-3.14,0-6.99,1.15-11.14,3.51h-.02v.02h-.04v.02h-.03v.02h-.03v.02h-.03v.02h-.03v.02h-.03v.02h-.03v.02h-.03l-.03,.03h0l-.03,.02h-.02v.02h-.03v.02h-.03v.02h-.03v.02h-.03v.02h-.03v.02h-.03l-.1,.07h-.02v.02h-.03v.02h-.03v.02h-.03v.02h-.03v.02h-.01c-.06,.04-.12,.07-.18,.11h-.02v.02h-.03v.02h-.01c-.06,.04-.12,.07-.18,.11h-.01v.02h-.02c-5.29,3.28-9.93,7.91-13.03,12.68h0l-.02,.03h0v.03h0s-.06,.1-.09,.15h0l-.02,.04h0v.03h0l-.02,.03h0l-.02,.03h0l-.07,.11h0l-.02,.03h0l-.02,.03h0v.03h-.02v.03h-.02v.02h0l-.05,.09h0v.02h0v.02h-.01v.02h0v.02h-.01v.02h-.01v.02h-.01v.02h-.01v.02h0v.03h-.02v.02h-.01v.03h-.02v.02h-.01v.02h-.01v.02h-.01v.02h-.01v.02h-.01v.02h-.01v.02h-.01v.02h-.01v.02h-.01v.02l-.04,.06h0v.02h-.01v.02h-.01v.02h-.01v.02h-.01v.02h-.01v.02h-.01v.02h-.01v.02h0l-.06,.11h0v.02h-.01v.03h-.01v.03h-.01v.03h0v.02h-.01c-.03,.05-.06,.1-.09,.15h0c-1.69,2.96-2.74,5.91-2.95,8.56h0c-.01,.17-.02,.33-.03,.5h0v.02h0v.02h0v.02h0v.02h0v.02h0v.03h0v.04h0c0,.17,0,.33,0,.49h0v.03h0v.02h0v.02h0v.05h0v.02h0v.02h0v.02h0v.02h0v.02h0v.02h0v.02h0v.02h0v.02h0v.02h0v.02h0v.02h0v.02h0v.02h0v.02h0v.02h0v.02h0v.02h0v.02h0v.02h0v.02h0v.02h0v.02h0v.02h0v.02h0v.02h0v.02h0v.02h0v.02h0v.02h0v.02h0v.02h0v.02h0v.02h0v.02h0v.02h0v.02h0v.02h0v.02h0v.02h0v.02h0v.02h0v.02h0v.02h0v.02h0v.02h0v.02h0v.02h0v.02h0v.02h0v.02h0v.02h0v.02h0v.02h0v.02h0v.02h0v.02h0v.02h0v.02h0v.02h0v.02h0v.02h0c-.08-.78-.02-1.59,.2-2.39l12.7,1.01h0c.17-2.1,4.34-9.17,11.69-13.36,2.6-1.48,4.3-1.81,4.74-1.81,3.59,0,6.5-2.92,6.49-6.51,0-3.59-2.91-6.49-6.5-6.49h0Zm-29.32,29.56h0Zm0,.02h0Zm0,.02h0Zm0,.02h0Zm0,.02v0h0Zm0,.02h0Zm0,.02h0Zm0,.02h0Zm0,.02h0Zm0,.02h0Zm0,.02h0Zm0,.02h0Zm0,.02h0Zm0,.02h0Zm0,.02h0Zm0,.02h0Zm0,.02h0Zm0,.02h0Zm0,.02h0Zm0,.02h0Zm0,.02h0Zm0,.02h0Zm0,.02h0Zm0,.02v0h0Zm0,.02h0Zm0,.02h0Zm0,.02h0Zm0,.02h0Zm0,.02v0h0Zm0,.02h0Zm0,.02v0h0Zm0,.02h0Zm0,.02h0Zm0,.02h0Zm0,.02h0Zm0,.02h0Zm0,.02h0Zm0,.02h0Zm0,.02v0h0Zm0,.02h0Zm0,.02h0Zm0,.02v0h0Zm0,.02h0Zm0,.02v0h0Zm0,.03h0Zm0,.02v0h0Zm0,.02h0Zm0,.02h0Zm0,.02v0h0Zm0,.02h0Zm0,.02v0h0Zm0,.03h0Zm0,.02v0h0Zm0,.02h0Zm0,.02v0h0Zm0,.03h0Zm0,.02v0h0Zm0,.02h0Zm0,.02h0Zm0,.01v0h0Zm0,.02h0Zm0,.02v0h0Zm0,.03h0Zm0,.01v0h0Zm0,.02h0Zm0,.02v0h0Zm0,.03h0Zm0,.02v0h0Zm0,.03v0h0Zm.01,.05v0h0Zm0,.03v0h0Zm.01,.05c.14,.43,.31,.84,.52,1.21h0c-.21-.37-.38-.78-.52-1.21h0Zm.52,1.21c.69,1.25,1.74,2.17,3.08,2.75-1.35-.58-2.4-1.56-3.08-2.75h0Zm3.08,2.75h0Zm0,0h0Zm0,0h0Z"/></g><g class="cls-3"><ellipse class="cls-2" cx="1559.04" cy="1318.91" rx="139.46" ry="58.66" transform="translate(-455.54 984.83) rotate(-30.81)"/></g></g><rect class="cls-4" y="0" width="1975.06" height="3564.64"/></svg>