<?xml version="1.0" encoding="UTF-8"?><svg id="Layer_1" xmlns="http://www.w3.org/2000/svg" xmlns:xlink="http://www.w3.org/1999/xlink" viewBox="0 0 1975.06 2231.69"><defs><style>.cls-1,.cls-2,.cls-3{fill:none;}.cls-4{fill:url(#linear-gradient);}.cls-5{clip-path:url(#clippath);}.cls-6{fill:#f3e16e;}.cls-7{fill:#f6e16c;}.cls-8{fill:#f7e16c;}.cls-9{fill:#f2e06f;}.cls-10{fill:#f9e16a;}.cls-11{fill:#f8e16b;}.cls-12{fill:#67d0d0;}.cls-13{fill:#66cfd0;}.cls-14{fill:#68d0cf;}.cls-15{fill:#65cfd1;}.cls-16{fill:#eee072;}.cls-17{fill:#ebe074;}.cls-18{fill:#f0e070;}.cls-19{fill:#eadf75;}.cls-20{fill:#f4e16e;}.cls-21{fill:#e9df75;}.cls-22{fill:#f5e16d;}.cls-23{fill:#e7df77;}.cls-24{fill:#e4df79;}.cls-25{fill:#e8df76;}.cls-26{fill:#ede073;}.cls-27{fill:#e3df7a;}.cls-28{fill:#fff;}.cls-29{fill:#ffe266;}.cls-30{fill:#fee267;}.cls-31{fill:#f1e070;}.cls-32{fill:#ece073;}.cls-33{fill:#fbe269;}.cls-34{fill:#e6df77;}.cls-35{fill:#fae169;}.cls-36{fill:#efe071;}.cls-37{fill:#e5df78;}.cls-38{fill:#fce268;}.cls-39{fill:#fde267;}.cls-40{fill:#90d5b3;}.cls-41{fill:#7cd2c1;}.cls-42{fill:#69d0ce;}.cls-43{fill:#7dd2c0;}.cls-44{fill:#71d1c9;}.cls-45{fill:#7fd2bf;}.cls-46{fill:#64cfd2;}.cls-47{fill:#80d3be;}.cls-48{fill:#63cfd2;}.cls-49{fill:#72d1c8;}.cls-50{fill:#97d5af;}.cls-51{fill:#95d5b0;}.cls-52{fill:#98d5ae;}.cls-53{fill:#6ad0ce;}.cls-54{fill:#7bd2c2;}.cls-55{fill:#96d5af;}.cls-56{fill:#7ed2c0;}.cls-57{fill:#9ed6aa;}.cls-58{fill:#91d5b2;}.cls-59{fill:#83d3bc;}.cls-60{fill:#9fd6a9;}.cls-61{fill:#92d5b2;}.cls-62{fill:#86d3ba;}.cls-63{fill:#b4d99a;}.cls-64{fill:#89d4b8;}.cls-65{fill:#b8d998;}.cls-66{fill:#9cd6ab;}.cls-67{fill:#8ad4b7;}.cls-68{fill:#9bd6ac;}.cls-69{fill:#9e9ef2;}.cls-70{fill:#9dd6ab;}.cls-71{fill:#a0d6a8;}.cls-72{fill:#8bd4b6;}.cls-73{fill:#8ed4b4;}.cls-74{fill:#8fd4b4;}.cls-75{fill:#b5d99a;}.cls-76{fill:#b6d999;}.cls-77{fill:#c1da91;}.cls-78{fill:#b3d99b;}.cls-79{fill:#70d1c9;}.cls-80{fill:#31c9f5;}.cls-81{fill:#bada96;}.cls-82{fill:#30c9f6;}.cls-83{fill:#2ec9f8;}.cls-84{fill:#8cd4b6;}.cls-85{fill:#b9d997;}.cls-86{fill:#8dd4b5;}.cls-87{fill:#b7d998;}.cls-88{fill:#84d3bb;}.cls-89{fill:#cedc88;}.cls-90{fill:#cddc89;}.cls-91{fill:#a4d7a6;}.cls-92{fill:#b0d89d;}.cls-93{fill:#a6d7a4;}.cls-94{fill:#aad8a1;}.cls-95{fill:#a7d7a4;}.cls-96{fill:#beda93;}.cls-97{fill:#add89f;}.cls-98{fill:#afd89e;}.cls-99{fill:#d8dd81;}.cls-100{fill:#b1d89d;}.cls-101{fill:#a3d7a6;}.cls-102{fill:#c0da92;}.cls-103{fill:#a9d8a2;}.cls-104{fill:#bbda96;}.cls-105{fill:#a8d7a3;}.cls-106{fill:#a5d7a5;}.cls-107{fill:#bdda94;}.cls-108{fill:#c2db91;}.cls-109{fill:#bfda93;}.cls-110{fill:#bcda95;}.cls-111{fill:#ccdc8a;}.cls-112{fill:#cbdc8a;}.cls-113{fill:#c6db8e;}.cls-114{fill:#c9db8c;}.cls-115{fill:#cfdc88;}.cls-116{fill:#dede7d;}.cls-117{fill:#ddde7e;}.cls-118{fill:#c8db8c;}.cls-119{fill:#d2dd85;}.cls-120{fill:#d1dc86;}.cls-121{fill:#c3db90;}.cls-122{fill:#d0dc87;}.cls-123{fill:#c4db8f;}.cls-124{fill:#abd8a1;}.cls-125{fill:#d6dd83;}.cls-126{fill:#d3dd85;}.cls-127{fill:#dcde7e;}.cls-128{fill:#dbde7f;}.cls-129{fill:#dadd80;}.cls-130{fill:#d4dd84;}.cls-131{fill:#d9dd81;}.cls-132{fill:#e0de7c;}.cls-133{fill:#d7dd82;}.cls-134{fill:#cadc8b;}.cls-135{fill:#acd8a0;}.cls-136{fill:#aed89f;}.cls-137{fill:#c5db8f;}.cls-138{fill:#e2de7a;}.cls-139{fill:#e1de7b;}.cls-140{fill:#c7db8d;}.cls-141{fill:#b2d99c;}.cls-142{fill:#dfde7c;}.cls-143{fill:#d5dd83;}.cls-144{fill:#40cbeb;}.cls-145{fill:#41cbea;}.cls-146{fill:#3ecbec;}.cls-147{fill:#3fcbec;}.cls-148{fill:#34c9f3;}.cls-149{fill:#35c9f3;}.cls-150{fill:#42cbea;}.cls-151{fill:#3ccaee;}.cls-152{fill:#3dcaed;}.cls-153{fill:#3bcaee;}.cls-154{fill:#88d4b9;}.cls-155{fill:#6cd0cc;}.cls-156{fill:#a1d7a8;}.cls-157{fill:#6fd1ca;}.cls-158{fill:#93d5b1;}.cls-159{fill:#6dd0cb;}.cls-160{fill:#a2d7a7;}.cls-161{fill:#44cbe8;}.cls-162{fill:#52cdde;}.cls-163{fill:#45cbe7;}.cls-164{fill:#51cddf;}.cls-165{fill:#85d3bb;}.cls-166{fill:#99d6ad;}.cls-167{fill:#87d3b9;}.cls-168{fill:#9ad6ad;}.cls-169{fill:#6ed0cb;}.cls-170{fill:#6bd0cd;}.cls-171{fill:#53cdde;}.cls-172{fill:#61cfd4;}.cls-173{fill:#59ced9;}.cls-174{fill:#57cedb;}.cls-175{fill:#29c8fb;}.cls-176{fill:#54cddd;}.cls-177{fill:#2bc8fa;}.cls-178{fill:#62cfd3;}.cls-179{fill:#48cce5;}.cls-180{fill:#2ac8fa;}.cls-181{fill:#33c9f4;}.cls-182{fill:#5aced9;}.cls-183{fill:#2cc8f9;}.cls-184{fill:#2dc8f8;}.cls-185{fill:#36caf2;}.cls-186{fill:#2fc9f7;}.cls-187{fill:#38caf1;}.cls-188{fill:#39caf0;}.cls-189{fill:#32c9f5;}.cls-190{fill:#58ceda;}.cls-191{fill:#37caf1;}.cls-192{fill:#56cddc;}.cls-193{fill:#55cddc;}.cls-194{fill:#3acaef;}.cls-195{fill:#82d3bd;}.cls-196{fill:#4acce4;}.cls-197{fill:#60cfd5;}.cls-198{fill:#5eced6;}.cls-199{fill:#5dced7;}.cls-200{fill:#5bced8;}.cls-201{fill:#47cce6;}.cls-202{fill:#73d1c7;}.cls-203{fill:#78d2c4;}.cls-204{fill:#74d1c7;}.cls-205{fill:#5fcfd5;}.cls-206{fill:#76d1c5;}.cls-207{fill:#77d2c4;}.cls-208{fill:#49cce5;}.cls-209{fill:#5cced7;}.cls-210{fill:#4dcce2;}.cls-211{fill:#75d1c6;}.cls-212{fill:#50cde0;}.cls-213{fill:#4ecde1;}.cls-214{fill:#81d3bd;}.cls-215{fill:#46cce7;}.cls-216{fill:#4bcce3;}.cls-217{fill:#7ad2c2;}.cls-218{fill:#4ccce3;}.cls-219{fill:#79d2c3;}.cls-220{fill:#43cbe9;}.cls-221{fill:#4fcde0;}.cls-222{fill:url(#linear-gradient-3);}.cls-223{fill:url(#linear-gradient-4);}.cls-224{fill:url(#linear-gradient-2);}.cls-225{fill:url(#linear-gradient-6);}.cls-226{fill:url(#linear-gradient-5);}.cls-2,.cls-3{stroke:#fff;stroke-miterlimit:10;}.cls-227{opacity:.3;}.cls-228{opacity:.6;}.cls-229{fill:url(#radial-gradient);}.cls-3{stroke-dasharray:0 0 0 0 0 0 50.33 96.78 290.34 483.9 483.9 50.33;stroke-linecap:round;stroke-width:15px;}</style><radialGradient id="radial-gradient" cx="991.34" cy="3206.17" fx="7221.56" fy="5895.81" r="6786" gradientTransform="translate(611.31 1428.73) scale(.48 .45)" gradientUnits="userSpaceOnUse"><stop offset=".08" stop-color="#fff" stop-opacity="0"/><stop offset=".76" stop-color="#29c8fb" stop-opacity=".8"/><stop offset=".76" stop-color="#28c1f4" stop-opacity=".79"/><stop offset=".78" stop-color="#2471a5" stop-opacity=".71"/><stop offset=".8" stop-color="#21366b" stop-opacity=".65"/><stop offset=".81" stop-color="#1f1247" stop-opacity=".61"/><stop offset=".82" stop-color="#1f053a" stop-opacity=".6"/><stop offset=".88" stop-color="#0d0219" stop-opacity=".27"/><stop offset=".94" stop-color="#030006" stop-opacity=".07"/><stop offset="1" stop-color="#000" stop-opacity="0"/></radialGradient><clipPath id="clippath"><circle class="cls-1" cx="1553.73" cy="2916.58" r="2076.93"/></clipPath><linearGradient id="linear-gradient" x1="974.4" y1="3877.78" x2="2855.08" y2="1899.9" gradientTransform="translate(480.91 -554.69) rotate(7.67)" gradientUnits="userSpaceOnUse"><stop offset="0" stop-color="#29c8fb" stop-opacity=".6"/><stop offset=".69" stop-color="#8858e0" stop-opacity=".6"/></linearGradient><linearGradient id="linear-gradient-2" x1="-213.16" y1="2170.76" x2="3747.97" y2="2170.76" gradientTransform="translate(-735.23 1315.96) rotate(-15.79)" gradientUnits="userSpaceOnUse"><stop offset="0" stop-color="#29c8fb"/><stop offset="1" stop-color="#ffe266"/></linearGradient><linearGradient id="linear-gradient-3" x1="-161.07" y1="1969.36" x2="3886.75" y2="1969.36" gradientTransform="translate(-863.81 1692.11) rotate(-19.96)" gradientUnits="userSpaceOnUse"><stop offset="0" stop-color="#fe53bb"/><stop offset="1" stop-color="#8858e0"/></linearGradient><linearGradient id="linear-gradient-4" x1="344.33" y1="1641.85" x2="3797.33" y2="1641.85" gradientTransform="translate(-1038.92 2429.14) rotate(-27.87)" xlink:href="#linear-gradient-2"/><linearGradient id="linear-gradient-5" x1="261.57" y1="1188.4" x2="4672.71" y2="1188.4" gradientTransform="translate(-1102.61 3590.02) rotate(-40.03)" xlink:href="#linear-gradient-2"/><linearGradient id="linear-gradient-6" x1="-608.87" y1="3733.64" x2="3729.46" y2="3733.64" gradientTransform="translate(1134.46 -1119.17) rotate(16.71)" xlink:href="#linear-gradient-3"/></defs><g><g class="cls-227"><ellipse class="cls-69" cx="1312.38" cy="1424.62" rx="44.15" ry="22.69" transform="translate(-618.34 1269.01) rotate(-42.74)"/><path class="cls-28" d="M1333.26,1390.33h0c-10.26,0-24.08,6.36-36.28,17.63h0l-.03,.03h-.01l-.02,.03h-.01l-.02,.03h0l-.02,.03h0l-.03,.03h0l-.03,.03h0l-.02,.03h0l-.02,.03h0l-.06,.06h0l-.03,.03h0l-.03,.03h0l-.09,.09h0l-.03,.03h0l-.12,.12h0l-.13,.12h0c-1.98,1.87-3.82,3.79-5.53,5.75h0l-.03,.03h0l-.02,.03h0l-.05,.06h0l-.02,.03h0l-.02,.03h0l-.02,.03h0l-.02,.03h-.01l-.02,.03h-.01v.03l-.02,.02h-.01v.03h-.02l-.06,.07h0l-.02,.03h0l-.02,.03h0l-.09,.1h0c-.23,.27-.46,.54-.68,.8-2.29,2.75-1.93,6.85,.83,9.15,1.22,1.02,2.7,1.51,4.17,1.51,1.86,0,3.7-.79,4.99-2.33,1.92-2.29,4.04-4.52,6.32-6.62,10.6-9.79,21.42-14.17,27.46-14.17h0c.96,0,1.6,.12,1.93,.22,.6,2.49-1.28,13.39-14.33,26.35-2.55,2.53-2.56,6.64-.03,9.19,1.27,1.28,2.94,1.92,4.61,1.92s3.31-.63,4.58-1.89c7.85-7.8,13.46-16.37,16.25-24.14h0c.03-.09,.06-.18,.1-.27h0v-.02h0l.04-.12h0v-.02h0l.04-.11h0v-.02h0v-.02h0l.03-.1h0v-.02h0v-.02h0v-.02h0l.02-.06h0v-.02h0v-.02h0v-.02h0v-.02h0l.02-.06h0v-.02h0v-.02h0v-.02h0l.02-.06h0v-.02h0v-.02h0v-.02h0v-.02h0l.02-.08h0v-.02h0v-.02h0v-.02h0l.02-.06h0v-.02h0v-.02h0v-.02h0v-.02h0v-.04h.02v-.02h0v-.02h0v-.02h0v-.02h0v-.02l.02-.05h0v-.02h0v-.02h0v-.02h0v-.02h0v-.04h.01v-.02h0v-.02h0v-.02h0v-.02h0v-.02h0v-.04h.01v-.02h0v-.02h0v-.02h0v-.02h0v-.02h0v-.03h.01v-.02h0v-.02h0v-.02h0v-.02h0v-.02h0v-.03h.01v-.02h0v-.02h0v-.02h0v-.02h0v-.04h0v-.02h0v-.02h0v-.02h0v-.02h0v-.02h0v-.03h0v-.02h0v-.02h0v-.02h0v-.02h0v-.04h0v-.02h0v-.02h0v-.02h0v-.02h0v-.02h0v-.03h0v-.02h0v-.02h0v-.02h0v-.02h0v-.02h0v-.03h0v-.02h0v-.02h0v-.02h0v-.02h0v-.03h0v-.03h0v-.02h0v-.02h0v-.02h0v-.02h0v-.03h0v-.03h0v-.02h0v-.02h0v-.02h0v-.02h0v-.03h0v-.02h0v-.02h0v-.02h0v-.02h0v-.02h0v-.03h0v-.02h0v-.02h0v-.02h0v-.02h0v-.03h0v-.02h0v-.02h0v-.02h0v-.02h0v-.02h0v-.05h.01v-.02h0v-.02h0v-.02h0v-.02h0l.02-.07h0v-.02h0v-.02h0v-.02h0v-.05h.01v-.02h0v-.02h0v-.02h0v-.02h0v-.05h.01v-.02h0v-.02h0v-.02h0v-.02h0v-.05h.01v-.02h0v-.02h0v-.02h0v-.02h0v-.05h.01v-.02h0v-.02h0v-.02h0l.02-.07h0v-.02h0v-.02h0v-.03h0v-.07h.02v-.02h0v-.02h0v-.03h0v-.07h.02v-.02h0v-.02h0v-.03h0v-.05h0v-.02h0v-.02h0v-.02h0v-.07h.01v-.02h0v-.02h0v-.02h0v-.07h.01v-.02h0v-.02h0v-.02h0v-.07h.01v-.02h0v-.02h0v-.07h.01v-.02h0v-.02h0v-.02h0v-.02h0v-.05h0v-.02h0v-.02h0v-.02h0v-.07h.01v-.02h0v-.02h0v-.02h0v-.02h0v-.05h0v-.02h0v-.02h0v-.02h0v-.07h.01v-.02h0v-.02h0v-.09h.02v-.02h0v-.02h0v-.09h.01v-.02h0v-.02h0v-.09h.01v-.02h0v-.02h0v-.09h.01v-.02h0v-.02h0v-.09h.01v-.02h0v-.02h0v-.07h0v-.02h0v-.02h0v-.09h.01v-.02h0v-.02h0v-.09h.01v-.02h0v-.02h0v-.09h.01v-.02h0v-.09h.01v-.02h0v-.02h0v-.02h0v-.07h0v-.02h0v-.02h0s0-.06,.01-.09h0v-.02h0v-.02h0v-.09h0v-.02h0v-.02h0v-.11h.01s0-.07,.01-.11h0v-.02h0s0-.07,.01-.11h0v-.02h0v-.02h0v-.09h0v-.02h0v-.09h0v-.02h0v-.02h0v-.11h0v-.11h0v-.02h0v-.02h0v-.07h0v-.02h0v-.02h0v-.02h0v-.07h0v-.02h0v-.02h0v-.09h0v-.02h0v-.02h0s0-.06,0-.09h0v-.02h0v-.02h0v-.09h0v-.02h0v-.02h0v-.09h0v-.02h0v-.02h0v-.09h0v-.02h0v-.02h0v-.06h0v-.02h0v-.02h0v-.09h0v-.02h0v-.02h0v-.09h0v-.02h0v-.02h0v-.06h0v-.02h0v-.02h0v-.02h0v-.06h0v-.02h0v-.02h0v-.02h0s0-.04,0-.06h0v-.02h0v-.02h0v-.02h0v-.06h0v-.02h0v-.02h0v-.08h0v-.02h0v-.02h0v-.06h0v-.02h0v-.02h0v-.02h0v-.06h0v-.02h0v-.02h0v-.02h0v-.06h0v-.02h0v-.02h0v-.02h0v-.06h0v-.02h0v-.02h0v-.02h0v-.04h0v-.02h0v-.02h0v-.02h0v-.02h0v-.04h0v-.02h0v-.02h0v-.02h0v-.02h0v-.04h0v-.02h0v-.02h0v-.02h0v-.02h0v-.02h0v-.02h0v-.02h0v-.02h0v-.02h0v-.06h0v-.02h0v-.02h0v-.02h0v-.04h0v-.02h0v-.02h0v-.02h0v-.02h0v-.04h0v-.02h0v-.02h0v-.02h0v-.02h0v-.04h0v-.02h0v-.02h0v-.02h0v-.02h0v-.02h0v-.02h0v-.02h0v-.02h0v-.02h0v-.02h0v-.02h0v-.02h0v-.02h0v-.02h0v-.02h0v-.02h0v-.02h0v-.02h0v-.02h0v-.02h0v-.02h0v-.02h0v-.02h0v-.02h0v-.02h0v-.02h0v-.02h0v-.04h0v-.02h0v-.02h0v-.02h0v-.02h0v-.02h0v-.02h0v-.02h0v-.02h0v-.02h0v-.02h0v-.03h0v-.02h0v-.02h0v-.02h0v-.02h0v-.02h0v-.02h0v-.02h0v-.02h0v-.02h0v-.02h0v-.02h0v-.02h0v-.02h0v-.02h0v-.02h0v-.02h0v-.04h0v-.02h0v-.02h0v-.02h0v-.02h0v-.02h0v-.02h0v-.02h0v-.02h0v-.02h0v-.02h0v-.02h0v-.02h0v-.02h0v-.02h0v-.02h0v-.02h0v-.02h0v-.02h0v-.02h0v-.02h0v-.02h0v-.02h0v-.02h0v-.02h0v-.02h0v-.02h0v-.02h0v-.02h0v-.02h0v-.02h0v-.02h0v-.02h0v-.02h0v-.02h0v-.02h0v-.02h0v-.02h0v-.02h0v-.02h0v-.02h0v-.02h0v-.02h0v-.02h0v-.02h0v-.05h-.01v-.02h0v-.02h0v-.02h0v-.02h0v-.03h0v-.02h0v-.02h0v-.02h0v-.02h0v-.04h0v-.02h0v-.02h0v-.02h0v-.02h0v-.02h0v-.03h0v-.02h0v-.02h0v-.02h0v-.02h0v-.02h0v-.03h0v-.02h0v-.02h0v-.02h0v-.02h0v-.02h0v-.03h0v-.02h0v-.02h0v-.02h0v-.02h0v-.02h0v-.03h0v-.02h0v-.02h0v-.02h0v-.02h0v-.03h0v-.02h0v-.02h0v-.02h0v-.02h0v-.05h-.01v-.02h0v-.02h0v-.02h0v-.02h0v-.03h0v-.02h0v-.02h0v-.02h0v-.02h0v-.02h0v-.03h0v-.02h0v-.02h0v-.02h0v-.02h0v-.04h-.01v-.02h0v-.02h0v-.02h0v-.02h0v-.04h-.01v-.02h0v-.02h0v-.02h0v-.02h0v-.04h-.01v-.02h0v-.02h0v-.02h0v-.02h0v-.03h-.01v-.02h0v-.02h0v-.02h0v-.02h0v-.04h-.01v-.02h0v-.02h0v-.02h0v-.02l-.02-.04h0v-.02h0v-.02h0v-.02h0v-.06h-.02v-.02h0v-.02h0v-.02h0v-.05h-.02v-.02h0v-.02h0v-.02h0v-.02h0l-.02-.04h0v-.02h0v-.02h0v-.02l-.02-.05h0v-.02h0v-.02h0v-.02h0l-.02-.06h0v-.02h0v-.03h0l-.02-.06h0v-.02h0v-.02h0v-.02h0l-.02-.04h0v-.02h0v-.02h0v-.03h0l-.02-.04h0v-.02h0v-.02h0v-.02l-.02-.05h0v-.02h0v-.02h0l-.02-.07h0v-.02h0v-.03h0l-.02-.06h0v-.02h0v-.02h0l-.02-.05h0v-.02h0v-.02h0v-.03h0l-.02-.04h0v-.02l-11.09,5.06h0l.1-.18h0l-.1,.18,11.09-5.06h0v-.02h0l-.02-.05h0v-.02h0v-.02h0v-.02l-.02-.03h0v-.02h0v-.02h0v-.02h0v-.02h0v-.02h0v-.02h0v-.02h0v-.02h0v-.02h0v-.02h0v-.02h0v-.02h0v-.02h0v-.02h0v-.02h0v-.02h0v-.02h0l-.02-.03h0v-.02h0v-.02h0v-.02h0v-.02h0v-.02h-.01v-.02h0v-.02h0v-.02h-.01v-.02h0v-.02h0v-.02h0v-.02h0v-.02h-.01v-.02h0v-.02h0v-.02h-.01v-.03h0v-.02h-.02v-.02h-.01v-.02h0v-.02h0v-.02h-.01v-.02h-.01v-.02h0v-.02h0v-.02h-.01v-.02h0v-.02h-.01v-.02h0v-.02h-.01v-.02h-.01v-.02h-.01v-.02h0v-.02h-.01v-.02h-.01v-.02h-.01v-.02h-.01v-.03h-.02v-.02h-.01v-.02h0l-.02-.04h0v-.02h-.01v-.02h0l-.02-.04h0v-.02h-.01l-.03-.06h0v-.02h-.01v-.02h0l-.02-.04h0v-.03h0l-.03-.05h0v-.02h-.01l-.03-.06h0v-.03h0l-.03-.05h0l-.04-.08h0c-.18-.28-.37-.54-.57-.79h0s-.04-.05-.06-.07h0l-.06-.07h0l-.06-.07h0l-.05-.06h-.01v-.02h0l-.03-.03h-.01v-.02h-.02l-.03-.04h-.01v-.02h-.01v-.02h-.01l-.02-.03h-.01v-.02h-.02v-.02h-.02v-.02h-.02v-.02h-.02v-.02h-.02v-.02h-.01v-.02h-.02v-.02h-.02v-.02h-.02v-.03h-.02v-.02h-.02v-.02h-.02v-.02h-.02v-.02h-.02v-.02h-.02v-.02h-.02v-.02h-.02v-.02h-.01v-.02h-.02l-.03-.03h0l-.03-.03h0l-.03-.03h0l-.03-.03h0l-.03-.03h0c-.81-.81-1.72-1.49-2.72-2.04l-2.05,3.69h0l2.05-3.69c-2.3-1.28-5.1-1.91-8.24-1.95h-.25Z"/></g><g class="cls-227"><ellipse class="cls-69" cx="1184.94" cy="1549.56" rx="64.88" ry="33.34" transform="translate(-736.97 1215.7) rotate(-42.74)"/></g><g class="cls-227"><ellipse class="cls-69" cx="1235.06" cy="1447.19" rx="9.67" ry="4.97" transform="translate(-654.19 1222.53) rotate(-42.74)"/></g><g class="cls-227"><ellipse class="cls-69" cx="1780.66" cy="1140.32" rx="69.5" ry="36.9" transform="translate(-287.57 700.41) rotate(-20.63)"/><path class="cls-28" d="M1807.63,1097.98h0c-12.12,0-25.97,2.53-39.97,7.8l-.05,.02h-.01l-.04,.02h0c-2.42,.92-4.78,1.89-7.07,2.91h0s-.06,.03-.1,.04h0l-.04,.02h-.01l-.03,.02h-.01l-.04,.02h0l-.04,.02h-.02l-.03,.02h-.02l-.02,.02h-.02l-.03,.02-.04,.02h-.02l-.03,.02h-.02l-.03,.02h0l-.11,.05h0c-.78,.35-1.55,.71-2.31,1.08-3.24,1.54-4.62,5.42-3.07,8.66,1.11,2.34,3.44,3.71,5.87,3.71,.94,0,1.89-.2,2.79-.63,2.96-1.41,6.04-2.72,9.17-3.9,12.11-4.56,24.35-6.97,35.39-6.97h0c13.37,0,23.79,3.79,25.91,9.43,3.43,9.12-12.18,30.12-44.46,42.27-12.11,4.56-24.35,6.97-35.39,6.97-5.74,0-10.85-.65-15.18-1.94-.62-.18-1.24-.27-1.85-.27-2.8,0-5.39,1.83-6.23,4.65-1.02,3.44,.94,7.04,4.37,8.07,2.18,.65,4.49,1.17,6.92,1.56h.08s.04,.02,.07,.02h.08s.05,.02,.07,.02h.08l.02,.02h.08l.04,.02h.08l.02,.02h.08l.06,.02h.08l.02,.02h.08l.03,.02h.09l.02,.02h.09l.02,.02h.1v.02h.11v.02h.11l.02,.02h.1v.02h.12l.03,.02h.11v.02h.12v.02h.12l.03,.02h.11v.02h.12l.03,.02h.12l.03,.02h.12s.05,.02,.07,.02h.11l.03,.02h.11l.04,.02h.12l.03,.02h.11l.07,.02h0s.07,0,.11,.01h.04s.07,.01,.11,.02h0s.05,0,.07,0h.08l.07,.02h.08l.07,.02h.08l.07,.02h.11l.07,.02h.08c.19,.03,.38,.04,.57,.06h.15c.05,.02,.1,.02,.15,.03h0c.05,0,.1,0,.15,.01h.12l.08,.02h.16l.08,.02h.2l.07,.02h.08s.05,0,.07,.01h0s.05,0,.08,0h.2l.04,.02h0c.06,0,.13,0,.19,.01h.24l.08,.02h.2l.07,.02h.08s.05,0,.07,0h.08s.05,0,.07,0h0s.05,0,.08,0h.28s.05,.02,.08,.02h.28l.08,.02h.32l.07,.02h.44v.02h.53l.04,.02h.73l.03,.02h1.3c12.12,0,25.97-2.52,39.97-7.79,31.54-11.87,53.35-33.69,53.35-51.74,0-2.51-.42-4.95-1.3-7.28h0l-.03-.07c-4.41-11.59-19.11-17.78-38.05-17.78h0Z"/></g><g class="cls-227"><ellipse class="cls-69" cx="1924.21" cy="1059.93" rx="22.9" ry="11.66" transform="translate(-213.66 554.41) rotate(-15.54)"/><path class="cls-28" d="M1932.03,1047.13h0c-3.38,0-7.12,.51-10.95,1.57h-.05l-.04,.03h-.05l-.02,.02h-.05v.02h-.05l-.02,.02h-.03l-.05,.02h-.03l-.04,.02h-.05v.02h-.05l-.02,.02h-.03l-.05,.02h-.03l-.05,.02h-.03l-.04,.02h-.05l-.02,.02h-.02l-.05,.02h-.05l-.02,.02h0l-.07,.02h0l-.12,.04h-.02l-.05,.02h0l-.05,.02h-.02l-.05,.02h-.02l-.05,.02h-.02l-.05,.02h-.03l-.05,.02h0c-.11,.04-.22,.07-.33,.11h0c-.37,.12-.74,.25-1.11,.38h0c-1.95,.69-3.78,1.5-5.45,2.38h0c-.2,.11-.4,.22-.6,.33h0s-.08,.04-.11,.06h0c-.07,.04-.14,.08-.21,.12h0l-.11,.06h0l-.04,.02h-.02l-.04,.03h-.02l-.04,.03h-.02l-.02,.02h-.02l-.04,.03h-.02l-.04,.03h-.02l-.04,.03h-.02l-.04,.03h0l-.05,.03h-.02l-.04,.03h0l-.04,.02h-.02l-.09,.07h0l-.05,.03h0l-.04,.02h-.02l-.02,.02h-.02l-.02,.02h0l-.03,.02h-.02l-.03,.03h-.02l-.03,.03h-.02l-.03,.03h-.02l-.02,.02h-.02l-.02,.02h-.02v.02h-.02l-.03,.02h-.02l-.02,.02h-.02v.02h-.03l-.02,.02h-.02l-.02,.02h-.02v.02h-.04v.02h-.02l-.03,.02h-.02l-.03,.03h-.02l-.03,.03h-.02l-.02,.02h-.02v.02h-.03v.02h-.02v.02h-.03v.02h-.03l-.02,.02h-.02l-.02,.02h-.02v.02h-.03v.02h-.03l-.02,.02h-.02l-.03,.03h-.02l-.03,.03h-.02l-.03,.03h-.02l-.02,.02h-.02v.02h-.03l-.02,.02h0l-.03,.02h-.02v.02h-.03v.02h-.02l-.03,.02h-.02l-.03,.04h-.02l-.02,.02h-.02v.02h-.03v.02h-.03l-.02,.02h-.02v.02h-.03v.02h-.03v.02h-.03v.02h-.03v.02h-.03v.02h-.03l-.02,.02h-.02l-.02,.02h-.02v.02h-.03v.02h-.03v.02h-.03v.02h-.03v.02h-.02v.02h-.03v.02h-.03v.02h-.03v.02h-.03v.02h-.02v.02h-.03v.02h-.03v.02h-.02v.02h-.03v.02h-.02v.02h-.03v.02h-.02v.02h-.03v.02h-.02v.02h-.03v.02h-.02v.02h-.03v.02h-.03v.02h-.02v.02h-.03v.02h-.02v.02h-.03v.02h-.02v.02h-.03v.02h-.02v.02h-.03v.02h-.03v.02h-.02v.02h-.03v.02h-.02v.02h-.03v.02h-.02v.02h-.03v.02h-.03v.02h-.02v.02h-.03v.02h-.02l-.03,.03h-.02v.02h-.03v.02h-.02l-.03,.03h-.02l-.03,.04h-.02v.03h-.03v.02h-.03v.02h-.02v.02h-.03v.02h-.03v.03h-.03l-.03,.04h-.02v.02h-.03v.02h-.03v.02h-.03v.02h-.03v.02h-.03v.02h-.01l-.03,.02h-.02l-.03,.04h-.02v.03h-.03v.02h-.03v.02h-.02l-.03,.04h-.02v.02h-.03v.02h-.01l-.03,.02h-.02l-.03,.04h-.02v.03h-.03v.02h-.03v.02h-.01l-.03,.03h-.02l-.03,.04h-.02l-.03,.04h-.01l-.03,.04h-.02v.03h-.03v.02h-.03v.02h-.01l-.03,.03h-.01l-.03,.04h-.01l-.03,.04h-.01v.02h-.03v.03h-.01l-.03,.02h0l-.03,.02h-.01l-.03,.04h-.01l-.03,.04h-.02v.03h-.03v.02h-.03v.03h-.03v.03h-.03l-.03,.04h-.01l-.03,.04h0l-.04,.04h0l-.03,.03h-.01l-.02,.04h-.01l-.03,.04h-.01l-.03,.04h0l-.08,.08h0l-.04,.04h0c-.95,.94-1.74,1.91-2.36,2.88h0c-1.31,2.06-1.82,4.15-1.34,6.1h0v.05h.01v.04h.01v.04h0v.02h0v.02h0v.02h0v.02h0v.02h0v.02h0v.02h0v.02h0v.02h0v.02h0v.02h0v.02h0l.02,.06h0v.02h0v.02h0v.02h0v.02h0v.02h0v.02h0l.02,.07h0v.02h0v.02h0v.02h0v.02h0v.02h0l.03,.07h0v.02h0v.02h0v.02h0v.02h0s.02,.07,.04,.1h0v.02h.01v.02h.01v.02h.01v.02h.01v.02h0l.03,.07h0v.02h.01v.02h.01v.02h.01v.02h.01l.04,.09h0v.02h.01v.02h.01v.02h.01v.02h0s.03,.06,.05,.09h0v.02h.01v.02h.01v.02h.01v.02h.01v.02h0l.03,.04h0v.02h.01v.02h.01v.02h.01v.02h.01v.02h.01v.02h0l.02,.03h0v.02h.01v.02h.01v.02h.01v.02h.01v.02h.01v.02h.01l.02,.04h0v.02h.01v.02h.01v.02h.01v.02h.01v.02h.01v.02h.01l.02,.03h.01v.02h.01v.02h.01v.02h.02v.02h.02v.02h.01v.02h.01v.02h.02v.02h.01v.02h.02v.02h.02v.02h.02v.02h.02v.02h.02v.02h.02v.02h.02v.02h0l.03,.04h.01v.02h.02v.02h.02v.02h.02v.02h.02v.02h.02v.02h0l.04,.05h0v.02h.02v.02h.02v.02h.02v.02h.02v.02h.02s.04,.05,.06,.07h0v.02h.02v.02h.02v.02h.02v.02h0s.08,.08,.12,.12h0v.02h0c.71,.7,1.59,1.32,2.62,1.83h0c1.56,.78,3.46,1.34,5.6,1.65h.09l.02,.02h.09v.02h.09l.05,.02h.02c.06,.01,.13,.02,.19,.03,.27,.03,.54,.05,.8,.05,3.23,0,6.03-2.41,6.44-5.7,.16-1.29-.07-2.55-.6-3.64,1.45-.72,3.21-1.42,5.26-1.99,2.57-.72,5.16-1.09,7.46-1.09,3.59,0,6.5-2.91,6.5-6.5,0-3.59-2.91-6.5-6.5-6.5h0Z"/></g><g class="cls-227"><ellipse class="cls-69" cx="1278.36" cy="1513.57" rx="22.9" ry="11.77" transform="translate(-687.74 1269.55) rotate(-42.74)"/><path class="cls-28" d="M1289.16,1495.78h-.01c-3.14,0-6.99,1.15-11.14,3.51h-.02v.02h-.04v.02h-.03v.02h-.03v.02h-.03v.02h-.03v.02h-.03v.02h-.03v.02h-.03l-.03,.03h0l-.03,.02h-.02v.02h-.03v.02h-.03v.02h-.03v.02h-.03v.02h-.03v.02h-.03l-.1,.07h-.02v.02h-.03v.02h-.03v.02h-.03v.02h-.03v.02h-.01c-.06,.04-.12,.07-.18,.11h-.02v.02h-.03v.02h-.01c-.06,.04-.12,.07-.18,.11h-.01v.02h-.02c-5.29,3.28-9.93,7.91-13.03,12.68h0l-.02,.03h0v.03h0s-.06,.1-.09,.15h0l-.02,.04h0v.03h0l-.02,.03h0l-.02,.03h0l-.07,.11h0l-.02,.03h0l-.02,.03h0v.03h-.02v.03h-.02v.02h0l-.05,.09h0v.02h0v.02h-.01v.02h0v.02h-.01v.02h-.01v.02h-.01v.02h-.01v.02h0v.03h-.02v.02h-.01v.03h-.02v.02h-.01v.02h-.01v.02h-.01v.02h-.01v.02h-.01v.02h-.01v.02h-.01v.02h-.01v.02h-.01v.02l-.04,.06h0v.02h-.01v.02h-.01v.02h-.01v.02h-.01v.02h-.01v.02h-.01v.02h-.01v.02h0l-.06,.11h0v.02h-.01v.03h-.01v.03h-.01v.03h0v.02h-.01c-.03,.05-.06,.1-.09,.15h0c-1.69,2.96-2.74,5.91-2.95,8.56h0c-.01,.17-.02,.33-.03,.5h0v.02h0v.02h0v.02h0v.02h0v.02h0v.03h0v.04h0c0,.17,0,.33,0,.49h0v.03h0v.02h0v.02h0v.05h0v.02h0v.02h0v.02h0v.02h0v.02h0v.02h0v.02h0v.02h0v.02h0v.02h0v.02h0v.02h0v.02h0v.02h0v.02h0v.02h0v.02h0v.02h0v.02h0v.02h0v.02h0v.02h0v.02h0v.02h0v.02h0v.02h0v.02h0v.02h0v.02h0v.02h0v.02h0v.02h0v.02h0v.02h0v.02h0v.02h0v.02h0v.02h0v.02h0v.02h0v.02h0v.02h0v.02h0v.02h0v.02h0v.02h0v.02h0v.02h0v.02h0v.02h0v.02h0v.02h0v.02h0v.02h0v.02h0v.02h0v.02h0v.02h0v.02h0v.02h0v.02h0v.02h0c-.08-.78-.02-1.59,.2-2.39l12.7,1.01h0c.17-2.1,4.34-9.17,11.69-13.36,2.6-1.48,4.3-1.81,4.74-1.81,3.59,0,6.5-2.92,6.49-6.51,0-3.59-2.91-6.49-6.5-6.49h0Zm-29.32,29.56h0Zm0,.02h0Zm0,.02h0Zm0,.02h0Zm0,.02v0h0Zm0,.02h0Zm0,.02h0Zm0,.02h0Zm0,.02h0Zm0,.02h0Zm0,.02h0Zm0,.02h0Zm0,.02h0Zm0,.02h0Zm0,.02h0Zm0,.02h0Zm0,.02h0Zm0,.02h0Zm0,.02h0Zm0,.02h0Zm0,.02h0Zm0,.02h0Zm0,.02h0Zm0,.02v0h0Zm0,.02h0Zm0,.02h0Zm0,.02h0Zm0,.02h0Zm0,.02v0h0Zm0,.02h0Zm0,.02v0h0Zm0,.02h0Zm0,.02h0Zm0,.02h0Zm0,.02h0Zm0,.02h0Zm0,.02h0Zm0,.02h0Zm0,.02v0h0Zm0,.02h0Zm0,.02h0Zm0,.02v0h0Zm0,.02h0Zm0,.02v0h0Zm0,.03h0Zm0,.02v0h0Zm0,.02h0Zm0,.02h0Zm0,.02v0h0Zm0,.02h0Zm0,.02v0h0Zm0,.03h0Zm0,.02v0h0Zm0,.02h0Zm0,.02v0h0Zm0,.03h0Zm0,.02v0h0Zm0,.02h0Zm0,.02h0Zm0,.01v0h0Zm0,.02h0Zm0,.02v0h0Zm0,.03h0Zm0,.01v0h0Zm0,.02h0Zm0,.02v0h0Zm0,.03h0Zm0,.02v0h0Zm0,.03v0h0Zm.01,.05v0h0Zm0,.03v0h0Zm.01,.05c.14,.43,.31,.84,.52,1.21h0c-.21-.37-.38-.78-.52-1.21h0Zm.52,1.21c.69,1.25,1.74,2.17,3.08,2.75-1.35-.58-2.4-1.56-3.08-2.75h0Zm3.08,2.75h0Zm0,0h0Zm0,0h0Z"/></g><g class="cls-227"><ellipse class="cls-69" cx="1559.04" cy="1318.91" rx="139.46" ry="58.66" transform="translate(-455.54 984.83) rotate(-30.81)"/></g></g><g class="cls-227"><path class="cls-28" d="M30.34,1058.5H-83.76c-10.07,0-18.31,8.24-18.31,18.31s8.24,18.31,18.31,18.31H247.52c10.07,0,18.31-8.24,18.31-18.31s-8.24-18.31-18.31-18.31H30.34Z"/><path class="cls-28" d="M-247.52,1021.87H83.76c10.07,0,18.31-8.24,18.31-18.31s-8.24-18.31-18.31-18.31H-247.52c-10.07,0-18.31,8.24-18.31,18.31s8.24,18.31,18.31,18.31Z"/><path class="cls-28" d="M236.71,1003.56c0-10.07-8.24-18.31-18.31-18.31h-46.77c-10.07,0-18.31,8.24-18.31,18.31s8.24,18.31,18.31,18.31h46.77c10.07,0,18.31-8.24,18.31-18.31Z"/><path class="cls-28" d="M-53.06,1131.76c-10.07,0-18.31,8.24-18.31,18.31s8.24,18.31,18.31,18.31H41.62c10.07,0,18.31-8.24,18.31-18.31s-8.24-18.31-18.31-18.31H-53.06Z"/><path class="cls-28" d="M12.03,1040.19h0c0-10.07,8.24-18.31,18.31-18.31H-50.2c-10.07,0-18.31,8.24-18.31,18.31h0c0,10.07,8.24,18.31,18.31,18.31H30.34c-10.07,0-18.31-8.24-18.31-18.31Z"/></g><rect class="cls-229" y="0" width="1975.06" height="3564.64"/><g><circle class="cls-28" cx="167.14" cy="818.81" r="4.31"/><circle class="cls-28" cx="149.6" cy="852.85" r="5.47"/><circle class="cls-28" cx="311.13" cy="878.21" r="4.31"/><circle class="cls-28" cx="268.92" cy="865.31" r="4.31"/><circle class="cls-28" cx="291.02" cy="934.63" r="4.31"/><circle class="cls-28" cx="281.39" cy="970.47" r="4.31"/><circle class="cls-28" cx="179.66" cy="819.32" r="2.72"/><circle class="cls-28" cx="239.6" cy="793.92" r="4.31"/><circle class="cls-28" cx="211.87" cy="829.87" r="2.72"/><circle class="cls-28" cx="188.07" cy="852.2" r="2.72"/><circle class="cls-28" cx="167.14" cy="861.89" r="2.72"/><circle class="cls-28" cx="202.35" cy="899.49" r="3.26"/><circle class="cls-28" cx="152.86" cy="883.39" r="3.26"/><circle class="cls-28" cx="234.57" cy="908.02" r="3.26"/><circle class="cls-28" cx="211.33" cy="945.36" r="3.26"/><circle class="cls-28" cx="325.98" cy="874.95" r="3.26"/><circle class="cls-28" cx="303.56" cy="899.49" r="3.26"/><circle class="cls-28" cx="346.47" cy="864.61" r="3.26"/><polyline class="cls-2" points="237.83 794.85 211.87 829.87 268.92 865.31 303.56 899.49"/><polyline class="cls-2" points="346.47 864.61 325.98 874.95 311.13 878.21 268.92 865.31"/><polyline class="cls-2" points="167.14 818.81 179.66 819.32 211.87 829.87 188.07 852.2 167.14 861.89 149.6 852.85"/><polyline class="cls-2" points="152.86 883.39 167.14 861.89 202.35 899.49 211.33 945.36 281.39 970.47"/><polyline class="cls-2" points="291.02 934.63 234.57 908.02 202.35 899.49"/></g><g><g><circle class="cls-28" cx="1071.1" cy="877.04" r="3.66"/><circle class="cls-28" cx="834.28" cy="793.23" r="3.66"/><circle class="cls-28" cx="1127.48" cy="669.63" r="3.66"/><circle class="cls-28" cx="1189.72" cy="742.71" r="3.66"/><circle class="cls-28" cx="1090.49" cy="785.11" r="3.66"/><circle class="cls-28" cx="1062.52" cy="645.27" r="3.66"/><circle class="cls-28" cx="863.15" cy="574" r="3.66"/><circle class="cls-28" cx="862.24" cy="359.29" r="3.66"/><circle class="cls-28" cx="1084.17" cy="370.12" r="3.66"/><circle class="cls-28" cx="1190.63" cy="416.13" r="3.66"/></g><g><circle class="cls-28" cx="114.74" cy="704.15" r="3.66"/><circle class="cls-28" cx="171.11" cy="496.74" r="3.66"/><circle class="cls-28" cx="233.36" cy="569.81" r="3.66"/><circle class="cls-28" cx="134.12" cy="612.22" r="3.66"/><circle class="cls-28" cx="106.15" cy="472.38" r="3.66"/><circle class="cls-28" cx="127.81" cy="197.23" r="3.66"/><circle class="cls-28" cx="234.26" cy="243.24" r="3.66"/></g><g><circle class="cls-28" cx="387.89" cy="1233.65" r="3.66"/><circle class="cls-28" cx="151.06" cy="1149.84" r="3.66"/><circle class="cls-28" cx="444.26" cy="1026.24" r="3.66"/><circle class="cls-28" cx="506.51" cy="1099.32" r="3.66"/><circle class="cls-28" cx="407.27" cy="1141.72" r="3.66"/><circle class="cls-28" cx="379.31" cy="1001.89" r="3.66"/><circle class="cls-28" cx="179.93" cy="930.62" r="3.66"/><circle class="cls-28" cx="179.03" cy="715.91" r="3.66"/><circle class="cls-28" cx="400.96" cy="726.73" r="3.66"/><circle class="cls-28" cx="507.41" cy="772.74" r="3.66"/></g><g><circle class="cls-28" cx="1758.03" cy="686.75" r="3.66"/><circle class="cls-28" cx="1392.76" cy="611.33" r="3.66"/><circle class="cls-28" cx="1814.4" cy="479.34" r="3.66"/><circle class="cls-28" cx="1876.65" cy="552.41" r="3.66"/><circle class="cls-28" cx="1777.41" cy="594.82" r="3.66"/><circle class="cls-28" cx="1749.45" cy="454.98" r="3.66"/><circle class="cls-28" cx="1550.07" cy="383.71" r="3.66"/><circle class="cls-28" cx="1549.17" cy="169" r="3.66"/><circle class="cls-28" cx="1771.1" cy="179.83" r="3.66"/><circle class="cls-28" cx="1877.55" cy="225.84" r="3.66"/></g></g><g class="cls-228"><g class="cls-5"><polygon class="cls-175" points="3923.95 3149.85 1264.82 546.36 3923.95 546.36 3923.95 3149.85"/><polygon class="cls-175" points="3923.95 3162.99 1251.4 546.36 1264.82 546.36 3923.95 3149.85 3923.95 3162.99"/><polygon class="cls-180" points="3923.95 3176.12 1237.99 546.36 1251.4 546.36 3923.95 3162.99 3923.95 3176.12"/><polygon class="cls-177" points="3923.95 3189.26 1224.57 546.36 1237.99 546.36 3923.95 3176.12 3923.95 3189.26"/><polygon class="cls-183" points="3923.95 3202.4 1211.15 546.36 1224.57 546.36 3923.95 3189.26 3923.95 3202.4"/><polygon class="cls-184" points="3923.95 3215.54 1197.73 546.36 1211.15 546.36 3923.95 3202.4 3923.95 3215.54"/><polygon class="cls-83" points="3923.95 3228.67 1184.31 546.36 1197.73 546.36 3923.95 3215.54 3923.95 3228.67"/><polygon class="cls-186" points="3923.95 3241.81 1170.9 546.36 1184.31 546.36 3923.95 3228.67 3923.95 3241.81"/><polygon class="cls-82" points="3923.95 3254.95 1157.48 546.36 1170.9 546.36 3923.95 3241.81 3923.95 3254.95"/><polygon class="cls-80" points="3923.95 3268.08 1144.06 546.36 1157.48 546.36 3923.95 3254.95 3923.95 3268.08"/><polygon class="cls-189" points="3923.95 3281.22 1130.64 546.36 1144.06 546.36 3923.95 3268.08 3923.95 3281.22"/><polygon class="cls-181" points="3923.95 3294.36 1117.22 546.36 1130.64 546.36 3923.95 3281.22 3923.95 3294.36"/><polygon class="cls-148" points="3923.95 3307.5 1103.81 546.36 1117.22 546.36 3923.95 3294.36 3923.95 3307.5"/><polygon class="cls-149" points="3923.95 3320.63 1090.39 546.36 1103.81 546.36 3923.95 3307.5 3923.95 3320.63"/><polygon class="cls-185" points="3923.95 3333.77 1076.97 546.36 1090.39 546.36 3923.95 3320.63 3923.95 3333.77"/><polygon class="cls-191" points="3923.95 3346.91 1063.55 546.36 1076.97 546.36 3923.95 3333.77 3923.95 3346.91"/><polygon class="cls-187" points="3923.95 3360.04 1050.14 546.36 1063.55 546.36 3923.95 3346.91 3923.95 3360.04"/><polygon class="cls-188" points="3923.95 3373.18 1036.72 546.36 1050.14 546.36 3923.95 3360.04 3923.95 3373.18"/><polygon class="cls-194" points="3923.95 3386.32 1023.3 546.36 1036.72 546.36 3923.95 3373.18 3923.95 3386.32"/><polygon class="cls-153" points="3923.95 3399.46 1009.88 546.36 1023.3 546.36 3923.95 3386.32 3923.95 3399.46"/><polygon class="cls-151" points="3923.95 3412.59 996.46 546.36 1009.88 546.36 3923.95 3399.46 3923.95 3412.59"/><polygon class="cls-152" points="3923.95 3425.73 983.05 546.36 996.46 546.36 3923.95 3412.59 3923.95 3425.73"/><polygon class="cls-146" points="3923.95 3438.87 969.63 546.36 983.05 546.36 3923.95 3425.73 3923.95 3438.87"/><polygon class="cls-147" points="3923.95 3452 956.21 546.36 969.63 546.36 3923.95 3438.87 3923.95 3452"/><polygon class="cls-144" points="3923.95 3465.14 942.79 546.36 956.21 546.36 3923.95 3452 3923.95 3465.14"/><polygon class="cls-145" points="3923.95 3478.28 929.37 546.36 942.79 546.36 3923.95 3465.14 3923.95 3478.28"/><polygon class="cls-150" points="3923.95 3491.41 915.96 546.36 929.37 546.36 3923.95 3478.28 3923.95 3491.41"/><polygon class="cls-220" points="3923.95 3504.55 902.54 546.36 915.96 546.36 3923.95 3491.41 3923.95 3504.55"/><polygon class="cls-161" points="3923.95 3517.69 889.12 546.36 902.54 546.36 3923.95 3504.55 3923.95 3517.69"/><polygon class="cls-163" points="3923.95 3530.83 875.7 546.36 889.12 546.36 3923.95 3517.69 3923.95 3530.83"/><polygon class="cls-215" points="3923.95 3543.96 862.29 546.36 875.7 546.36 3923.95 3530.83 3923.95 3543.96"/><polygon class="cls-201" points="3923.95 3557.1 848.87 546.36 862.29 546.36 3923.95 3543.96 3923.95 3557.1"/><polygon class="cls-179" points="3923.95 3570.24 835.45 546.36 848.87 546.36 3923.95 3557.1 3923.95 3570.24"/><polygon class="cls-208" points="3923.95 3583.37 822.03 546.36 835.45 546.36 3923.95 3570.24 3923.95 3583.37"/><polygon class="cls-196" points="3923.95 3596.51 808.61 546.36 822.03 546.36 3923.95 3583.37 3923.95 3596.51"/><polygon class="cls-216" points="3923.95 3609.65 795.2 546.36 808.61 546.36 3923.95 3596.51 3923.95 3609.65"/><polygon class="cls-218" points="3923.95 3622.79 781.78 546.36 795.2 546.36 3923.95 3609.65 3923.95 3622.79"/><polygon class="cls-210" points="3923.95 3635.92 768.36 546.36 781.78 546.36 3923.95 3622.79 3923.95 3635.92"/><polygon class="cls-213" points="3923.95 3649.06 754.94 546.36 768.36 546.36 3923.95 3635.92 3923.95 3649.06"/><polygon class="cls-221" points="3923.95 3662.2 741.52 546.36 754.94 546.36 3923.95 3649.06 3923.95 3662.2"/><polygon class="cls-212" points="3923.95 3675.33 728.11 546.36 741.52 546.36 3923.95 3662.2 3923.95 3675.33"/><polygon class="cls-164" points="3923.95 3688.47 714.69 546.36 728.11 546.36 3923.95 3675.33 3923.95 3688.47"/><polygon class="cls-162" points="3923.95 3701.61 701.27 546.36 714.69 546.36 3923.95 3688.47 3923.95 3701.61"/><polygon class="cls-171" points="3923.95 3714.75 687.85 546.36 701.27 546.36 3923.95 3701.61 3923.95 3714.75"/><polygon class="cls-176" points="3923.95 3727.88 674.43 546.36 687.85 546.36 3923.95 3714.75 3923.95 3727.88"/><polygon class="cls-193" points="3923.95 3741.02 661.02 546.36 674.43 546.36 3923.95 3727.88 3923.95 3741.02"/><polygon class="cls-192" points="3923.95 3754.16 647.6 546.36 661.02 546.36 3923.95 3741.02 3923.95 3754.16"/><polygon class="cls-174" points="3923.95 3767.29 634.18 546.36 647.6 546.36 3923.95 3754.16 3923.95 3767.29"/><polygon class="cls-190" points="3923.95 3780.43 620.76 546.36 634.18 546.36 3923.95 3767.29 3923.95 3780.43"/><polygon class="cls-173" points="3923.95 3793.57 607.35 546.36 620.76 546.36 3923.95 3780.43 3923.95 3793.57"/><polygon class="cls-182" points="3923.95 3806.71 595.95 548.34 597.88 546.36 607.35 546.36 3923.95 3793.57 3923.95 3806.71"/><polygon class="cls-200" points="3923.95 3819.84 589.38 555.05 595.95 548.34 3923.95 3806.71 3923.95 3819.84"/><polygon class="cls-209" points="3923.95 3832.98 582.81 561.75 589.38 555.05 3923.95 3819.84 3923.95 3832.98"/><polygon class="cls-199" points="3923.95 3842.21 3922 3844.2 576.25 568.46 582.81 561.75 3923.95 3832.98 3923.95 3842.21"/><rect class="cls-198" x="2241.15" y="-131.5" width="9.39" height="4682.37" transform="translate(-904.25 2268.56) rotate(-45.61)"/><rect class="cls-205" x="2234.58" y="-124.79" width="9.39" height="4682.37" transform="translate(-911.01 2265.88) rotate(-45.61)"/><rect class="cls-197" x="2228.01" y="-118.08" width="9.39" height="4682.37" transform="translate(-917.78 2263.2) rotate(-45.61)"/><rect class="cls-172" x="2221.44" y="-111.38" width="9.39" height="4682.37" transform="translate(-924.54 2260.53) rotate(-45.61)"/><rect class="cls-178" x="2214.88" y="-104.67" width="9.39" height="4682.37" transform="translate(-931.31 2257.85) rotate(-45.61)"/><rect class="cls-48" x="2208.31" y="-97.96" width="9.39" height="4682.37" transform="translate(-938.07 2255.17) rotate(-45.61)"/><rect class="cls-46" x="2201.74" y="-91.25" width="9.39" height="4682.37" transform="translate(-944.84 2252.49) rotate(-45.61)"/><rect class="cls-15" x="2195.18" y="-84.55" width="9.39" height="4682.37" transform="translate(-951.61 2249.82) rotate(-45.61)"/><rect class="cls-13" x="2188.61" y="-77.84" width="9.39" height="4682.37" transform="translate(-958.37 2247.14) rotate(-45.61)"/><rect class="cls-12" x="2182.04" y="-71.13" width="9.39" height="4682.37" transform="translate(-965.14 2244.46) rotate(-45.61)"/><rect class="cls-14" x="2175.47" y="-64.42" width="9.39" height="4682.37" transform="translate(-971.9 2241.78) rotate(-45.61)"/><rect class="cls-42" x="2168.91" y="-57.72" width="9.39" height="4682.37" transform="translate(-978.67 2239.11) rotate(-45.61)"/><rect class="cls-53" x="2162.34" y="-51.01" width="9.39" height="4682.37" transform="translate(-985.43 2236.43) rotate(-45.61)"/><rect class="cls-170" x="2155.77" y="-44.3" width="9.39" height="4682.37" transform="translate(-992.2 2233.75) rotate(-45.61)"/><rect class="cls-155" x="2149.21" y="-37.59" width="9.39" height="4682.37" transform="translate(-998.96 2231.07) rotate(-45.61)"/><rect class="cls-159" x="2142.64" y="-30.89" width="9.39" height="4682.37" transform="translate(-1005.73 2228.4) rotate(-45.61)"/><rect class="cls-169" x="2136.07" y="-24.18" width="9.39" height="4682.37" transform="translate(-1012.5 2225.72) rotate(-45.61)"/><rect class="cls-157" x="2129.5" y="-17.47" width="9.39" height="4682.37" transform="translate(-1019.26 2223.04) rotate(-45.61)"/><rect class="cls-79" x="2122.94" y="-10.76" width="9.39" height="4682.37" transform="translate(-1026.03 2220.36) rotate(-45.61)"/><rect class="cls-44" x="2116.37" y="-4.06" width="9.39" height="4682.37" transform="translate(-1032.79 2217.69) rotate(-45.61)"/><rect class="cls-49" x="2109.8" y="2.65" width="9.39" height="4682.37" transform="translate(-1039.56 2215.01) rotate(-45.61)"/><rect class="cls-202" x="2103.24" y="9.36" width="9.39" height="4682.37" transform="translate(-1046.32 2212.33) rotate(-45.61)"/><rect class="cls-204" x="2096.67" y="16.07" width="9.39" height="4682.37" transform="translate(-1053.09 2209.65) rotate(-45.61)"/><rect class="cls-211" x="2090.1" y="22.77" width="9.39" height="4682.37" transform="translate(-1059.85 2206.98) rotate(-45.61)"/><rect class="cls-206" x="2083.54" y="29.48" width="9.39" height="4682.37" transform="translate(-1066.62 2204.3) rotate(-45.61)"/><rect class="cls-207" x="2076.97" y="36.19" width="9.39" height="4682.37" transform="translate(-1073.39 2201.62) rotate(-45.61)"/><rect class="cls-203" x="2070.4" y="42.9" width="9.39" height="4682.37" transform="translate(-1080.15 2198.94) rotate(-45.61)"/><rect class="cls-219" x="2063.83" y="49.6" width="9.39" height="4682.37" transform="translate(-1086.92 2196.27) rotate(-45.61)"/><rect class="cls-217" x="2057.27" y="56.31" width="9.39" height="4682.37" transform="translate(-1093.68 2193.59) rotate(-45.61)"/><rect class="cls-54" x="2050.7" y="63.02" width="9.39" height="4682.37" transform="translate(-1100.45 2190.91) rotate(-45.61)"/><rect class="cls-41" x="2044.13" y="69.73" width="9.39" height="4682.37" transform="translate(-1107.21 2188.23) rotate(-45.61)"/><rect class="cls-43" x="2037.57" y="76.43" width="9.39" height="4682.37" transform="translate(-1113.98 2185.56) rotate(-45.61)"/><rect class="cls-56" x="2031" y="83.14" width="9.39" height="4682.37" transform="translate(-1120.74 2182.88) rotate(-45.61)"/><rect class="cls-45" x="2024.43" y="89.85" width="9.39" height="4682.37" transform="translate(-1127.51 2180.2) rotate(-45.61)"/><rect class="cls-47" x="2017.86" y="96.56" width="9.39" height="4682.37" transform="translate(-1134.28 2177.52) rotate(-45.61)"/><rect class="cls-214" x="2011.3" y="103.26" width="9.39" height="4682.37" transform="translate(-1141.04 2174.85) rotate(-45.61)"/><rect class="cls-195" x="2004.73" y="109.97" width="9.39" height="4682.37" transform="translate(-1147.81 2172.17) rotate(-45.61)"/><rect class="cls-59" x="1998.16" y="116.68" width="9.39" height="4682.37" transform="translate(-1154.57 2169.49) rotate(-45.61)"/><rect class="cls-88" x="1991.6" y="123.39" width="9.39" height="4682.37" transform="translate(-1161.34 2166.81) rotate(-45.61)"/><rect class="cls-165" x="1985.03" y="130.09" width="9.39" height="4682.37" transform="translate(-1168.1 2164.14) rotate(-45.61)"/><rect class="cls-62" x="1978.46" y="136.8" width="9.39" height="4682.37" transform="translate(-1174.87 2161.46) rotate(-45.61)"/><rect class="cls-167" x="1971.9" y="143.51" width="9.39" height="4682.37" transform="translate(-1181.63 2158.78) rotate(-45.61)"/><rect class="cls-154" x="1965.33" y="150.21" width="9.39" height="4682.37" transform="translate(-1188.4 2156.1) rotate(-45.61)"/><rect class="cls-64" x="1958.76" y="156.92" width="9.39" height="4682.37" transform="translate(-1195.17 2153.43) rotate(-45.61)"/><rect class="cls-67" x="1952.19" y="163.63" width="9.39" height="4682.37" transform="translate(-1201.93 2150.75) rotate(-45.61)"/><rect class="cls-72" x="1945.63" y="170.34" width="9.39" height="4682.37" transform="translate(-1208.7 2148.07) rotate(-45.61)"/><rect class="cls-84" x="1939.06" y="177.04" width="9.39" height="4682.37" transform="translate(-1215.46 2145.39) rotate(-45.61)"/><rect class="cls-86" x="1932.49" y="183.75" width="9.39" height="4682.37" transform="translate(-1222.23 2142.72) rotate(-45.61)"/><rect class="cls-73" x="1925.93" y="190.46" width="9.39" height="4682.37" transform="translate(-1228.99 2140.04) rotate(-45.61)"/><rect class="cls-74" x="1919.36" y="197.17" width="9.39" height="4682.37" transform="translate(-1235.76 2137.36) rotate(-45.61)"/><rect class="cls-40" x="1912.79" y="203.87" width="9.39" height="4682.37" transform="translate(-1242.52 2134.68) rotate(-45.61)"/><rect class="cls-58" x="1906.22" y="210.58" width="9.39" height="4682.37" transform="translate(-1249.29 2132.01) rotate(-45.61)"/><rect class="cls-61" x="1899.66" y="217.29" width="9.39" height="4682.37" transform="translate(-1256.06 2129.33) rotate(-45.61)"/><rect class="cls-158" x="1893.09" y="224" width="9.39" height="4682.37" transform="translate(-1262.82 2126.65) rotate(-45.61)"/><rect class="cls-51" x="1886.52" y="230.7" width="9.39" height="4682.37" transform="translate(-1269.59 2123.97) rotate(-45.61)"/><rect class="cls-55" x="1879.96" y="237.41" width="9.39" height="4682.37" transform="translate(-1276.35 2121.3) rotate(-45.61)"/><rect class="cls-50" x="1873.39" y="244.12" width="9.39" height="4682.37" transform="translate(-1283.12 2118.62) rotate(-45.61)"/><rect class="cls-52" x="1866.82" y="250.83" width="9.39" height="4682.37" transform="translate(-1289.88 2115.94) rotate(-45.61)"/><rect class="cls-166" x="1860.25" y="257.53" width="9.39" height="4682.37" transform="translate(-1296.65 2113.26) rotate(-45.61)"/><rect class="cls-168" x="1853.69" y="264.24" width="9.39" height="4682.37" transform="translate(-1303.41 2110.59) rotate(-45.61)"/><rect class="cls-68" x="1847.12" y="270.95" width="9.39" height="4682.37" transform="translate(-1310.18 2107.91) rotate(-45.61)"/><rect class="cls-66" x="1840.55" y="277.66" width="9.39" height="4682.37" transform="translate(-1316.95 2105.23) rotate(-45.61)"/><rect class="cls-70" x="1833.99" y="284.36" width="9.39" height="4682.37" transform="translate(-1323.71 2102.55) rotate(-45.61)"/><rect class="cls-57" x="1827.42" y="291.07" width="9.39" height="4682.37" transform="translate(-1330.48 2099.88) rotate(-45.61)"/><rect class="cls-60" x="1820.85" y="297.78" width="9.39" height="4682.37" transform="translate(-1337.24 2097.2) rotate(-45.61)"/><rect class="cls-71" x="1814.29" y="304.49" width="9.39" height="4682.37" transform="translate(-1344.01 2094.52) rotate(-45.61)"/><rect class="cls-156" x="1807.72" y="311.19" width="9.39" height="4682.37" transform="translate(-1350.77 2091.84) rotate(-45.61)"/><rect class="cls-160" x="1801.15" y="317.9" width="9.39" height="4682.37" transform="translate(-1357.54 2089.17) rotate(-45.61)"/><rect class="cls-101" x="1794.58" y="324.61" width="9.39" height="4682.37" transform="translate(-1364.3 2086.49) rotate(-45.61)"/><rect class="cls-91" x="1788.02" y="331.32" width="9.39" height="4682.37" transform="translate(-1371.07 2083.81) rotate(-45.61)"/><rect class="cls-106" x="1781.45" y="338.02" width="9.39" height="4682.37" transform="translate(-1377.84 2081.13) rotate(-45.61)"/><rect class="cls-93" x="1774.88" y="344.73" width="9.39" height="4682.37" transform="translate(-1384.6 2078.46) rotate(-45.61)"/><rect class="cls-95" x="1768.32" y="351.44" width="9.39" height="4682.37" transform="translate(-1391.37 2075.78) rotate(-45.61)"/><rect class="cls-105" x="1761.75" y="358.15" width="9.39" height="4682.37" transform="translate(-1398.13 2073.1) rotate(-45.61)"/><rect class="cls-103" x="1755.18" y="364.85" width="9.39" height="4682.37" transform="translate(-1404.9 2070.42) rotate(-45.61)"/><rect class="cls-94" x="1748.61" y="371.56" width="9.39" height="4682.37" transform="translate(-1411.66 2067.75) rotate(-45.61)"/><rect class="cls-124" x="1742.05" y="378.27" width="9.39" height="4682.37" transform="translate(-1418.43 2065.07) rotate(-45.61)"/><rect class="cls-135" x="1735.48" y="384.98" width="9.39" height="4682.37" transform="translate(-1425.19 2062.39) rotate(-45.61)"/><rect class="cls-97" x="1728.91" y="391.68" width="9.39" height="4682.37" transform="translate(-1431.96 2059.71) rotate(-45.61)"/><rect class="cls-136" x="1722.35" y="398.39" width="9.39" height="4682.37" transform="translate(-1438.73 2057.04) rotate(-45.61)"/><rect class="cls-98" x="1715.78" y="405.1" width="9.39" height="4682.37" transform="translate(-1445.49 2054.36) rotate(-45.61)"/><rect class="cls-92" x="1709.21" y="411.8" width="9.39" height="4682.37" transform="translate(-1452.26 2051.68) rotate(-45.61)"/><rect class="cls-100" x="1702.64" y="418.51" width="9.39" height="4682.37" transform="translate(-1459.02 2049) rotate(-45.61)"/><rect class="cls-141" x="1696.08" y="425.22" width="9.39" height="4682.37" transform="translate(-1465.79 2046.33) rotate(-45.61)"/><rect class="cls-78" x="1689.51" y="431.93" width="9.39" height="4682.37" transform="translate(-1472.55 2043.65) rotate(-45.61)"/><rect class="cls-63" x="1682.94" y="438.63" width="9.39" height="4682.37" transform="translate(-1479.32 2040.97) rotate(-45.61)"/><rect class="cls-75" x="1676.38" y="445.34" width="9.39" height="4682.37" transform="translate(-1486.08 2038.29) rotate(-45.61)"/><rect class="cls-76" x="1669.81" y="452.05" width="9.39" height="4682.37" transform="translate(-1492.85 2035.62) rotate(-45.61)"/><rect class="cls-87" x="1663.24" y="458.76" width="9.39" height="4682.37" transform="translate(-1499.62 2032.94) rotate(-45.61)"/><rect class="cls-65" x="1656.68" y="465.46" width="9.39" height="4682.37" transform="translate(-1506.38 2030.26) rotate(-45.61)"/><rect class="cls-85" x="1650.11" y="472.17" width="9.39" height="4682.37" transform="translate(-1513.15 2027.58) rotate(-45.61)"/><rect class="cls-81" x="1643.54" y="478.88" width="9.39" height="4682.37" transform="translate(-1519.91 2024.91) rotate(-45.61)"/><rect class="cls-104" x="1636.97" y="485.59" width="9.39" height="4682.37" transform="translate(-1526.68 2022.23) rotate(-45.61)"/><rect class="cls-110" x="1630.41" y="492.29" width="9.39" height="4682.37" transform="translate(-1533.44 2019.55) rotate(-45.61)"/><rect class="cls-107" x="1623.84" y="499" width="9.39" height="4682.37" transform="translate(-1540.21 2016.87) rotate(-45.61)"/><rect class="cls-96" x="1617.27" y="505.71" width="9.39" height="4682.37" transform="translate(-1546.97 2014.2) rotate(-45.61)"/><rect class="cls-109" x="1610.71" y="512.42" width="9.39" height="4682.37" transform="translate(-1553.74 2011.52) rotate(-45.61)"/><rect class="cls-102" x="1604.14" y="519.12" width="9.39" height="4682.37" transform="translate(-1560.51 2008.84) rotate(-45.61)"/><rect class="cls-77" x="1597.57" y="525.83" width="9.39" height="4682.37" transform="translate(-1567.27 2006.16) rotate(-45.61)"/><rect class="cls-108" x="1591" y="532.54" width="9.39" height="4682.37" transform="translate(-1574.04 2003.49) rotate(-45.61)"/><rect class="cls-121" x="1584.44" y="539.25" width="9.39" height="4682.37" transform="translate(-1580.8 2000.81) rotate(-45.61)"/><rect class="cls-123" x="1577.87" y="545.95" width="9.39" height="4682.37" transform="translate(-1587.57 1998.13) rotate(-45.61)"/><rect class="cls-137" x="1571.3" y="552.66" width="9.39" height="4682.37" transform="translate(-1594.33 1995.45) rotate(-45.61)"/><rect class="cls-113" x="1564.74" y="559.37" width="9.39" height="4682.37" transform="translate(-1601.1 1992.78) rotate(-45.61)"/><rect class="cls-140" x="1558.17" y="566.08" width="9.39" height="4682.37" transform="translate(-1607.86 1990.1) rotate(-45.61)"/><rect class="cls-118" x="1551.6" y="572.78" width="9.39" height="4682.37" transform="translate(-1614.63 1987.42) rotate(-45.61)"/><rect class="cls-114" x="1545.04" y="579.49" width="9.39" height="4682.37" transform="translate(-1621.4 1984.74) rotate(-45.61)"/><rect class="cls-134" x="1538.47" y="586.2" width="9.39" height="4682.37" transform="translate(-1628.16 1982.07) rotate(-45.61)"/><rect class="cls-112" x="1531.9" y="592.91" width="9.39" height="4682.37" transform="translate(-1634.93 1979.39) rotate(-45.61)"/><rect class="cls-111" x="1525.33" y="599.61" width="9.39" height="4682.37" transform="translate(-1641.69 1976.71) rotate(-45.61)"/><rect class="cls-90" x="1518.77" y="606.32" width="9.39" height="4682.37" transform="translate(-1648.46 1974.04) rotate(-45.61)"/><rect class="cls-89" x="1512.2" y="613.03" width="9.39" height="4682.37" transform="translate(-1655.22 1971.36) rotate(-45.61)"/><rect class="cls-115" x="1505.63" y="619.74" width="9.39" height="4682.37" transform="translate(-1661.99 1968.68) rotate(-45.61)"/><rect class="cls-122" x="1499.07" y="626.44" width="9.39" height="4682.37" transform="translate(-1668.75 1966) rotate(-45.61)"/><rect class="cls-120" x="1492.5" y="633.15" width="9.39" height="4682.37" transform="translate(-1675.52 1963.33) rotate(-45.61)"/><rect class="cls-119" x="1485.93" y="639.86" width="9.39" height="4682.37" transform="translate(-1682.29 1960.65) rotate(-45.61)"/><rect class="cls-126" x="1479.36" y="646.57" width="9.39" height="4682.37" transform="translate(-1689.05 1957.97) rotate(-45.61)"/><rect class="cls-130" x="1472.8" y="653.27" width="9.39" height="4682.37" transform="translate(-1695.82 1955.29) rotate(-45.61)"/><rect class="cls-143" x="1466.23" y="659.98" width="9.39" height="4682.37" transform="translate(-1702.58 1952.62) rotate(-45.61)"/><rect class="cls-125" x="1459.66" y="666.69" width="9.39" height="4682.37" transform="translate(-1709.35 1949.94) rotate(-45.61)"/><rect class="cls-133" x="1453.1" y="673.39" width="9.39" height="4682.37" transform="translate(-1716.11 1947.26) rotate(-45.61)"/><rect class="cls-99" x="1446.53" y="680.1" width="9.39" height="4682.37" transform="translate(-1722.88 1944.58) rotate(-45.61)"/><rect class="cls-131" x="1439.96" y="686.81" width="9.39" height="4682.37" transform="translate(-1729.64 1941.91) rotate(-45.61)"/><rect class="cls-129" x="1433.39" y="693.52" width="9.39" height="4682.37" transform="translate(-1736.41 1939.23) rotate(-45.61)"/><rect class="cls-128" x="1426.83" y="700.22" width="9.39" height="4682.37" transform="translate(-1743.18 1936.55) rotate(-45.61)"/><rect class="cls-127" x="1420.26" y="706.93" width="9.39" height="4682.37" transform="translate(-1749.94 1933.87) rotate(-45.61)"/><rect class="cls-117" x="1413.69" y="713.64" width="9.39" height="4682.37" transform="translate(-1756.71 1931.2) rotate(-45.61)"/><rect class="cls-116" x="1407.13" y="720.35" width="9.39" height="4682.37" transform="translate(-1763.47 1928.52) rotate(-45.61)"/><rect class="cls-142" x="1400.56" y="727.05" width="9.39" height="4682.37" transform="translate(-1770.24 1925.84) rotate(-45.61)"/><rect class="cls-132" x="1393.99" y="733.76" width="9.39" height="4682.37" transform="translate(-1777 1923.16) rotate(-45.61)"/><rect class="cls-139" x="1387.43" y="740.47" width="9.39" height="4682.37" transform="translate(-1783.77 1920.49) rotate(-45.61)"/><rect class="cls-138" x="1380.86" y="747.18" width="9.39" height="4682.37" transform="translate(-1790.54 1917.81) rotate(-45.61)"/><rect class="cls-27" x="1374.29" y="753.88" width="9.39" height="4682.37" transform="translate(-1797.3 1915.13) rotate(-45.61)"/><rect class="cls-24" x="1367.72" y="760.59" width="9.39" height="4682.37" transform="translate(-1804.07 1912.45) rotate(-45.61)"/><rect class="cls-37" x="1361.16" y="767.3" width="9.39" height="4682.37" transform="translate(-1810.83 1909.78) rotate(-45.61)"/><rect class="cls-34" x="1354.59" y="774.01" width="9.39" height="4682.37" transform="translate(-1817.6 1907.1) rotate(-45.61)"/><rect class="cls-23" x="1348.02" y="780.71" width="9.39" height="4682.37" transform="translate(-1824.36 1904.42) rotate(-45.61)"/><rect class="cls-25" x="1341.46" y="787.42" width="9.39" height="4682.37" transform="translate(-1831.13 1901.74) rotate(-45.61)"/><rect class="cls-21" x="1334.89" y="794.13" width="9.39" height="4682.37" transform="translate(-1837.89 1899.07) rotate(-45.61)"/><rect class="cls-19" x="1328.32" y="800.84" width="9.39" height="4682.37" transform="translate(-1844.66 1896.39) rotate(-45.61)"/><rect class="cls-17" x="1321.75" y="807.54" width="9.39" height="4682.37" transform="translate(-1851.43 1893.71) rotate(-45.61)"/><rect class="cls-32" x="1315.19" y="814.25" width="9.39" height="4682.37" transform="translate(-1858.19 1891.03) rotate(-45.61)"/><rect class="cls-26" x="1308.62" y="820.96" width="9.39" height="4682.37" transform="translate(-1864.96 1888.36) rotate(-45.61)"/><rect class="cls-16" x="1302.05" y="827.67" width="9.39" height="4682.37" transform="translate(-1871.72 1885.68) rotate(-45.61)"/><rect class="cls-36" x="1295.49" y="834.37" width="9.39" height="4682.37" transform="translate(-1878.49 1883) rotate(-45.61)"/><rect class="cls-18" x="1288.92" y="841.08" width="9.39" height="4682.37" transform="translate(-1885.25 1880.32) rotate(-45.61)"/><rect class="cls-31" x="1282.35" y="847.79" width="9.39" height="4682.37" transform="translate(-1892.02 1877.65) rotate(-45.61)"/><rect class="cls-9" x="1275.78" y="854.5" width="9.39" height="4682.37" transform="translate(-1898.78 1874.97) rotate(-45.61)"/><rect class="cls-6" x="1269.22" y="861.2" width="9.39" height="4682.37" transform="translate(-1905.55 1872.29) rotate(-45.61)"/><rect class="cls-20" x="1262.65" y="867.91" width="9.39" height="4682.37" transform="translate(-1912.32 1869.61) rotate(-45.61)"/><rect class="cls-22" x="1256.08" y="874.62" width="9.39" height="4682.37" transform="translate(-1919.08 1866.94) rotate(-45.61)"/><rect class="cls-7" x="1249.52" y="881.33" width="9.39" height="4682.37" transform="translate(-1925.85 1864.26) rotate(-45.61)"/><rect class="cls-8" x="1242.95" y="888.03" width="9.39" height="4682.37" transform="translate(-1932.61 1861.58) rotate(-45.61)"/><rect class="cls-11" x="1236.38" y="894.74" width="9.39" height="4682.37" transform="translate(-1939.38 1858.9) rotate(-45.61)"/><rect class="cls-10" x="1229.82" y="901.45" width="9.39" height="4682.37" transform="translate(-1946.14 1856.23) rotate(-45.61)"/><rect class="cls-35" x="1223.25" y="908.16" width="9.39" height="4682.37" transform="translate(-1952.91 1853.55) rotate(-45.61)"/><rect class="cls-33" x="1216.68" y="914.86" width="9.39" height="4682.37" transform="translate(-1959.67 1850.87) rotate(-45.61)"/><rect class="cls-38" x="1210.11" y="921.57" width="9.39" height="4682.37" transform="translate(-1966.44 1848.19) rotate(-45.61)"/><rect class="cls-39" x="1203.55" y="928.28" width="9.39" height="4682.37" transform="translate(-1973.21 1845.52) rotate(-45.61)"/><rect class="cls-30" x="1196.98" y="934.98" width="9.39" height="4682.37" transform="translate(-1979.97 1842.84) rotate(-45.61)"/><rect class="cls-29" x="1190.41" y="941.69" width="9.39" height="4682.37" transform="translate(-1986.74 1840.16) rotate(-45.61)"/><polygon class="cls-29" points="2864.7 4924.1 2509.58 5286.81 -816.49 5286.81 -816.49 1990.96 -481.05 1648.36 2864.7 4924.1"/></g><path class="cls-28" d="M1555.31,5008.98c-46.75,0-94.13-1.6-140.82-4.76-8.27-.56-14.51-7.71-13.95-15.98,.56-8.26,7.72-14.52,15.98-13.95,46.02,3.11,92.71,4.69,138.79,4.69,118.98,0,238.64-10.46,355.65-31.09,8.16-1.44,15.94,4.01,17.38,12.17s-4.01,15.94-12.17,17.38c-118.72,20.93-240.13,31.55-360.86,31.55Zm-191.66-8.89c-.46,0-.93-.02-1.4-.07-33.28-3.09-66.94-7.04-100.06-11.73-8.2-1.16-13.91-8.75-12.75-16.96,1.16-8.2,8.75-13.91,16.96-12.75,32.64,4.62,65.82,8.51,98.62,11.56,8.25,.77,14.32,8.07,13.55,16.32-.72,7.78-7.26,13.61-14.92,13.61Zm-392.32-74.89c-1.39,0-2.81-.2-4.22-.61-161.23-47.15-316.61-113.6-461.84-197.53-7.17-4.15-9.63-13.32-5.48-20.49,4.15-7.17,13.32-9.63,20.49-5.48,143.15,82.73,296.32,148.23,455.25,194.71,7.95,2.33,12.51,10.66,10.19,18.61-1.91,6.54-7.9,10.79-14.39,10.79Zm1419.43-92.77c-5.76,0-11.26-3.34-13.73-8.95-3.34-7.58,.09-16.43,7.67-19.78,27.94-12.33,56.04-25.47,83.5-39.06,61.39-30.38,121.81-64.06,179.57-100.12,7.03-4.39,16.28-2.25,20.67,4.78,4.39,7.03,2.25,16.28-4.78,20.67-58.6,36.58-119.88,70.75-182.15,101.56-27.85,13.78-56.35,27.11-84.7,39.62-1.97,.87-4.03,1.28-6.05,1.28Zm348.47-195.14c-4.75,0-9.43-2.25-12.34-6.46-4.72-6.81-3.03-16.15,3.78-20.87,14.07-9.75,28.22-19.83,42.05-29.93,6.69-4.89,16.07-3.43,20.96,3.26,4.89,6.69,3.43,16.07-3.26,20.96-14.03,10.25-28.38,20.47-42.66,30.37-2.61,1.81-5.58,2.67-8.53,2.67ZM114.2,4429.5c-3.74,0-7.48-1.39-10.39-4.18-12.49-12-25.01-24.34-37.21-36.67-5.83-5.89-5.78-15.39,.11-21.21,5.89-5.83,15.39-5.78,21.21,.11,12.02,12.15,24.36,24.31,36.67,36.14,5.97,5.74,6.16,15.24,.42,21.21-2.94,3.06-6.88,4.61-10.82,4.61Zm-105.42-109.05c-4.11,0-8.2-1.68-11.17-4.98-67-74.61-129.19-154.9-184.85-238.64-4.59-6.9-2.71-16.21,4.19-20.8,6.9-4.58,16.21-2.71,20.8,4.19,54.86,82.54,116.15,161.67,182.18,235.21,5.54,6.16,5.03,15.65-1.14,21.18-2.86,2.57-6.45,3.84-10.02,3.84Zm3136.87-54.11c-3.4,0-6.81-1.15-9.62-3.5-6.35-5.32-7.19-14.78-1.87-21.13,106.05-126.61,196.85-266.24,269.89-415,3.65-7.44,12.64-10.51,20.08-6.85,7.44,3.65,10.5,12.64,6.85,20.08-74.1,150.93-166.23,292.58-273.82,421.04-2.97,3.54-7.22,5.37-11.51,5.37ZM-399.49,3638.24c-6.13,0-11.89-3.79-14.1-9.88-57.41-158.07-95.54-322.75-113.33-489.46-.88-8.24,5.09-15.63,13.32-16.51,8.24-.88,15.63,5.09,16.51,13.32,17.54,164.3,55.12,326.6,111.7,482.4,2.83,7.79-1.19,16.39-8.98,19.22-1.69,.61-3.42,.91-5.12,.91Zm3929.44-67.73c-1.53,0-3.08-.24-4.62-.73-7.88-2.55-12.21-11.01-9.66-18.89,10.14-31.34,19.65-63.36,28.28-95.16,2.17-7.99,10.41-12.72,18.4-10.55,8,2.17,12.72,10.41,10.55,18.4-8.75,32.26-18.4,64.74-28.69,96.53-2.05,6.35-7.94,10.39-14.27,10.39Zm41.48-146.2c-1.18,0-2.38-.14-3.58-.43-8.05-1.97-12.97-10.09-11-18.14,39.33-160.71,59.27-325.81,59.27-490.73v-.89c0-8.28,6.71-15,15-15s15,6.72,15,15v.84c0,167.37-20.23,334.87-60.13,497.91-1.68,6.85-7.81,11.44-14.56,11.44Zm-4088.32-323.78c-7.73,0-14.3-5.94-14.93-13.79-2.71-33.31-4.63-67.15-5.73-100.57-.27-8.28,6.22-15.21,14.5-15.48,8.3-.27,15.21,6.22,15.48,14.5,1.08,32.94,2.98,66.28,5.64,99.11,.67,8.26-5.48,15.49-13.74,16.17-.41,.03-.82,.05-1.23,.05Zm6.27-399.37c-.56,0-1.13-.03-1.7-.1-8.23-.93-14.15-8.35-13.23-16.58,18.76-166.67,57.62-331.16,115.51-488.89,2.85-7.78,11.47-11.77,19.25-8.91,7.78,2.85,11.77,11.47,8.91,19.25-57.06,155.48-95.36,317.62-113.86,481.91-.86,7.66-7.35,13.32-14.89,13.32Zm4081.25-267.13c-6.73,0-12.86-4.57-14.55-11.4-23.75-95.86-54.79-191.04-92.26-282.9-3.13-7.67,.55-16.43,8.22-19.55,7.67-3.13,16.43,.55,19.55,8.22,38.02,93.2,69.51,189.76,93.6,287.02,1.99,8.04-2.91,16.17-10.95,18.17-1.21,.3-2.42,.44-3.62,.44Zm-132.89-376.65c-5.66,0-11.07-3.22-13.61-8.68-7.21-15.52-14.72-31.19-22.34-46.57-71.55-144.59-159.54-280.28-261.55-403.3-5.29-6.38-4.4-15.83,1.97-21.12s15.83-4.4,21.12,1.97c103.49,124.81,192.76,262.47,265.34,409.14,7.72,15.61,15.34,31.5,22.66,47.24,3.49,7.51,.23,16.43-7.28,19.92-2.04,.95-4.19,1.4-6.31,1.4ZM-169.44,1771.48c-2.88,0-5.78-.83-8.35-2.55-6.88-4.62-8.71-13.94-4.08-20.82,9.68-14.41,19.67-28.89,29.71-43.04,4.79-6.76,14.15-8.35,20.91-3.56,6.76,4.79,8.35,14.15,3.56,20.91-9.89,13.95-19.74,28.22-29.28,42.42-2.9,4.31-7.64,6.64-12.46,6.64Zm89.22-122.82c-3.24,0-6.5-1.04-9.25-3.2-6.52-5.11-7.66-14.54-2.55-21.06,61.99-79.06,130.28-154.22,202.98-223.39,6-5.71,15.5-5.47,21.21,.53,5.71,6,5.47,15.5-.53,21.21-71.65,68.17-138.96,142.24-200.05,220.16-2.96,3.77-7.36,5.75-11.81,5.75Zm2869.73-386.9c-3.1,0-6.22-.96-8.9-2.94-79.52-58.75-164.11-112.26-251.44-159.05-7.3-3.91-10.05-13-6.14-20.31,3.91-7.3,13.01-10.05,20.31-6.14,88.59,47.47,174.42,101.76,255.09,161.36,6.66,4.92,8.07,14.32,3.15,20.98-2.94,3.98-7.48,6.09-12.08,6.09Zm-2268.03-132.5c-5.21,0-10.27-2.71-13.04-7.56-4.11-7.19-1.61-16.36,5.58-20.47,36.48-20.85,74.14-40.9,111.95-59.61,112.79-55.81,230.78-101.63,350.7-136.19,7.96-2.29,16.27,2.3,18.57,10.26,2.29,7.96-2.3,16.27-10.26,18.57-118.19,34.06-234.5,79.23-345.7,134.25-37.27,18.44-74.41,38.22-110.37,58.77-2.35,1.34-4.91,1.98-7.43,1.98Zm1925.56-72.78c-2.16,0-4.35-.47-6.43-1.46-15.46-7.35-31.23-14.61-46.87-21.58-7.57-3.37-10.97-12.24-7.6-19.81,3.37-7.57,12.24-10.97,19.8-7.6,15.87,7.07,31.86,14.43,47.54,21.89,7.48,3.56,10.66,12.51,7.1,19.99-2.57,5.4-7.95,8.56-13.56,8.56Zm-1416.07-135.4c-6.66,0-12.74-4.47-14.5-11.21-2.09-8.02,2.71-16.21,10.72-18.3,32.36-8.45,65.35-16.21,98.06-23.08,8.1-1.7,16.06,3.49,17.76,11.6,1.7,8.11-3.49,16.06-11.6,17.76-32.24,6.77-64.75,14.42-96.64,22.75-1.27,.33-2.55,.49-3.8,.49Zm892.33-33.43c-.89,0-1.79-.08-2.7-.24-121.41-22.05-245.37-33.23-368.44-33.23-41.82,0-84.16,1.3-125.87,3.86-8.26,.51-15.38-5.78-15.89-14.05-.51-8.27,5.78-15.38,14.05-15.89,42.31-2.6,85.28-3.92,127.71-3.92,124.87,0,250.63,11.34,373.8,33.71,8.15,1.48,13.56,9.29,12.08,17.44-1.32,7.24-7.63,12.32-14.74,12.32Z"/></g><g><circle class="cls-4" cx="1553.73" cy="2916.58" r="1965.97"/><path class="cls-224" d="M1470.28,4896.29c-.22,0-.43,0-.65-.01-167.6-7.18-334.2-35.85-495.16-85.2-7.92-2.43-12.37-10.82-9.94-18.74,2.43-7.92,10.82-12.38,18.74-9.94,158.52,48.6,322.59,76.83,487.65,83.91,8.28,.35,14.7,7.35,14.34,15.63-.35,8.06-6.99,14.36-14.98,14.36Zm496.9-42.47c-6.91,0-13.12-4.8-14.65-11.83-1.75-8.1,3.39-16.08,11.49-17.83,85.76-18.56,171.38-43.24,254.49-73.36,10.21-3.7,20.51-7.53,30.64-11.39,7.74-2.95,16.41,.93,19.36,8.67s-.93,16.41-8.67,19.36c-10.28,3.92-20.74,7.81-31.1,11.56-84.36,30.58-171.29,55.63-258.36,74.48-1.07,.23-2.14,.34-3.19,.34Zm-1037.84-57.98c-1.58,0-3.19-.25-4.78-.78-31.69-10.64-63.55-22.24-94.68-34.47-7.71-3.03-11.5-11.74-8.47-19.45,3.03-7.71,11.74-11.5,19.45-8.47,30.66,12.05,62.03,23.47,93.25,33.95,7.85,2.64,12.08,11.14,9.45,18.99-2.1,6.27-7.95,10.23-14.22,10.23Zm1417.66-65.35c-5.77,0-11.27-3.35-13.74-8.97-3.33-7.58,.11-16.43,7.69-19.77,15.67-6.89,31.47-14.09,46.95-21.39,7.49-3.53,16.43-.32,19.96,7.17,3.53,7.49,.32,16.43-7.17,19.96-15.72,7.41-31.75,14.72-47.67,21.71-1.96,.86-4.01,1.27-6.03,1.27Zm-1781.45-99.29c-2.56,0-5.15-.65-7.52-2.03-145.53-84.51-279.77-187.18-398.99-305.16-5.89-5.83-5.94-15.32-.11-21.21,5.83-5.89,15.32-5.94,21.21-.11,117.41,116.19,249.62,217.3,392.95,300.54,7.16,4.16,9.6,13.34,5.44,20.5-2.78,4.79-7.81,7.47-12.99,7.47Zm2249-190.49c-4.29,0-8.55-1.83-11.52-5.38-5.31-6.36-4.46-15.82,1.89-21.13,126.74-105.9,239.82-228.01,336.08-362.92,4.81-6.74,14.18-8.31,20.92-3.5,6.74,4.81,8.31,14.18,3.5,20.92-97.75,136.99-212.57,260.98-341.27,368.52-2.81,2.34-6.22,3.49-9.61,3.49ZM-137.1,3935.32c-5.13,0-10.12-2.63-12.92-7.36-8.86-14.96-17.64-30.25-26.09-45.43-4.03-7.24-1.43-16.37,5.81-20.4,7.24-4.03,16.37-1.43,20.4,5.81,8.33,14.95,16.97,30.01,25.69,44.74,4.22,7.13,1.86,16.33-5.26,20.55-2.4,1.42-5.03,2.1-7.63,2.1Zm3445.34-116.77c-2.28,0-4.58-.52-6.75-1.62-7.39-3.74-10.36-12.76-6.62-20.15,14.85-29.39,29.15-59.56,42.49-89.66,3.36-7.57,12.22-10.99,19.79-7.63,7.57,3.36,10.99,12.22,7.63,19.79-13.55,30.56-28.06,61.18-43.14,91.03-2.64,5.22-7.92,8.24-13.4,8.24Zm-3517.63-16.86c-5.54,0-10.86-3.08-13.47-8.38-32.06-65.16-60.93-133.03-85.83-201.72-9.38-25.89-18.34-52.3-26.64-78.49-2.5-7.9,1.88-16.33,9.77-18.83,7.9-2.5,16.33,1.87,18.83,9.77,8.17,25.8,17,51.82,26.24,77.32,24.53,67.67,52.97,134.52,84.54,198.7,3.66,7.43,.6,16.42-6.84,20.08-2.13,1.05-4.39,1.54-6.61,1.54Zm3580.9-121.28c-1.91,0-3.84-.37-5.71-1.14-7.66-3.16-11.31-11.93-8.15-19.59,63.18-153.24,106.68-313.94,129.3-477.63,1.13-8.21,8.7-13.94,16.91-12.81,8.21,1.13,13.94,8.71,12.8,16.91-22.97,166.21-67.14,329.37-131.28,484.96-2.39,5.79-7.98,9.29-13.87,9.29ZM-410.15,3032.94c-7.93,0-14.55-6.21-14.97-14.22-1.76-33.83-2.65-68.15-2.65-102.01,0-133.59,13.74-267.84,40.83-399.01,1.68-8.11,9.61-13.33,17.72-11.66,8.11,1.68,13.33,9.61,11.66,17.72-26.68,129.18-40.21,261.39-40.21,392.94,0,33.35,.88,67.14,2.61,100.45,.43,8.27-5.93,15.33-14.2,15.76-.26,.01-.53,.02-.79,.02Zm3916.65-332.47c-7.49,0-13.97-5.6-14.88-13.23-11.69-98.04-31.1-196.2-57.7-291.76-2.22-7.98,2.45-16.25,10.43-18.47,7.98-2.22,16.25,2.45,18.47,10.43,27,97.03,46.72,196.7,58.59,296.26,.98,8.23-4.89,15.69-13.12,16.67-.6,.07-1.2,.11-1.79,.11Zm-3867.53-215.55c-1.13,0-2.28-.13-3.43-.4-8.07-1.89-13.07-9.96-11.18-18.03,7.63-32.55,16.2-65.36,25.47-97.51,2.3-7.96,10.61-12.55,18.57-10.25,7.96,2.3,12.55,10.61,10.25,18.57-9.13,31.66-17.57,63.97-25.08,96.03-1.62,6.91-7.78,11.58-14.59,11.58Zm3780.18-174.09c-6.28,0-12.13-3.98-14.23-10.26-5.41-16.24-11.12-32.64-16.96-48.76-2.82-7.79,1.2-16.39,8.99-19.21,7.78-2.82,16.39,1.2,19.21,8.99,5.93,16.36,11.72,33.01,17.22,49.49,2.62,7.86-1.63,16.35-9.49,18.97-1.57,.52-3.17,.77-4.75,.77ZM-231.11,2107.34c-2.11,0-4.24-.45-6.28-1.39-7.52-3.47-10.8-12.39-7.33-19.91,70.52-152.7,160.18-295.97,266.48-425.84,5.25-6.41,14.7-7.35,21.11-2.11,6.41,5.25,7.35,14.7,2.11,21.11-104.69,127.9-192.99,269.01-262.45,419.41-2.53,5.48-7.96,8.71-13.63,8.71Zm3515.95-108.14c-5.35,0-10.52-2.87-13.23-7.91-46.86-87.26-100.8-171.52-160.32-250.42-4.99-6.61-3.67-16.02,2.94-21.01,6.62-4.99,16.02-3.67,21.01,2.94,60.44,80.13,115.21,165.68,162.8,254.3,3.92,7.3,1.18,16.39-6.12,20.31-2.26,1.21-4.69,1.79-7.08,1.79Zm-223.7-330.49c-4.28,0-8.54-1.83-11.5-5.37-10.96-13.08-22.25-26.2-33.57-39-5.49-6.21-4.91-15.69,1.3-21.17,6.21-5.49,15.68-4.9,21.17,1.3,11.49,13,22.96,26.32,34.09,39.6,5.32,6.35,4.49,15.81-1.86,21.13-2.81,2.35-6.23,3.5-9.63,3.5ZM395.58,1342.34c-4.63,0-9.2-2.14-12.14-6.17-4.88-6.7-3.4-16.08,3.3-20.96,14.05-10.23,28.44-20.41,42.76-30.27,6.82-4.7,16.16-2.97,20.86,3.86,4.7,6.82,2.97,16.16-3.85,20.86-14.11,9.71-28.27,19.73-42.11,29.81-2.66,1.94-5.75,2.87-8.82,2.87Zm2256.69-41.32c-2.88,0-5.79-.83-8.36-2.55-137.28-92.33-286.03-167.06-442.13-222.14-7.81-2.76-11.91-11.32-9.15-19.14,2.76-7.81,11.32-11.91,19.14-9.15,158.49,55.92,309.52,131.8,448.89,225.53,6.87,4.62,8.7,13.94,4.08,20.82-2.9,4.31-7.63,6.63-12.46,6.63Zm-2130.47-43.25c-5.04,0-9.96-2.54-12.79-7.14-4.34-7.06-2.14-16.3,4.92-20.64,85.33-52.49,175.66-98.95,268.49-138.1,7.64-3.22,16.43,.36,19.65,7.99,3.22,7.63-.36,16.43-7.99,19.65-91.42,38.56-180.39,84.31-264.43,136.01-2.45,1.51-5.16,2.23-7.84,2.23Zm1395.62-258.54c-.92,0-1.86-.09-2.8-.26-32.39-6.13-65.35-11.5-97.99-15.96-8.21-1.12-13.95-8.69-12.83-16.9,1.12-8.21,8.69-13.95,16.89-12.83,33.14,4.53,66.61,9.99,99.5,16.21,8.14,1.54,13.49,9.39,11.95,17.53-1.36,7.2-7.66,12.21-14.72,12.21Zm-649.06-13.19c-7.31,0-13.72-5.36-14.82-12.81-1.21-8.2,4.45-15.82,12.65-17.03,94.87-14.02,191.57-21.12,287.42-21.12,71.51,0,143.86,3.96,215.02,11.78,8.24,.9,14.18,8.31,13.27,16.55-.9,8.23-8.3,14.18-16.55,13.27-70.08-7.7-141.33-11.6-211.75-11.6-94.38,0-189.6,7-283.03,20.8-.74,.11-1.48,.16-2.21,.16Z"/></g><path class="cls-222" d="M1555.04,4939.41c-115.36,0-231.64-10-345.59-29.73-8.16-1.41-13.63-9.18-12.22-17.34,1.41-8.16,9.17-13.64,17.34-12.22,112.27,19.44,226.82,29.29,340.48,29.29,51.18,0,102.98-2.01,153.96-5.97,8.27-.65,15.48,5.53,16.12,13.79,.64,8.26-5.53,15.48-13.79,16.12-51.76,4.02-104.34,6.06-156.29,6.06Zm-394.17-39.04c-.97,0-1.96-.1-2.95-.29-32.78-6.55-65.85-14.01-98.28-22.18-8.03-2.02-12.91-10.17-10.88-18.21,2.02-8.03,10.18-12.91,18.21-10.88,31.95,8.05,64.53,15.4,96.83,21.85,8.12,1.62,13.39,9.52,11.77,17.65-1.42,7.13-7.69,12.06-14.69,12.06Zm1037.81-67.28c-6.25,0-12.08-3.94-14.2-10.19-2.66-7.85,1.54-16.36,9.39-19.02,59.35-20.13,118.62-43.37,176.16-69.1,32.93-14.72,65.85-30.5,97.84-46.91,7.37-3.78,16.41-.87,20.19,6.5s.87,16.41-6.5,20.19c-32.46,16.65-65.87,32.66-99.28,47.6-58.39,26.1-118.54,49.7-178.77,70.12-1.6,.54-3.22,.8-4.82,.8Zm-1419.81-49.21c-1.92,0-3.88-.37-5.76-1.16-155.24-64.66-302.05-148.37-436.36-248.81-6.63-4.96-7.99-14.36-3.03-21,4.96-6.63,14.36-7.99,21-3.03,132.33,98.95,276.98,181.43,429.93,245.14,7.65,3.19,11.26,11.97,8.08,19.61-2.4,5.76-7.98,9.24-13.85,9.24Zm1783.65-115.45c-5.19,0-10.23-2.69-13.01-7.51-4.14-7.18-1.68-16.35,5.5-20.49,14.83-8.55,29.76-17.42,44.37-26.35,7.07-4.32,16.3-2.1,20.62,4.97,4.32,7.07,2.1,16.3-4.97,20.62-14.83,9.07-29.98,18.07-45.03,26.75-2.36,1.36-4.94,2.01-7.48,2.01Zm434.42-337.56c-3.77,0-7.55-1.41-10.47-4.26-5.93-5.78-6.06-15.28-.28-21.21,115.24-118.3,215.71-251.05,298.59-394.58,4.14-7.17,13.32-9.63,20.49-5.49,7.17,4.14,9.63,13.32,5.49,20.49-84.13,145.68-186.1,280.43-303.08,400.51-2.94,3.02-6.84,4.53-10.75,4.53ZM-13.25,4191.08c-4.38,0-8.72-1.91-11.68-5.58-10.91-13.52-21.8-27.37-32.37-41.18-5.03-6.58-3.78-15.99,2.8-21.03,6.58-5.03,15.99-3.78,21.03,2.8,10.41,13.6,21.14,27.25,31.89,40.57,5.2,6.45,4.2,15.89-2.25,21.09-2.77,2.24-6.1,3.33-9.41,3.33Zm-90.88-121.76c-4.77,0-9.46-2.27-12.37-6.49-56.8-82.45-108.05-170.15-152.31-260.64-3.64-7.44-.56-16.43,6.88-20.07,7.44-3.64,16.43-.56,20.07,6.88,43.61,89.17,94.1,175.57,150.07,256.8,4.7,6.82,2.98,16.16-3.84,20.86-2.6,1.79-5.56,2.65-8.5,2.65Zm3532.16-405.88c-1.83,0-3.69-.34-5.5-1.05-7.71-3.04-11.49-11.75-8.45-19.46,12.08-30.64,23.56-61.99,34.12-93.19,2.65-7.85,11.17-12.06,19.02-9.4,7.85,2.66,12.06,11.17,9.4,19.02-10.72,31.67-22.37,63.49-34.63,94.58-2.33,5.9-7.98,9.5-13.96,9.5Zm50.42-143.36c-1.47,0-2.97-.22-4.45-.68-7.91-2.45-12.34-10.86-9.89-18.77,49.08-158.32,78.4-322.26,87.13-487.26,.44-8.27,7.53-14.63,15.77-14.19,8.27,.44,14.62,7.5,14.19,15.77-8.87,167.48-38.62,333.87-88.44,494.55-1.99,6.43-7.92,10.56-14.32,10.56Zm-3896.46-180.93c-6.94,0-13.17-4.84-14.66-11.9-28.92-136.77-43.58-277.02-43.58-416.85,0-27.85,.59-56.08,1.74-83.91,.34-8.28,7.35-14.71,15.61-14.36,8.28,.34,14.71,7.33,14.36,15.61-1.14,27.42-1.72,55.23-1.72,82.67,0,137.75,14.44,275.91,42.93,410.64,1.71,8.1-3.47,16.06-11.57,17.78-1.05,.22-2.09,.33-3.12,.33Zm-38.66-549.03c-.34,0-.68-.01-1.03-.03-8.27-.56-14.51-7.71-13.95-15.98,2.25-33.36,5.38-67.12,9.29-100.35,.97-8.23,8.42-14.11,16.65-13.14,8.23,.97,14.11,8.42,13.14,16.65-3.85,32.74-6.94,66-9.16,98.87-.54,7.92-7.13,13.99-14.95,13.99Zm3987.02-258.41c-7.01,0-13.27-4.93-14.69-12.07-19.32-96.84-46.18-193.26-79.83-286.59-2.81-7.79,1.23-16.39,9.02-19.2,7.8-2.81,16.39,1.23,19.2,9.02,34.15,94.73,61.41,192.6,81.03,290.9,1.62,8.12-3.65,16.02-11.77,17.65-.99,.2-1.98,.29-2.95,.29Zm-3920.74-135.42c-1.3,0-2.63-.17-3.95-.53-7.99-2.18-12.71-10.42-10.53-18.41,44.12-162.09,108.23-318.47,190.57-464.8,4.06-7.22,13.21-9.78,20.43-5.72,7.22,4.06,9.78,13.21,5.72,20.43-81.12,144.18-144.3,298.26-187.76,457.97-1.82,6.67-7.86,11.06-14.46,11.06Zm3804.12-246.54c-5.87,0-11.45-3.47-13.85-9.23-6.58-15.78-13.47-31.72-20.47-47.39-12.63-28.25-26.06-56.55-39.93-84.1-3.72-7.4-.74-16.42,6.66-20.14,7.4-3.72,16.42-.74,20.14,6.66,14.07,27.96,27.7,56.68,40.52,85.34,7.11,15.9,14.1,32.08,20.77,48.09,3.19,7.65-.43,16.43-8.07,19.62-1.89,.79-3.84,1.16-5.77,1.16Zm-338.27-546.78c-4.2,0-8.37-1.75-11.34-5.17-64.81-74.69-135.86-145.13-211.19-209.38-6.3-5.38-7.05-14.84-1.68-21.15,5.38-6.3,14.84-7.05,21.15-1.68,76.46,65.22,148.59,136.73,214.38,212.55,5.43,6.26,4.76,15.73-1.5,21.16-2.84,2.46-6.34,3.67-9.82,3.67ZM95.1,1533.99c-3.72,0-7.44-1.37-10.34-4.14-6-5.71-6.23-15.21-.52-21.21,11.96-12.56,24.25-25.13,36.53-37.38,5.87-5.85,15.36-5.84,21.21,.03,5.85,5.87,5.83,15.36-.03,21.21-12.1,12.06-24.2,24.45-35.99,36.82-2.95,3.1-6.9,4.66-10.86,4.66Zm108.72-105.81c-4.1,0-8.18-1.67-11.14-4.95-5.55-6.15-5.06-15.64,1.09-21.19,74.53-67.23,154.84-129.42,238.7-184.86,6.91-4.57,16.22-2.67,20.78,4.24,4.57,6.91,2.67,16.22-4.24,20.78-82.62,54.61-161.74,115.88-235.15,182.11-2.87,2.59-6.46,3.86-10.04,3.86Zm2581.24-99.09c-3.2,0-6.42-1.02-9.14-3.12-13.54-10.43-27.41-20.83-41.23-30.92-6.69-4.88-8.16-14.27-3.27-20.96,4.88-6.69,14.27-8.15,20.96-3.27,14.02,10.24,28.1,20.8,41.84,31.39,6.56,5.06,7.78,14.47,2.73,21.04-2.96,3.83-7.4,5.85-11.89,5.85Zm-477.46-273.17c-1.87,0-3.77-.35-5.61-1.09-153.63-61.95-314.58-104.75-478.36-127.21-8.21-1.13-13.95-8.69-12.82-16.9,1.13-8.21,8.69-13.95,16.9-12.82,166.24,22.79,329.58,66.23,485.51,129.11,7.68,3.1,11.4,11.84,8.3,19.52-2.36,5.84-7.98,9.39-13.92,9.39Zm-1420.18-32.97c-6.19,0-11.98-3.86-14.15-10.03-2.75-7.81,1.36-16.38,9.17-19.13,158.83-55.88,324.02-91.77,490.98-106.68,8.25-.74,15.54,5.35,16.27,13.61,.74,8.25-5.35,15.54-13.61,16.27-164.48,14.69-327.21,50.05-483.7,105.1-1.65,.58-3.33,.85-4.98,.85Zm539.17-109.85c-7.85,0-14.45-6.11-14.96-14.06-.52-8.27,5.76-15.39,14.02-15.92,33.36-2.11,67.23-3.4,100.67-3.84,8.26-.13,15.09,6.52,15.2,14.8,.11,8.28-6.52,15.09-14.8,15.2-32.94,.43-66.31,1.7-99.17,3.78-.32,.02-.64,.03-.96,.03Z"/><g><circle cx="1544.47" cy="2912.69" r="1788.99"/><path class="cls-3" d="M2116.39,1217.58c936.18,315.86,1439.05,1330.85,1123.19,2267.03C2391.65,5703.02-820.12,4618.67-150.64,2340.75,165.22,1404.58,1180.21,901.71,2116.39,1217.58h0Z"/></g><path class="cls-223" d="M1357.39,4638.66c-.58,0-1.16-.03-1.74-.1-167.44-19.37-330.84-62.81-485.66-129.11-7.62-3.26-11.15-12.08-7.88-19.69,3.26-7.61,12.08-11.15,19.69-7.88,152.16,65.16,312.75,107.85,477.3,126.88,8.23,.95,14.13,8.4,13.18,16.62-.88,7.64-7.37,13.28-14.88,13.28Zm497.96-15.03c-7.13,0-13.46-5.11-14.75-12.37-1.45-8.16,3.98-15.94,12.14-17.4,97.37-17.32,193.82-43.4,286.68-77.51,7.78-2.86,16.4,1.13,19.25,8.91,2.86,7.78-1.13,16.4-8.91,19.25-94.51,34.71-192.67,61.25-291.76,78.88-.89,.16-1.77,.23-2.64,.23Zm382.08-115.4c-5.79,0-11.3-3.37-13.76-9.02-3.31-7.6,.17-16.43,7.77-19.74,15.69-6.83,31.49-13.99,46.96-21.29,7.49-3.53,16.43-.32,19.96,7.17s.33,16.43-7.17,19.97c-15.74,7.42-31.82,14.71-47.79,21.66-1.95,.85-3.98,1.25-5.98,1.25Zm-1409.01-18.74c-2.12,0-4.26-.45-6.31-1.4-30.37-14.1-60.71-29.28-90.18-45.12-7.3-3.92-10.04-13.01-6.12-20.31,3.92-7.3,13.02-10.04,20.31-6.12,28.96,15.56,58.78,30.48,88.62,44.34,7.51,3.49,10.78,12.41,7.29,19.92-2.54,5.47-7.96,8.69-13.61,8.69Zm-339.85-209.02c-3.25,0-6.53-1.05-9.29-3.23-131.86-104.12-247.86-227.12-344.77-365.58-4.75-6.79-3.1-16.14,3.69-20.89,6.79-4.75,16.14-3.1,20.89,3.69,95.23,136.07,209.22,256.94,338.79,359.24,6.5,5.13,7.61,14.57,2.48,21.07-2.96,3.75-7.35,5.71-11.78,5.71Zm2211.73-68.74c-4.12,0-8.23-1.69-11.19-5.01-5.52-6.18-4.99-15.66,1.19-21.18,123.47-110.32,229.88-237.91,316.26-379.2,4.32-7.07,13.55-9.29,20.62-4.97,7.07,4.32,9.29,13.55,4.97,20.62-87.91,143.8-196.21,273.65-321.87,385.93-2.86,2.56-6.43,3.81-9.99,3.81Zm452.4-650.8c-1.82,0-3.68-.33-5.48-1.04-7.71-3.03-11.51-11.73-8.48-19.45,12.02-30.61,23.3-61.99,33.54-93.26,2.58-7.87,11.05-12.17,18.92-9.59s12.17,11.05,9.59,18.92c-10.41,31.82-21.89,63.75-34.12,94.9-2.32,5.91-7.98,9.52-13.97,9.52ZM-77.39,3473.09c-6.28,0-12.14-3.98-14.23-10.27-5.5-16.53-10.82-33.36-15.81-50.03-2.38-7.94,2.13-16.3,10.07-18.67,7.93-2.38,16.3,2.13,18.67,10.07,4.9,16.38,10.13,32.92,15.54,49.16,2.62,7.86-1.63,16.35-9.49,18.97-1.57,.52-3.17,.77-4.74,.77Zm3279.36-55.88c-1.4,0-2.83-.2-4.24-.61-7.95-2.34-12.49-10.68-10.16-18.62,46.22-157.08,69.65-319.59,69.65-483.02,0-1.98,0-3.96-.01-5.94-.03-8.28,6.66-15.02,14.95-15.05h.05c8.26,0,14.97,6.68,15,14.95,0,2.01,.01,4.03,.01,6.04,0,166.3-23.84,331.66-70.87,491.49-1.92,6.53-7.9,10.77-14.38,10.77ZM-118.93,3326.89c-6.8,0-12.95-4.65-14.58-11.55-23.14-97.87-37.76-198.5-43.47-299.1-.47-8.27,5.86-15.36,14.13-15.82,8.26-.47,15.36,5.86,15.82,14.13,5.6,98.85,19.97,197.73,42.71,293.89,1.91,8.06-3.08,16.14-11.15,18.05-1.16,.27-2.32,.41-3.46,.41Zm1.02-792.77c-1.15,0-2.32-.13-3.48-.41-8.06-1.92-13.04-10-11.12-18.06,39.03-164.17,101.46-321.29,185.56-466.99,4.14-7.18,13.31-9.63,20.49-5.49,7.17,4.14,9.63,13.32,5.49,20.49-82.65,143.18-144,297.59-182.35,458.93-1.64,6.89-7.79,11.53-14.58,11.53Zm3315.91-102.8c-6.43,0-12.37-4.16-14.34-10.63-28.79-94.41-66.19-187.06-111.18-275.39-3.76-7.38-.82-16.41,6.56-20.17,7.38-3.76,16.41-.82,20.17,6.56,45.78,89.89,83.85,184.18,113.14,280.25,2.42,7.92-2.05,16.31-9.97,18.72-1.46,.44-2.93,.66-4.38,.66Zm-160.09-365.61c-5.16,0-10.18-2.66-12.97-7.44-8.62-14.75-17.59-29.61-26.68-44.15-31.97-51.18-66.91-101.08-103.84-148.32-5.1-6.53-3.95-15.95,2.58-21.06s15.95-3.95,21.06,2.58c37.57,48.06,73.12,98.83,105.65,150.9,9.24,14.79,18.37,29.9,27.14,44.91,4.18,7.15,1.77,16.34-5.39,20.52-2.38,1.39-4.98,2.05-7.55,2.05ZM92.65,2026.58c-2.69,0-5.42-.72-7.88-2.24-7.05-4.36-9.23-13.6-4.87-20.65,17.61-28.48,36.29-56.8,55.52-84.18,4.76-6.78,14.12-8.41,20.9-3.65,6.78,4.76,8.42,14.12,3.65,20.9-18.9,26.9-37.25,54.73-54.55,82.71-2.84,4.59-7.75,7.11-12.77,7.11Zm248.03-312.46c-3.85,0-7.7-1.47-10.64-4.42-5.84-5.87-5.82-15.37,.06-21.21,91.78-91.28,194.48-172.65,305.27-241.87,32.16-20.09,65.33-39.35,98.58-57.24,7.3-3.92,16.39-1.19,20.32,6.1,3.93,7.3,1.19,16.39-6.1,20.32-32.69,17.59-65.29,36.52-96.9,56.27-108.89,68.03-209.83,148-300.01,237.7-2.93,2.91-6.75,4.36-10.58,4.36Zm2361.13-61.54c-3.57,0-7.16-1.27-10.02-3.84-24.45-21.97-49.89-43.51-75.6-64.02-6.48-5.17-7.54-14.6-2.37-21.08,5.17-6.48,14.6-7.54,21.08-2.37,26.16,20.87,52.05,42.79,76.94,65.16,6.16,5.54,6.67,15.02,1.13,21.18-2.96,3.3-7.05,4.97-11.16,4.97Zm-117.34-96.33c-3.13,0-6.28-.98-8.98-3-132.25-99.07-278.28-178.27-434.04-235.4-7.78-2.85-11.77-11.47-8.92-19.25,2.85-7.78,11.47-11.77,19.25-8.92,158.5,58.14,307.11,138.74,441.69,239.56,6.63,4.97,7.98,14.37,3.01,21-2.95,3.93-7.45,6.01-12.02,6.01Zm-1375.07-308.55c-6.98,0-13.23-4.9-14.68-12-1.66-8.12,3.58-16.04,11.69-17.7,17.06-3.48,34.4-6.75,51.56-9.72,8.16-1.41,15.92,4.06,17.33,12.23,1.41,8.16-4.06,15.92-12.23,17.33-16.86,2.91-33.9,6.12-50.66,9.55-1.01,.21-2.02,.31-3.02,.31Zm150.1-23.77c-7.53,0-14.02-5.66-14.89-13.32-.93-8.23,4.99-15.66,13.22-16.59,64.19-7.26,129.55-10.93,194.26-10.93,35.81,0,72.1,1.13,107.87,3.35,8.27,.52,14.55,7.64,14.04,15.9-.51,8.27-7.62,14.56-15.9,14.04-35.15-2.19-70.82-3.3-106.01-3.3-63.59,0-127.81,3.61-190.89,10.74-.57,.06-1.14,.1-1.7,.1Z"/><path class="cls-226" d="M1553.93,5122.07c-80.02,0-160.92-4.4-240.44-13.07-21.96-2.39-37.82-22.14-35.43-44.1,2.39-21.96,22.14-37.82,44.1-35.43,76.65,8.36,154.63,12.6,231.77,12.6,85.92,0,172.71-5.25,257.94-15.62,21.91-2.66,41.87,12.95,44.53,34.88,2.67,21.93-12.95,41.87-34.88,44.54-88.42,10.75-178.45,16.2-267.59,16.2Zm557.09-72.53c-17.7,0-33.88-11.84-38.64-29.75-5.67-21.35,7.05-43.26,28.41-48.92,31.49-8.35,63.2-17.56,94.25-27.35,9.31-2.94,18.89-2.29,27.26,1.16,4.69-7.74,12.02-13.95,21.25-17.11,154.77-52.97,303.38-124.02,441.7-211.18,18.69-11.78,43.39-6.17,55.17,12.52s6.17,43.39-12.52,55.17c-143.57,90.47-297.81,164.21-458.45,219.19-9.56,3.27-19.51,2.71-28.18-.86-4.85,8.02-12.53,14.37-22.17,17.41-32.22,10.17-65.13,19.72-97.8,28.39-3.44,.91-6.89,1.35-10.28,1.35Zm-1279.6-50.96c-4.42,0-8.91-.74-13.31-2.29-16.56-5.84-33.28-11.97-49.68-18.21-20.65-7.85-31.02-30.96-23.17-51.6,7.85-20.65,30.96-31.02,51.6-23.17,15.8,6.01,31.91,11.91,47.87,17.54,20.83,7.35,31.76,30.2,24.41,51.03-5.8,16.43-21.24,26.7-37.72,26.7Zm-141.39-55.56c-5.32,0-10.73-1.07-15.92-3.32-93.13-40.45-184.25-87.83-270.82-140.83-18.84-11.53-24.77-36.16-13.23-55,11.53-18.84,36.16-24.77,55-13.23,83.41,51.06,171.2,96.71,260.92,135.68,20.26,8.8,29.55,32.36,20.75,52.62-6.55,15.07-21.26,24.07-36.71,24.07ZM31.64,4496.91c-10.16,0-20.33-3.85-28.13-11.56-10.72-10.6-21.48-21.46-32-32.3-108.06-111.27-204.35-233.68-286.2-363.81-5.39-8.57-7.13-18.39-5.63-27.65-8.93-2.88-16.89-8.9-22.07-17.59-17.3-29.04-34.15-58.89-50.08-88.7-10.41-19.48-3.06-43.72,16.43-54.13,19.48-10.41,43.72-3.06,54.13,16.43,15.35,28.72,31.58,57.47,48.25,85.46,5,8.4,6.57,17.88,5.13,26.83,8.62,2.78,16.36,8.5,21.56,16.77,78.88,125.41,171.7,243.39,275.87,350.67,10.14,10.44,20.53,20.92,30.87,31.15,15.71,15.53,15.85,40.86,.31,56.57-7.82,7.91-18.13,11.87-28.44,11.87Zm3063.64-19.48c-10.15,0-20.31-3.84-28.1-11.54-15.72-15.52-15.88-40.85-.36-56.57,68.98-69.86,133.54-144.9,191.88-223.05,13.22-17.7,38.28-21.34,55.98-8.12,17.7,13.22,21.34,38.28,8.12,55.98-60.54,81.08-127.51,158.93-199.06,231.39-7.82,7.93-18.14,11.9-28.46,11.9Zm253.36-308.66c-7.72,0-15.51-2.23-22.38-6.88-18.29-12.38-23.09-37.25-10.71-55.55,9.47-14,18.9-28.3,28.03-42.52,11.94-18.59,36.69-23.98,55.27-12.04,18.59,11.94,23.98,36.68,12.04,55.27-9.47,14.75-19.26,29.6-29.09,44.12-7.73,11.42-20.33,17.58-33.16,17.58ZM-479.67,3702.88c-16.31,0-31.63-10.05-37.56-26.25-58.29-159.09-98.17-325.32-118.55-494.07-2.65-21.93,12.98-41.86,34.92-44.51,21.94-2.65,41.86,12.99,44.51,34.92,19.64,162.64,58.07,322.83,114.24,476.14,7.6,20.74-3.05,43.72-23.8,51.32-4.54,1.66-9.19,2.45-13.76,2.45Zm4075.92-25.51c-4.41,0-8.89-.73-13.28-2.28-20.84-7.34-31.79-30.17-24.45-51.01,54.22-154.01,90.64-314.67,108.28-477.51,2.38-21.96,22.1-37.84,44.07-35.46,21.96,2.38,37.84,22.11,35.46,44.07-18.29,168.95-56.09,335.65-112.35,495.46-5.79,16.44-21.24,26.73-37.73,26.73Zm121.97-786.01c-21.54,0-39.31-17.13-39.96-38.81-.97-32.57-2.71-65.54-5.18-98.01-.74-9.73,2.07-18.91,7.33-26.27-6.47-6.33-10.83-14.88-11.8-24.59-16.3-163-51.43-323.96-104.42-478.4-7.17-20.9,3.96-43.65,24.85-50.82,20.89-7.17,43.65,3.96,50.82,24.85,54.98,160.26,91.44,327.28,108.35,496.4,1,10.05-1.8,19.6-7.25,27.22,6.69,6.55,11.12,15.47,11.88,25.54,2.56,33.69,4.37,67.9,5.38,101.68,.66,22.08-16.71,40.52-38.79,41.18-.41,.01-.81,.02-1.21,.02Zm-4316.91-172.46c-1.46,0-2.93-.08-4.42-.24-21.96-2.41-37.81-22.17-35.39-44.13,1.92-17.47,4.08-35.15,6.41-52.55,2.94-21.9,23.07-37.26,44.96-34.33,21.9,2.94,37.26,23.07,34.33,44.96-2.25,16.77-4.33,33.81-6.18,50.65-2.25,20.47-19.58,35.64-39.71,35.64Zm21.86-150.36c-2.37,0-4.77-.21-7.18-.65-21.74-3.94-36.17-24.76-32.22-46.49,18.12-99.99,43.38-199.54,75.08-295.88,6.9-20.98,29.51-32.4,50.5-25.5,20.98,6.9,32.4,29.51,25.5,50.5-30.54,92.85-54.89,188.78-72.35,285.15-3.5,19.32-20.34,32.87-39.31,32.87Zm283.31-743.06c-7.13,0-14.35-1.91-20.88-5.91-18.83-11.55-24.73-36.18-13.18-55.01,88.36-144.07,193.95-278.48,313.84-399.51,7.1-7.17,16.25-11.09,25.59-11.75,.79-9.33,4.84-18.42,12.11-25.42,24.37-23.47,49.58-46.67,74.91-68.93,16.59-14.59,41.87-12.96,56.45,3.63,14.58,16.59,12.96,41.87-3.63,56.45-24.43,21.47-48.73,43.84-72.23,66.47-7.03,6.77-15.89,10.45-24.92,11.09-.76,9.02-4.57,17.83-11.44,24.76-115.57,116.66-217.34,246.21-302.48,385.04-7.55,12.31-20.69,19.09-34.14,19.09Zm3680.05-23.09c-13.27,0-26.26-6.6-33.86-18.66-52.11-82.56-110.63-162.41-173.94-237.34-14.26-16.87-12.14-42.11,4.74-56.37,16.87-14.26,42.11-12.14,56.37,4.74,65.69,77.74,126.41,160.6,180.49,246.28,11.79,18.68,6.21,43.38-12.48,55.17-6.63,4.18-14.01,6.18-21.31,6.18Zm-243.5-316.69c-10.75,0-21.47-4.31-29.35-12.82-11.5-12.42-23.32-24.88-35.13-37.04-20.28-20.88-41.22-41.6-62.26-61.57-16.02-15.21-16.67-40.53-1.46-56.55,15.21-16.02,40.53-16.67,56.55-1.46,21.82,20.72,43.54,42.2,64.56,63.85,12.25,12.61,24.5,25.53,36.43,38.41,15.01,16.21,14.05,41.51-2.16,56.53-7.7,7.13-17.45,10.66-27.17,10.66Zm-330.26-291.4c-8.06,0-16.2-2.43-23.26-7.48-26.48-18.96-53.75-37.55-81.05-55.25-8.16-5.29-13.76-13.06-16.43-21.67-8.93,1.29-18.35-.42-26.63-5.51-139.19-85.53-288.56-154.89-443.96-206.15-20.98-6.92-32.38-29.54-25.46-50.52,6.92-20.98,29.54-32.38,50.52-25.46,161.28,53.2,316.31,125.19,460.78,213.96,8.58,5.27,14.48,13.27,17.25,22.19,9.25-1.33,19,.55,27.45,6.03,28.33,18.37,56.64,37.66,84.12,57.34,17.96,12.86,22.09,37.85,9.23,55.81-7.81,10.9-20.09,16.71-32.55,16.71Zm-2449.2-47.28c-13,0-25.74-6.32-33.43-17.99-12.16-18.44-7.07-43.25,11.38-55.41,141.72-93.44,294.41-170.35,453.82-228.61,20.75-7.58,43.72,3.09,51.3,23.84,7.58,20.75-3.09,43.72-23.84,51.3-153.59,56.13-300.7,130.24-437.25,220.27-6.78,4.47-14.42,6.61-21.98,6.61Zm930.65-340.44c-19.96,0-37.23-14.92-39.67-35.24-2.63-21.93,13.02-41.85,34.95-44.48,17.45-2.09,35.17-4,52.66-5.68,22-2.11,41.52,14.02,43.63,36.01,2.1,21.99-14.02,41.52-36.01,43.63-16.86,1.61-33.94,3.46-50.76,5.47-1.62,.19-3.22,.29-4.81,.29Zm451.22-7.02c-1.18,0-2.37-.05-3.57-.16-62.36-5.51-125.74-8.31-188.36-8.31-35.14,0-70.74,.88-105.83,2.62-22.08,1.09-40.84-15.91-41.93-37.97-1.09-22.06,15.91-40.84,37.97-41.93,36.4-1.8,73.34-2.72,109.79-2.72,64.96,0,130.71,2.9,195.4,8.62,22.01,1.95,38.27,21.36,36.32,43.37-1.84,20.81-19.3,36.48-39.8,36.48Z"/><path class="cls-225" d="M1555.91,5078.81c-15.57,0-31.37-.17-46.95-.51-8.28-.18-14.85-7.04-14.67-15.32s7.07-14.87,15.32-14.67c15.37,.33,30.94,.5,46.3,.5,1.77,0,3.55,0,5.33,0h.04c8.27,0,14.98,6.69,15,14.96,.02,8.28-6.68,15.02-14.96,15.04-1.8,0-3.6,0-5.4,0Zm-146.49-5.01c-.34,0-.69-.01-1.04-.04-99.81-6.83-200.39-20.78-298.97-41.44-8.11-1.7-13.3-9.65-11.6-17.76,1.7-8.11,9.65-13.3,17.76-11.6,97.23,20.38,196.43,34.13,294.86,40.87,8.27,.57,14.51,7.73,13.94,15.99-.54,7.92-7.13,13.98-14.95,13.98Zm647.04-54.4c-6.77,0-12.92-4.62-14.57-11.49-1.94-8.05,3.02-16.15,11.07-18.09,160.58-38.65,316.98-96.14,464.85-170.89,7.39-3.74,16.42-.77,20.15,6.62s.77,16.42-6.62,20.15c-149.94,75.79-308.53,134.09-471.36,173.28-1.18,.28-2.36,.42-3.52,.42Zm-1417.19-144.35c-2.13,0-4.29-.46-6.35-1.42-151.95-71.07-295.66-160.04-427.13-264.46-6.49-5.15-7.57-14.59-2.42-21.07,5.15-6.49,14.59-7.57,21.08-2.42,129.64,102.96,271.34,190.69,421.18,260.77,7.5,3.51,10.74,12.44,7.23,19.94-2.55,5.45-7.95,8.65-13.6,8.65Zm2142.8-181.11c-4.75,0-9.43-2.25-12.34-6.45-4.72-6.81-3.03-16.15,3.78-20.87,27.08-18.78,54.08-38.45,80.27-58.46,6.58-5.03,16-3.77,21.03,2.81,5.03,6.58,3.77,16-2.81,21.03-26.55,20.29-53.93,40.24-81.39,59.28-2.61,1.81-5.59,2.68-8.54,2.68Zm121.77-90.95c-4.39,0-8.74-1.92-11.71-5.61-5.19-6.46-4.16-15.9,2.3-21.09,129.22-103.78,246.24-222.45,347.8-352.74,5.09-6.53,14.52-7.7,21.05-2.61,6.53,5.09,7.7,14.52,2.61,21.05-102.99,132.12-221.65,252.46-352.68,357.69-2.77,2.22-6.09,3.31-9.38,3.31Zm-2729.11-23.44c-3.39,0-6.8-1.14-9.6-3.48-25.67-21.42-51.19-43.75-75.85-66.36-6.11-5.6-6.52-15.09-.92-21.19,5.6-6.11,15.09-6.52,21.19-.92,24.31,22.29,49.48,44.31,74.79,65.44,6.36,5.31,7.21,14.77,1.91,21.13-2.97,3.55-7.23,5.39-11.52,5.39Zm-281.64-283.34c-4.32,0-8.61-1.86-11.58-5.46-106.74-129.4-198.55-271.27-272.88-421.68-3.67-7.43-.62-16.42,6.8-20.09,7.43-3.67,16.42-.62,20.09,6.8,73.31,148.34,163.85,288.26,269.12,415.88,5.27,6.39,4.36,15.84-2.03,21.12-2.79,2.31-6.18,3.43-9.54,3.43Zm3619.72-474.95c-2.08,0-4.2-.44-6.22-1.36-7.54-3.44-10.86-12.34-7.41-19.88,41.02-89.82,76.16-183.57,104.45-278.65,2.36-7.94,10.71-12.46,18.65-10.1,7.94,2.36,12.46,10.71,10.1,18.65-28.68,96.41-64.32,191.48-105.91,282.56-2.52,5.52-7.96,8.77-13.65,8.77Zm131.5-377.05c-1.2,0-2.41-.14-3.63-.45-8.04-2-12.94-10.13-10.94-18.17,4.12-16.62,8.11-33.52,11.85-50.26,1.33-5.98,2.65-12.01,3.92-17.92,1.74-8.1,9.71-13.26,17.81-11.52,8.1,1.74,13.26,9.71,11.52,17.81-1.29,5.99-2.62,12.1-3.98,18.16-3.79,16.96-7.83,34.1-12.01,50.95-1.7,6.83-7.82,11.39-14.55,11.39Zm-4190.06-36.43c-6.83,0-13-4.69-14.6-11.63-3.9-16.89-7.65-34.06-11.14-51.02-1.67-8.11,3.56-16.04,11.67-17.71,8.11-1.67,16.05,3.56,17.71,11.67,3.44,16.73,7.14,33.66,10.98,50.31,1.86,8.07-3.17,16.13-11.24,17.99-1.14,.26-2.27,.39-3.39,.39Zm-28.89-148.87c-7.26,0-13.63-5.28-14.8-12.67-15.61-99.12-24.34-200.24-25.94-300.56-.13-8.28,6.48-15.1,14.76-15.24,8.29-.12,15.11,6.48,15.24,14.76,1.58,98.92,10.19,198.64,25.58,296.37,1.29,8.18-4.3,15.86-12.48,17.15-.79,.12-1.58,.18-2.35,.18Zm4277.37-180.07c-.37,0-.74-.01-1.11-.04-8.26-.6-14.47-7.79-13.87-16.05,2.41-32.89,4.07-66.25,4.94-99.16,.22-8.28,7.1-14.83,15.39-14.6,8.28,.22,14.82,7.11,14.6,15.39-.88,33.37-2.57,67.21-5.01,100.55-.58,7.89-7.16,13.91-14.94,13.91Zm5.71-151.85h-.03c-8.29-.02-14.99-6.74-14.97-15.03v-4.71c0-163.8-19.06-327.76-56.67-487.32-1.9-8.06,3.1-16.14,11.16-18.04,8.07-1.9,16.14,3.1,18.04,11.16,38.14,161.81,57.48,328.08,57.48,494.2v4.77c-.02,8.27-6.73,14.97-15,14.97ZM-550.45,2464.08c-1.06,0-2.14-.11-3.22-.35-8.09-1.77-13.22-9.77-11.45-17.86,.67-3.07,1.35-6.15,2.04-9.22,36.02-161.35,90.14-318.07,160.87-465.82,3.58-7.47,12.53-10.63,20.01-7.05,7.47,3.58,10.63,12.53,7.05,20.01-69.74,145.7-123.12,300.27-158.65,459.41-.68,3.03-1.35,6.06-2.01,9.1-1.53,7.01-7.74,11.8-14.64,11.8Zm4031.94-501.49c-5.5,0-10.8-3.04-13.43-8.3-44.23-88.52-95.07-174.79-151.12-256.4-4.69-6.83-2.96-16.17,3.87-20.86,6.83-4.69,16.17-2.96,20.86,3.87,56.83,82.75,108.38,170.22,153.23,259.98,3.7,7.41,.7,16.42-6.71,20.12-2.15,1.08-4.44,1.58-6.69,1.58Zm-3847.17-16.91c-2.29,0-4.61-.53-6.79-1.63-7.38-3.76-10.32-12.79-6.57-20.17,15.19-29.85,31.29-59.73,47.86-88.83,4.1-7.2,13.26-9.71,20.46-5.61,7.2,4.1,9.71,13.26,5.61,20.46-16.34,28.69-32.21,58.16-47.19,87.59-2.65,5.2-7.92,8.2-13.38,8.2Zm3636.5-322.39c-4.54,0-9.02-2.05-11.97-5.95-10.35-13.68-21.01-27.41-31.67-40.81-5.16-6.48-4.08-15.92,2.4-21.08,6.48-5.16,15.92-4.08,21.08,2.4,10.81,13.59,21.61,27.51,32.11,41.38,5,6.6,3.7,16.01-2.91,21.01-2.71,2.05-5.89,3.04-9.04,3.04Zm-3422.71-15.33c-3.2,0-6.43-1.02-9.16-3.13-6.55-5.06-7.76-14.49-2.7-21.04,102.43-132.55,220.57-253.4,351.16-359.18,6.44-5.21,15.88-4.22,21.1,2.21,5.21,6.44,4.22,15.88-2.21,21.1-128.78,104.32-245.3,223.49-346.3,354.21-2.96,3.82-7.39,5.83-11.88,5.83Zm3037.23-377.66c-3.25,0-6.52-1.05-9.27-3.21-130.08-102.39-272.16-189.51-422.31-258.94-7.52-3.48-10.8-12.39-7.32-19.91,3.48-7.52,12.39-10.8,19.91-7.32,152.27,70.41,296.36,158.76,428.28,262.59,6.51,5.12,7.63,14.55,2.51,21.06-2.96,3.76-7.36,5.72-11.8,5.72ZM618.03,984.01c-5.58,0-10.93-3.12-13.52-8.48-3.6-7.46-.48-16.43,6.98-20.03,15.63-7.55,31.56-15.02,47.37-22.19,7.54-3.43,16.43-.08,19.86,7.46,3.42,7.54,.08,16.43-7.46,19.86-15.59,7.07-31.31,14.44-46.72,21.88-2.1,1.02-4.33,1.5-6.52,1.5Zm138.95-61.22c-5.96,0-11.59-3.57-13.94-9.44-3.07-7.69,.68-16.42,8.37-19.49,93.28-37.24,189.94-68.23,287.29-92.1,8.04-1.97,16.17,2.95,18.14,11,1.97,8.05-2.95,16.17-11,18.14-96,23.55-191.32,54.1-283.31,90.83-1.82,.73-3.71,1.07-5.56,1.07Zm1422.97-59.73c-1.44,0-2.9-.21-4.35-.65-31.49-9.53-63.68-18.46-95.65-26.56-8.03-2.03-12.89-10.19-10.86-18.22,2.03-8.03,10.19-12.89,18.22-10.86,32.42,8.21,65.05,17.27,96.98,26.93,7.93,2.4,12.41,10.77,10.01,18.7-1.96,6.48-7.91,10.66-14.35,10.66Zm-146.85-38.9c-1.11,0-2.23-.12-3.35-.38-3.26-.74-6.51-1.48-9.78-2.21-158.93-35.48-321.47-52.91-482.69-51.81h-.1c-8.24,0-14.94-6.65-15-14.9-.06-8.28,6.61-15.05,14.9-15.1,4.94-.03,9.87-.05,14.81-.05,158.66,0,318.35,17.69,474.62,52.58,3.31,.74,6.61,1.48,9.91,2.24,8.08,1.84,13.13,9.88,11.29,17.96-1.59,6.95-7.77,11.67-14.61,11.67Z"/><g class="cls-227"><path class="cls-28" d="M1893.87,150.21h114.1c10.07,0,18.31-8.24,18.31-18.31s-8.24-18.31-18.31-18.31h-331.28c-10.07,0-18.31,8.24-18.31,18.31s8.24,18.31,18.31,18.31h217.18Z"/><path class="cls-28" d="M2171.73,186.84h-331.28c-10.07,0-18.31,8.24-18.31,18.31s8.24,18.31,18.31,18.31h331.28c10.07,0,18.31-8.24,18.31-18.31s-8.24-18.31-18.31-18.31Z"/><path class="cls-28" d="M1687.5,205.15c0,10.07,8.24,18.31,18.31,18.31h46.77c10.07,0,18.31-8.24,18.31-18.31s-8.24-18.31-18.31-18.31h-46.77c-10.07,0-18.31,8.24-18.31,18.31Z"/><path class="cls-28" d="M1977.27,76.95c10.07,0,18.31-8.24,18.31-18.31s-8.24-18.31-18.31-18.31h-94.67c-10.07,0-18.31,8.24-18.31,18.31s8.24,18.31,18.31,18.31h94.67Z"/><path class="cls-28" d="M1912.18,168.52h0c0,10.07-8.24,18.31-18.31,18.31h80.54c10.07,0,18.31-8.24,18.31-18.31h0c0-10.07-8.24-18.31-18.31-18.31h-80.54c10.07,0,18.31,8.24,18.31,18.31Z"/></g></svg>