<?xml version="1.0" encoding="UTF-8"?><svg id="Layer_1" xmlns="http://www.w3.org/2000/svg" xmlns:xlink="http://www.w3.org/1999/xlink" viewBox="0 0 444.5 490.24"><defs><style>.cls-1{fill:url(#linear-gradient);}.cls-2{fill:#fff;}.cls-3{fill:url(#linear-gradient-2);}.cls-4{fill:url(#radial-gradient);}</style><linearGradient id="linear-gradient" x1="112.8" y1="-492.39" x2="154.83" y2="-492.39" gradientTransform="translate(122.34 614.37) rotate(10.9)" gradientUnits="userSpaceOnUse"><stop offset="0" stop-color="#ffe266"/><stop offset="1" stop-color="#29c8fb"/></linearGradient><linearGradient id="linear-gradient-2" x1="25.54" y1="-492.35" x2="67.57" y2="-492.35" xlink:href="#linear-gradient"/><radialGradient id="radial-gradient" cx="-1037.93" cy="-1797.07" fx="-1037.93" fy="-1797.07" r="123.77" gradientTransform="translate(-107.56 2157.39) rotate(41.85)" gradientUnits="userSpaceOnUse"><stop offset=".49" stop-color="#fff" stop-opacity="0"/><stop offset="1" stop-color="#fff" stop-opacity=".5"/></radialGradient></defs><g><path d="M200.55,282.45s-51.81-.05-44.05,42.29c0,0-32.17-2.29-36.42,11.94-4.25,14.23,11.56,17.08,82.81,7.61"/><path class="cls-2" d="M142.54,352.27c-14.62,0-20.49-2.22-23.46-5.7-2.27-2.67-2.73-6.14-1.39-10.61,3.96-13.27,27.32-14.02,35.88-13.84-1.31-10.56,.96-19.42,6.76-26.38,13.01-15.59,38.97-15.79,40.22-15.79h0c1.38,0,2.5,1.12,2.5,2.5s-1.12,2.5-2.5,2.5c-.25,0-24.87,.17-36.4,14.01-5.35,6.42-7.1,14.95-5.2,25.33l.58,3.17-3.22-.23c-8.39-.59-30.84,.08-33.85,10.16-1.08,3.62-.29,5.12,.41,5.93,4.88,5.71,28.71,5.26,79.68-1.52,1.37-.18,2.62,.78,2.81,2.15,.18,1.37-.78,2.63-2.15,2.81-29.14,3.88-48.13,5.51-60.68,5.51Z"/></g><g><path d="M279.01,334.69s-12.73,84.45-79.11,97.86c-66.39,13.4-107.05-20.38-116.61,21.16-9.56,41.54-68.59,48.73-79.3,.94-10.71-47.79,37.56-73.82,119.97-59.25,82.41,14.57,130.84-22.9,144.91-57.66,14.07-34.76,10.15-3.04,10.15-3.04Z"/><path class="cls-2" d="M2.74,439.63c-.08,0-.17,0-.25-.01-1.37-.14-2.38-1.36-2.24-2.74,3.04-30.07,33.36-48.03,81.09-48.03h0c13.26,0,27.74,1.37,43.04,4.07,11.97,2.12,23.69,3.19,34.82,3.19,7.26,0,14.41-.46,21.25-1.36,1.38-.18,2.63,.78,2.81,2.15,.18,1.37-.78,2.63-2.15,2.81-7.05,.93-14.42,1.4-21.9,1.4-11.42,0-23.43-1.1-35.69-3.27-15.01-2.65-29.2-4-42.17-4-44.91,0-73.37,16.27-76.12,43.53-.13,1.29-1.22,2.25-2.48,2.25Zm162.51-1.22c-9.51,0-18.16-.7-23.83-1.23-1.38-.13-2.39-1.35-2.26-2.72,.13-1.37,1.33-2.39,2.72-2.26,5.58,.52,14.06,1.21,23.37,1.21,11.91,0,23.08-1.09,34.15-3.32,13.24-2.67,25.28-8.51,35.79-17.34,1.05-.89,2.63-.75,3.52,.3,.89,1.06,.75,2.63-.3,3.52-11.15,9.38-23.95,15.57-38.02,18.42-11.4,2.3-22.89,3.42-35.14,3.42Zm46.5-46.39c-1.01,0-1.96-.61-2.34-1.61-.49-1.29,.16-2.73,1.45-3.23,24.62-9.39,38.9-23.78,46.54-34.21,.82-1.11,2.38-1.35,3.49-.54,1.11,.82,1.35,2.38,.54,3.49-8.04,10.97-23.04,26.1-48.79,35.93-.29,.11-.59,.16-.89,.16Zm58.44-24.02c-.3,0-.61-.06-.92-.17-1.28-.51-1.92-1.96-1.41-3.24,6.57-16.69,8.65-30.14,8.67-30.27,.21-1.36,1.49-2.3,2.84-2.1,1.37,.21,2.3,1.48,2.1,2.84-.08,.57-2.17,14.11-8.96,31.36-.39,.98-1.33,1.58-2.33,1.58Z"/></g><g><path d="M282.63,162.65s-18.67,51.59-47.18,62.16c-28.51,10.57-112.76,97.45-17.91,149.38,94.84,51.93,177.04,5.83,163.81-80.5-13.23-86.34-15.36-114.99-15.36-114.99l-83.35-16.04Z"/><path class="cls-2" d="M333.14,391.42c-.99,0-1.92-.59-2.32-1.56-.52-1.28,.09-2.74,1.37-3.26,30.54-12.45,48.05-39.8,48.05-75.04,0-5.67-.46-11.56-1.38-17.51-4.97-32.45-8.95-60.48-11.83-83.32-.17-1.37,.8-2.62,2.17-2.79,1.37-.17,2.62,.8,2.79,2.17,2.87,22.79,6.85,50.78,11.81,83.18,.95,6.2,1.43,12.35,1.43,18.27,0,18.76-4.66,35.38-13.85,49.39-8.82,13.45-21.72,23.92-37.32,30.27-.31,.13-.63,.19-.94,.19Zm-159.46-76.2h-.02c-1.38-.01-2.49-1.14-2.48-2.52,.19-20.12,10.09-38.39,18.36-50.18,9.29-13.23,21.95-25.94,33.87-33.99,1.14-.77,2.7-.47,3.47,.67,.77,1.14,.47,2.7-.67,3.47-19.18,12.97-49.72,46.17-50.03,80.08-.01,1.37-1.13,2.48-2.5,2.48Zm95.03-121.21c-.44,0-.88-.11-1.28-.35-1.19-.71-1.58-2.24-.87-3.43,8.63-14.5,13.67-28.3,13.72-28.44,.47-1.3,1.9-1.97,3.2-1.5,1.3,.47,1.97,1.9,1.5,3.2-.21,.58-5.24,14.37-14.13,29.29-.47,.79-1.3,1.22-2.15,1.22Zm97.25-12.83c-.16,0-.32-.01-.48-.05l-58.92-11.34c-1.36-.26-2.24-1.57-1.98-2.93,.26-1.36,1.57-2.24,2.93-1.98l58.92,11.34c1.36,.26,2.24,1.57,1.98,2.93-.23,1.2-1.28,2.03-2.45,2.03Z"/></g><g><path d="M406.01,70.35c11.43,11.26,.11,51.58-14.36,59.14-14.46,7.56-48.41-27.58-44.99-43.24,3.42-15.66,47.67-27.42,59.35-15.91Z"/><path class="cls-2" d="M368.03,124.1c-.55,0-1.11-.18-1.57-.56-11.2-9.09-22.53-24.01-22.53-34.94,0-1.01,.1-1.98,.3-2.88,1.32-6.03,7.56-11.8,17.57-16.25,8.82-3.91,19.43-6.25,28.36-6.25,2.54,0,4.91,.19,7.06,.56,1.36,.24,2.27,1.53,2.04,2.89-.24,1.36-1.52,2.27-2.89,2.04-1.87-.32-3.96-.49-6.21-.49-17.98,0-39.08,9.54-41.05,18.56-.12,.55-.18,1.17-.18,1.82,0,8,9.09,21.64,20.69,31.06,1.07,.87,1.24,2.44,.36,3.52-.49,.61-1.21,.92-1.94,.92Zm40.58-20.53c-.2,0-.41-.03-.62-.08-1.34-.34-2.15-1.7-1.81-3.04,1.32-5.17,2.01-10.26,2.01-14.72,0-6.27-1.4-11.11-3.94-13.61-.98-.97-1-2.55-.03-3.54,.97-.98,2.55-.99,3.54-.03,3.55,3.5,5.43,9.44,5.43,17.17,0,4.87-.75,10.39-2.17,15.95-.29,1.13-1.31,1.88-2.42,1.88Z"/></g><g><path d="M242.17,43.68c-14.79,6.22-19.25,47.86-8.63,60.25,10.62,12.39,55.19-7.64,57.83-23.45,2.64-15.8-34.09-43.16-49.21-36.8Z"/><path class="cls-2" d="M258.4,107.88c-1.07,0-2.05-.69-2.39-1.76-.41-1.32,.33-2.72,1.65-3.13,15.68-4.88,29.99-15.37,31.25-22.92,.07-.4,.1-.83,.1-1.26,0-11.04-20.9-29.58-37.27-33.06-1.35-.29-2.21-1.61-1.93-2.97,.29-1.35,1.62-2.21,2.96-1.93,17.24,3.66,41.23,23.47,41.23,37.96,0,.71-.06,1.41-.17,2.08-1.77,10.62-19.04,22-34.7,26.87-.25,.08-.5,.11-.74,.11Zm-30.04-34.13c-.11,0-.22,0-.33-.02-1.37-.18-2.33-1.44-2.15-2.81,2.02-15.31,7.75-26.35,15.32-29.54,1.27-.53,2.74,.06,3.27,1.34,.54,1.27-.06,2.74-1.34,3.27-5.74,2.41-10.57,12.46-12.3,25.58-.17,1.26-1.24,2.17-2.48,2.17Z"/></g><g><path d="M320.59,69.8c26.4,5.03,57.1,10.93,70.1,56.43,20.52,71.82-23.33,94.72-59.4,97.6-25.09,2-54.18-3.78-75.51-13.98-24.96-11.94-60.44-47.86-15.66-112.84,25.3-36.71,59.62-31.18,80.47-27.21Z"/><path class="cls-2" d="M272.31,218.89c-.26,0-.51-.04-.77-.12-5.99-1.94-11.66-4.18-16.84-6.66-9.03-4.32-38.5-21.25-38.5-57.72,0-17.97,7.36-37.75,21.86-58.79,10.8-15.66,24.5-25.53,40.72-29.31,1.35-.31,2.69,.52,3,1.87,.31,1.34-.52,2.69-1.87,3-15.18,3.54-27.53,12.47-37.74,27.28-13.92,20.2-20.98,39.02-20.98,55.95,0,33.55,27.29,49.21,35.66,53.21,4.98,2.38,10.44,4.54,16.22,6.41,1.31,.43,2.03,1.83,1.61,3.15-.34,1.06-1.32,1.73-2.38,1.73Zm97-4.41c-.83,0-1.64-.41-2.11-1.16-.74-1.17-.4-2.71,.77-3.45,16.9-10.73,25.47-27.54,25.47-49.95,0-9.94-1.73-21.04-5.15-33-.41-1.44-.85-2.85-1.29-4.21-.43-1.31,.28-2.72,1.59-3.16,1.31-.43,2.72,.28,3.16,1.59,.47,1.42,.92,2.9,1.35,4.4,3.54,12.41,5.34,23.97,5.34,34.37,0,23.89-9.61,42.62-27.79,54.17-.42,.26-.88,.39-1.34,.39Zm-17.87-133.9c-.33,0-.66-.06-.98-.2-9.88-4.22-20.28-6.2-30.33-8.12-2.89-.55-6.03-1.13-9.33-1.61-1.37-.2-2.31-1.47-2.11-2.84,.2-1.37,1.47-2.31,2.84-2.11,3.39,.5,6.59,1.09,9.54,1.65,9.84,1.87,20.99,4,31.36,8.43,1.27,.54,1.86,2.01,1.32,3.28-.41,.95-1.33,1.52-2.3,1.52Z"/></g><path class="cls-1" d="M346.83,177.17c-1.31,0-2.64-.12-3.98-.38-11.38-2.19-18.85-13.23-16.67-24.61,1.06-5.51,4.21-10.28,8.85-13.43,4.65-3.15,10.24-4.3,15.76-3.24,11.38,2.19,18.85,13.23,16.67,24.61h0c-1.93,10.04-10.76,17.05-20.63,17.05Zm-.04-37.04c-3.17,0-6.27,.94-8.95,2.76-3.54,2.4-5.94,6.03-6.75,10.23-1.67,8.67,4.03,17.09,12.7,18.75,8.67,1.67,17.09-4.03,18.75-12.7,1.67-8.67-4.03-17.09-12.7-18.75-1.02-.2-2.04-.29-3.06-.29Zm18.22,19.52h0Z"/><path class="cls-3" d="M261.17,160.71c-1.33,0-2.68-.13-4.02-.39-11.38-2.19-18.85-13.23-16.67-24.61,2.19-11.38,13.23-18.85,24.61-16.66,11.38,2.19,18.85,13.23,16.67,24.61-1.06,5.51-4.21,10.28-8.85,13.43-3.52,2.38-7.58,3.62-11.74,3.62Zm-.05-37.04c-7.52,0-14.25,5.34-15.72,12.99-1.67,8.67,4.03,17.09,12.7,18.75,4.2,.81,8.47-.07,12.01-2.47,3.54-2.4,5.94-6.03,6.75-10.23,1.67-8.67-4.03-17.09-12.7-18.75-1.02-.2-2.03-.29-3.03-.29Z"/><g><path d="M277.88,173.95s5.63,7.96,15.24,.53c0,0,4.37,11.09,15.71,5.45"/><path class="cls-2" d="M302.78,184.03c-1.47,0-2.88-.26-4.24-.78-3.02-1.16-5.04-3.39-6.27-5.18-2.96,1.72-5.89,2.38-8.73,1.96-4.89-.73-7.59-4.47-7.7-4.63-.8-1.13-.53-2.69,.6-3.48,1.12-.79,2.67-.53,3.47,.58,.06,.08,1.69,2.22,4.42,2.6,2.19,.31,4.64-.56,7.26-2.59,.62-.48,1.44-.64,2.19-.43,.76,.21,1.38,.76,1.66,1.49,.01,.03,1.56,3.77,4.92,5.04,2.08,.79,4.55,.48,7.35-.91,1.24-.61,2.74-.11,3.35,1.13,.62,1.24,.11,2.74-1.12,3.35-2.5,1.24-4.9,1.87-7.17,1.87Z"/></g><g><line x1="230.94" y1="140.33" x2="211.06" y2="123.6"/><path class="cls-2" d="M230.94,142.83c-.57,0-1.14-.19-1.61-.59l-19.87-16.73c-1.06-.89-1.19-2.47-.3-3.52,.89-1.06,2.47-1.19,3.52-.3l19.87,16.73c1.06,.89,1.19,2.47,.3,3.52-.49,.59-1.2,.89-1.91,.89Z"/></g><g><line x1="226.82" y1="159.76" x2="205.1" y2="164.85"/><path class="cls-2" d="M205.1,167.35c-1.13,0-2.16-.78-2.43-1.93-.32-1.34,.52-2.69,1.86-3l21.72-5.09c1.35-.32,2.69,.52,3,1.86,.32,1.34-.52,2.69-1.86,3l-21.72,5.09c-.19,.05-.38,.07-.57,.07Z"/></g><g><line x1="377.33" y1="172.58" x2="427.87" y2="169.41"/><path class="cls-2" d="M377.33,175.08c-1.31,0-2.41-1.02-2.49-2.34-.09-1.38,.96-2.57,2.34-2.65l31.94-2.01c1.38-.09,2.57,.96,2.65,2.34,.09,1.38-.96,2.57-2.34,2.65l-31.94,2.01c-.05,0-.11,0-.16,0Z"/></g><g><line x1="374.36" y1="192.23" x2="415.87" y2="209.5"/><path class="cls-2" d="M403.9,207.02c-.32,0-.65-.06-.96-.19l-29.55-12.29c-1.28-.53-1.88-1.99-1.35-3.27,.53-1.28,1.99-1.88,3.27-1.35l29.55,12.29c1.28,.53,1.88,1.99,1.35,3.27-.4,.96-1.33,1.54-2.31,1.54Z"/></g><g><path d="M234.77,236.38s-18.43-40.93-37.8-29.28c-14.82,8.92-4.27,30.08,13.05,45.03"/><path class="cls-2" d="M210.02,254.63c-.58,0-1.16-.2-1.63-.61-16.48-14.22-21.6-28.07-20.9-36.28,.46-5.42,3.3-9.84,8.19-12.79,4.26-2.56,8.79-3.12,13.47-1.65,15.5,4.85,27.4,30.94,27.9,32.05,.57,1.26,0,2.74-1.25,3.31-1.26,.57-2.74,0-3.31-1.25-.11-.25-11.48-25.16-24.84-29.33-3.3-1.03-6.37-.65-9.39,1.17-3.57,2.15-5.46,5.07-5.79,8.93-.75,8.77,6.78,21.36,19.18,32.07,1.04,.9,1.16,2.48,.26,3.53-.49,.57-1.19,.87-1.89,.87Z"/></g><g><path d="M335.42,313.31s-43.09-28.77-60.11,10.77c0,0-25.5-19.75-36.93-10.26-11.43,9.48,.14,20.62,64.69,52.25"/><path class="cls-2" d="M303.08,368.56c-.37,0-.74-.08-1.1-.26-57.15-28-68.91-38.37-69.92-46.82-.41-3.48,1.13-6.62,4.72-9.6,10.65-8.84,30.5,3.48,37.54,8.38,4.77-9.51,11.57-15.63,20.25-18.2,19.53-5.78,41.32,8.55,42.24,9.17,1.15,.77,1.46,2.32,.69,3.47-.77,1.15-2.32,1.46-3.47,.69-.2-.14-20.79-13.65-38.06-8.53-8.02,2.38-14.2,8.5-18.37,18.2l-1.27,2.96-2.55-1.97c-6.66-5.15-25.71-17.04-33.8-10.32-2.91,2.41-3.08,4.1-2.95,5.16,.89,7.46,20.97,20.29,67.15,42.92,1.24,.61,1.75,2.11,1.15,3.34-.43,.89-1.32,1.4-2.25,1.4Z"/></g><g><circle class="cls-4" cx="318.24" cy="126.27" r="123.75"/><path class="cls-2" d="M247.72,230.47c-.49,0-.99-.14-1.42-.45-34.02-23.56-54.33-62.39-54.33-103.87,0-24.6,7.17-48.52,20.72-69.17,1.62-2.46,3.34-4.9,5.12-7.24,.84-1.1,2.41-1.31,3.5-.48,1.1,.84,1.31,2.4,.48,3.5-1.71,2.25-3.37,4.59-4.92,6.96-13.02,19.84-19.9,42.81-19.9,66.43,0,39.84,19.51,77.13,52.18,99.76,1.13,.79,1.42,2.34,.63,3.48-.49,.7-1.27,1.08-2.06,1.08Zm175.28-35.84c-.46,0-.92-.12-1.33-.38-1.17-.74-1.52-2.28-.79-3.45,12.18-19.35,18.61-41.63,18.61-64.42,0-10-1.24-20-3.68-29.72-.34-1.34,.48-2.7,1.82-3.03,1.33-.34,2.7,.48,3.03,1.81,2.54,10.11,3.83,20.52,3.83,30.94,0,23.73-6.7,46.93-19.38,67.08-.48,.76-1.29,1.17-2.12,1.17Zm-12.64-148.54c-.68,0-1.37-.28-1.86-.83-6.96-7.74-14.94-14.59-23.73-20.36-1.15-.76-1.48-2.31-.72-3.46,.76-1.15,2.31-1.48,3.46-.72,9.15,6,17.46,13.14,24.7,21.2,.92,1.03,.84,2.61-.19,3.53-.48,.43-1.08,.64-1.67,.64Zm-168.13-15.04c-.75,0-1.48-.33-1.98-.96-.85-1.09-.65-2.66,.44-3.51,16.08-12.51,35.23-21.02,55.39-24.61,1.36-.24,2.66,.66,2.9,2.02,.24,1.36-.66,2.66-2.02,2.9-19.36,3.45-37.76,11.63-53.2,23.64-.46,.35-1,.53-1.53,.53Z"/></g><g><path d="M332.85,251.47s-38.68-22.49-46.31-4.76c-7.63,17.73,11.15,26.11,35.03,27.28"/><path class="cls-2" d="M321.57,276.48s-.08,0-.12,0c-10.81-.53-29.96-3.04-36.77-13.96-3.01-4.82-3.15-10.47-.43-16.8,1.56-3.63,4.29-6.11,8.12-7.38,14.43-4.77,40.64,10.32,41.75,10.96,1.19,.69,1.6,2.22,.9,3.42-.69,1.19-2.23,1.6-3.42,.91-7.02-4.07-27.46-13.91-37.67-10.54-2.44,.81-4.1,2.31-5.09,4.6-2.07,4.8-2.04,8.78,.08,12.18,4.1,6.56,16.04,10.8,32.78,11.61,1.38,.07,2.44,1.24,2.38,2.62-.07,1.34-1.17,2.38-2.5,2.38Z"/></g></svg>