<?xml version="1.0" encoding="UTF-8"?><svg id="Layer_1" xmlns="http://www.w3.org/2000/svg" xmlns:xlink="http://www.w3.org/1999/xlink" viewBox="0 0 582.93 118"><defs><style>.cls-1{fill:url(#linear-gradient);}.cls-2{fill:url(#linear-gradient-2);}.cls-3{fill:url(#radial-gradient);isolation:isolate;opacity:.7;}</style><radialGradient id="radial-gradient" cx="14510.99" cy="-7058.1" fx="14510.99" fy="-7058.1" r="255.64" gradientTransform="translate(-16334.2 5566.25) rotate(-90) scale(.38 -2.36)" gradientUnits="userSpaceOnUse"><stop offset="0" stop-color="#bc359f" stop-opacity=".7"/><stop offset=".57" stop-color="#2a1972" stop-opacity="0"/></radialGradient><linearGradient id="linear-gradient" x1="127.26" y1="-17457.35" x2="496.7" y2="-17456.43" gradientTransform="translate(0 10341.97) scale(1 .59)" gradientUnits="userSpaceOnUse"><stop offset="0" stop-color="#fff"/><stop offset=".03" stop-color="#ffe266"/><stop offset=".34" stop-color="#fe53bb"/><stop offset=".64" stop-color="#2a1972"/><stop offset=".97" stop-color="#2a1972" stop-opacity="0"/></linearGradient><linearGradient id="linear-gradient-2" x1="224.66" y1="9554.37" x2="442.44" y2="9554.92" gradientTransform="translate(0 3988.21) scale(1 -.41)" gradientUnits="userSpaceOnUse"><stop offset="0" stop-color="#fff"/><stop offset=".03" stop-color="#ffe266"/><stop offset=".34" stop-color="#fe53bb"/><stop offset=".64" stop-color="#2a1972"/><stop offset=".97" stop-color="#2a1972" stop-opacity="0"/></linearGradient></defs><rect class="cls-3" y="0" width="582.93" height="164.65" rx="12" ry="12"/><path class="cls-1" d="M125.79,37h418.88c3,0,5.44,2.44,5.44,5.44h0c0,3-2.44,5.44-5.44,5.44H125.79c-3,0-5.44-2.44-5.44-5.44h0c0-3,2.44-5.44,5.44-5.44Z"/><path class="cls-2" d="M224.16,67h245.76c2.09,0,3.79,1.7,3.79,3.79h0c0,2.09-1.7,3.79-3.79,3.79H224.16c-2.09,0-3.79-1.7-3.79-3.79h0c0-2.09,1.7-3.79,3.79-3.79Z"/></svg>